<svg width="366" height="302" viewBox="0 0 366 302" fill="none" xmlns="http://www.w3.org/2000/svg">
<path d="M325.558 288.103C307.381 274.293 276.292 240.023 317.232 186.226C367.859 119.7 307.229 92.4064 249.112 95.2552C202.357 97.5472 149.738 38.768 97.2472 49.2736C27.5768 63.2176 72.8144 123.214 25.576 155.538C-14.7112 183.104 2.5856 267.099 55.0176 288.103H325.558Z" fill="#DCEDF9"/>
<path d="M358.366 166.106C358.086 156.241 348.896 152.414 342.762 159.556C339.243 163.653 335.889 169.53 335.262 177.39C333.857 194.978 349.245 189.882 354.994 180.464C357.447 176.447 358.508 171.092 358.366 166.106Z" fill="#DCEDF9"/>
<path d="M189.04 45.7896C179.343 43.9544 173.64 52.1136 179.305 59.6328C182.555 63.9464 187.579 68.48 195.123 70.7728C212.005 75.9048 210.315 59.7832 202.345 52.1536C198.945 48.8984 193.941 46.7168 189.04 45.7896Z" fill="#DCEDF9"/>
<path d="M28.7703 136.176C32.6503 127.102 25.9103 119.776 17.3479 123.689C12.4359 125.934 6.92708 129.864 3.06308 136.737C-5.58332 152.117 10.5231 153.939 19.6911 147.799C23.6007 145.18 26.8087 140.762 28.7703 136.176Z" fill="#DCEDF9"/>
<path d="M183.293 301.734C275.088 301.734 349.501 296.835 349.501 290.792C349.501 284.749 275.088 279.85 183.293 279.85C91.4993 279.85 17.0854 284.749 17.0854 290.792C17.0854 296.835 91.4993 301.734 183.293 301.734Z" fill="#2D314D"/>
<path d="M345.022 201.026C334.845 211.199 346.197 212.062 338.73 219.744C331.924 226.746 321.881 219.93 322.549 237.034C322.696 240.774 319.973 243.55 316.153 244.973C309.868 247.311 303.719 245.148 299.932 240.849C299.624 240.502 299.331 240.139 299.057 239.762C296.182 235.84 295.134 230.524 297.264 225.255C298.992 220.98 302.052 216.774 307.475 215.098C320.198 211.166 313.136 194.314 323.89 193.574C336.86 192.682 337.325 187.925 346.529 181.513C356.287 174.714 358.814 187.241 345.022 201.026Z" fill="#33D35E"/>
<path d="M340.46 195.468C340.176 195.761 316.58 220.089 299.931 240.848C299.623 240.502 299.33 240.138 299.056 239.762C315.75 218.99 339.198 194.811 339.484 194.518C339.746 194.249 340.177 194.243 340.446 194.505C340.717 194.767 340.722 195.198 340.46 195.468Z" fill="#2D314D"/>
<path d="M347.635 234.986C331.692 244.371 345.543 249.1 333.776 256.258C323.049 262.783 312.742 251.065 308.067 272.57C307.044 277.274 302.761 279.852 297.549 280.392C288.972 281.278 282.014 276.606 278.684 270.034C278.412 269.504 278.165 268.958 277.945 268.4C275.63 262.592 276.037 255.638 280.385 249.765C283.912 245 289.076 240.75 296.366 240.41C313.47 239.613 310.106 216.362 323.731 218.905C340.162 221.97 342.273 216.199 355.796 211.181C370.13 205.861 369.242 222.267 347.635 234.986Z" fill="#2D314D"/>
<path d="M343.745 226.598C343.297 226.872 306.091 249.556 278.683 270.035C278.411 269.505 278.164 268.958 277.944 268.401C305.413 247.922 342.386 225.375 342.837 225.102C343.249 224.851 343.788 224.983 344.039 225.396C344.29 225.809 344.159 226.347 343.745 226.598Z" fill="#33D35E"/>
<path d="M36.6999 84.8128C42.1703 98.1208 31.3639 94.5432 35.2927 104.51C38.8751 113.594 50.7687 111.175 43.5615 126.699C41.9847 130.095 43.4279 133.706 46.4047 136.49C51.3031 141.07 57.8111 141.443 62.9631 138.935C63.3807 138.734 63.7911 138.511 64.1895 138.27C68.3535 135.758 71.3695 131.257 71.4343 125.574C71.4871 120.963 70.2839 115.902 65.9255 112.266C55.6999 103.734 68.7111 90.9056 59.0719 86.0792C47.4479 80.2576 48.8519 75.6888 42.8295 66.2248C36.4455 56.192 29.2855 66.7768 36.6999 84.8128Z" fill="#33D35E"/>
<path d="M43.0518 81.4424C43.2014 81.8224 55.5998 113.364 62.9622 138.936C63.3798 138.735 63.7902 138.512 64.1886 138.27C56.7886 112.67 44.4686 81.3232 44.3182 80.9424C44.1806 80.5928 43.7846 80.4216 43.435 80.5592C43.0854 80.6968 42.9134 81.092 43.0518 81.4424Z" fill="#2D314D"/>
<path d="M21.1224 119.576C32.6592 134.038 18.032 133.506 26.4656 144.397C34.1528 154.324 47.9664 147.062 44.6488 168.818C43.9232 173.577 47.0024 177.515 51.6776 179.882C59.3712 183.775 67.5392 181.898 72.9976 176.95C73.4408 176.551 73.8672 176.129 74.272 175.687C78.5096 171.09 80.6144 164.449 78.652 157.41C77.06 151.7 73.7552 145.886 67.068 142.963C51.3784 136.106 62.8288 115.593 49.1944 113.099C32.7528 110.09 32.8432 103.946 22.0064 94.4272C10.52 84.3352 5.48639 99.976 21.1224 119.576Z" fill="#2D314D"/>
<path d="M27.7521 113.131C28.0729 113.546 54.7169 148.028 72.9977 176.949C73.4409 176.55 73.8673 176.128 74.2721 175.686C55.9345 146.744 29.4585 112.474 29.1353 112.058C28.8393 111.676 28.2897 111.607 27.9073 111.903C27.5257 112.199 27.4561 112.75 27.7521 113.131Z" fill="#33D35E"/>
<path d="M98.9367 106.986C103.585 103.803 115.225 111.654 121.311 121.186L115.911 106.059C113.957 104.364 110.536 101.986 105.189 100.091C96.8743 97.144 88.5399 92.528 93.1967 89.3392C97.5599 86.3512 108.086 93.088 114.395 101.811L107.461 82.3856C106.171 81.3936 104.207 80.188 101.401 79.1936C96.1615 77.336 90.9095 74.4272 93.8439 72.4176C96.3903 70.6736 102.268 74.1856 106.281 79.08L104.033 72.784C103.005 70.9552 101.544 68.3408 99.2399 65.9576C93.9015 60.4344 89.8647 54.2208 93.9823 53.3208C98.1031 52.42 104.847 63.2432 105.909 73.0216L107.065 76.2616C106.168 69.1488 108.725 60.5376 112.29 60.2328C115.833 59.9296 113.611 65.5072 110.732 70.2632C108.54 73.8832 107.935 76.756 107.773 78.2424L113.235 93.5448C111.845 82.2776 115.895 68.6896 121.537 68.2072C127.16 67.7264 123.633 76.5768 119.065 84.1224C115.612 89.8248 114.639 94.3608 114.373 96.7336L120.924 115.084C119.762 103.95 123.745 90.4368 129.3 90.3928C133.582 90.3592 132.271 96.4056 127.156 104.942C123.68 110.742 122.568 115.952 122.213 118.694L125.298 127.338C124.781 127.703 124.244 127.894 123.709 127.905L122.481 124.466C120.747 122.788 117.135 119.938 110.928 117.738C102.614 114.79 94.2807 110.174 98.9367 106.986Z" fill="#2D314D"/>
<path d="M58.0423 235.183C53.2743 238.182 55.8503 251.984 62.1775 261.358L50.4439 250.39C49.6655 247.923 48.8431 243.838 49.2295 238.179C49.8303 229.378 48.9079 219.896 44.1311 222.901C39.6551 225.717 41.6519 238.054 47.1487 247.31L32.0807 233.225C31.6831 231.646 31.3575 229.366 31.5607 226.396C31.9399 220.85 31.3575 214.874 28.3479 216.767C25.7351 218.41 26.6215 225.2 29.5175 230.828L24.6335 226.263C23.3639 224.593 21.5463 222.213 20.2751 219.15C17.3287 212.056 13.2327 205.882 10.7695 209.302C8.30473 212.726 15.5551 223.217 24.1055 228.078L26.6183 230.426C20.4487 226.775 11.5311 225.698 9.83353 228.849C8.14713 231.98 14.1479 232.158 19.6567 231.406C23.8503 230.834 26.7263 231.421 28.1543 231.862L40.0247 242.96C30.2383 237.206 16.1599 235.52 13.4743 240.506C10.7983 245.474 20.3207 245.756 29.0607 244.563C35.6663 243.662 40.2143 244.573 42.4975 245.272L56.7311 258.577C46.9759 253.085 32.9935 251.368 30.7447 256.447C29.0111 260.363 35.0807 261.564 44.9463 260.264C51.6511 259.38 56.8727 260.431 59.5311 261.195L66.2359 267.462C66.7767 267.134 67.1663 266.716 67.3879 266.23L64.7199 263.737C63.8703 261.478 62.6903 257.03 63.1391 250.461C63.7415 241.66 62.8191 232.178 58.0423 235.183Z" fill="#2D314D"/>
<path d="M298.669 111.515H44.1934V287.297H298.669V111.515Z" fill="#FFAA01"/>
<path d="M298.661 111.521V122.79L171.432 235.558L44.1943 122.79V111.521L171.423 224.675L298.661 111.521Z" fill="#F88800"/>
<path d="M146.915 202.485L51.5638 287.297H44.1934V282.816L141.434 196.326L146.915 202.485Z" fill="#F88800"/>
<path d="M298.669 283.41V287.297H290.631L195.279 202.485L200.761 196.326L298.669 283.41Z" fill="#F88800"/>
<path d="M44.1863 111.513L171.424 224.675L298.661 111.513H44.1863Z" fill="#FDCC50"/>
<path d="M228.461 95.6824L231.709 102.63L224.844 102.737L222.196 96.4144L228.461 95.6824Z" fill="#F9AF8B"/>
<path d="M229.547 102.196C229.547 102.196 230.957 100.302 232.077 100.383C233.197 100.464 241.834 107.332 244.793 107.898C247.753 108.466 247.478 111.48 246.24 111.48C242.673 111.48 222.992 111.513 222.992 111.513C222.992 111.513 222.397 104.472 223.15 102.373C223.903 100.274 227.233 102.693 229.547 102.196Z" fill="#33D35E"/>
<path d="M234.322 106.988C234.217 107.019 234.101 107.01 233.998 106.951C233.799 106.838 233.73 106.585 233.843 106.386C233.881 106.32 234.785 104.75 236.001 104.138C237.62 103.32 238.881 104.235 238.935 104.274C239.119 104.41 239.157 104.67 239.021 104.854C238.885 105.038 238.625 105.077 238.441 104.94C238.406 104.915 237.528 104.298 236.375 104.878C235.384 105.378 234.572 106.784 234.564 106.798C234.508 106.893 234.42 106.958 234.322 106.988Z" fill="white"/>
<path d="M233.086 105.821C232.982 105.852 232.865 105.842 232.762 105.784C232.563 105.67 232.494 105.418 232.607 105.218C232.645 105.152 233.549 103.582 234.765 102.97C236.385 102.152 237.645 103.066 237.699 103.106C237.883 103.242 237.921 103.502 237.785 103.686C237.649 103.87 237.389 103.909 237.205 103.771C237.17 103.746 236.291 103.13 235.139 103.71C234.144 104.211 233.337 105.614 233.329 105.629C233.273 105.725 233.185 105.791 233.086 105.821Z" fill="white"/>
<path d="M235.997 107.935C235.892 107.966 235.775 107.957 235.673 107.898C235.473 107.785 235.405 107.532 235.517 107.333C235.555 107.266 236.459 105.697 237.676 105.083C239.295 104.265 240.556 105.181 240.609 105.22C240.793 105.356 240.831 105.616 240.695 105.8C240.559 105.983 240.299 106.022 240.115 105.886C240.081 105.861 239.201 105.244 238.049 105.824C237.054 106.326 236.247 107.729 236.239 107.743C236.183 107.84 236.095 107.906 235.997 107.935Z" fill="white"/>
<path d="M230.417 97.9472L227.377 98.9392L225.686 99.04L222.781 99.2104C218.941 96.1744 208.585 87.0368 206.568 81.6496C206.568 81.6496 193.243 112.636 174.82 112.636C173.625 112.636 176.783 97.2168 179.786 94.0104C179.786 94.0104 196.767 62.3632 207.776 65.7224C212.705 67.2264 217.692 74.4032 230.417 97.9472Z" fill="#2D314D"/>
<path d="M227.376 98.9392L225.685 99.04C214.385 90.4832 209.149 83.2368 206.739 78.5952C206.656 78.4336 206.521 78.3816 206.429 78.384C206.351 78.3864 206.294 78.4296 206.257 78.5216C200.846 91.26 194.353 98.9048 189.857 103.078C184.957 107.623 181.374 109.122 181.225 109.185L181.018 108.678L180.811 108.174C180.846 108.159 184.401 106.665 189.167 102.228C193.569 98.132 199.933 90.62 205.253 78.0928C205.457 77.6104 205.881 77.312 206.388 77.292C206.933 77.2704 207.444 77.584 207.707 78.0904C210.138 82.772 215.521 90.168 227.376 98.9392Z" fill="#2D314D"/>
<path d="M219.733 97.1376C220.217 98.0416 221.048 99.3192 221.842 99.9368C221.842 99.9368 228.349 99.636 231.514 98.0464L230.094 94.7384C230.094 94.7384 224.913 96.6288 219.733 97.1376Z" fill="#524E84"/>
<path d="M228.25 52.7168C218.997 56.4856 211.601 58.3808 205.306 59.1608C205.306 59.1608 205.302 59.1584 205.294 59.1584C205.213 59.1608 203.731 59.2808 203.162 59.2584C201.466 59.2 199.17 58.8152 196.845 57.7296C195.189 56.956 192.822 54.9568 190.347 52.5736C187.282 49.616 184.049 46.068 181.814 43.532C180.074 41.5624 178.937 40.204 178.937 40.204C180.48 37.908 183.898 35.8192 186.872 34.7024C186.872 34.7024 193.078 45.0376 202.482 50.1128C202.994 50.3912 203.515 50.6496 204.046 50.8888C206.188 50.5416 211.985 50.2776 214.498 50.0984C221.31 49.6136 226.871 48.4328 226.871 48.4328L228.25 52.7168Z" fill="#33D35E"/>
<path d="M226.637 48.092C226.637 48.092 227.926 44.8376 229.678 43.908C231.431 42.9792 236.421 39.7088 237.486 40.6872C238.55 41.6656 238.33 46.3656 233.858 50.2936C231.009 52.796 228.138 52.6896 228.138 52.6896L226.637 48.092Z" fill="#F9AF8B"/>
<path d="M237.805 43.6768L230.441 50.5568C230.164 50.8168 229.664 50.892 229.322 50.7264L224.809 48.5448C224.669 48.476 224.577 48.3784 224.537 48.2672L224.527 48.2312L224.305 47.4768L225.502 47.0232L237.089 42.6224L237.717 42.3856L237.952 43.1824L237.97 43.2376C237.973 43.244 237.975 43.2496 237.973 43.2576C238 43.3968 237.944 43.5488 237.805 43.6768Z" fill="#2D314D"/>
<path d="M237.09 42.6216L225.503 47.0224L232.056 40.8992C232.332 40.6416 232.833 40.5648 233.172 40.7288L237.09 42.6216Z" fill="#1F2232"/>
<path d="M229.098 49.9616L224.583 47.7784C224.243 47.6136 224.19 47.2712 224.466 47.0136L231.831 40.1336C232.107 39.876 232.607 39.8 232.947 39.9648L237.462 42.148C237.802 42.3128 237.855 42.6552 237.578 42.9128L230.214 49.7928C229.937 50.0504 229.438 50.1256 229.098 49.9616Z" fill="#2D314D"/>
<path d="M229.645 48.7288L226.147 47.0376C225.806 46.8728 225.754 46.5304 226.03 46.2728L231.757 40.9224C232.033 40.6648 232.533 40.5888 232.873 40.7536L236.372 42.4456C236.712 42.6104 236.765 42.9528 236.489 43.2104L230.761 48.5608C230.485 48.8176 229.986 48.8928 229.645 48.7288Z" fill="#2D314D"/>
<path d="M237.978 43.2552L237.974 43.2568C237.977 43.2496 237.976 43.2432 237.971 43.2368L237.978 43.2552Z" fill="#1F2232"/>
<path d="M229.553 42.2616C229.553 42.2616 230.602 42.4256 230.709 43.3272C230.815 44.2296 229.84 43.8704 229.212 43.672C228.585 43.4736 228.019 43.6728 227.933 43.7744C227.659 44.0976 227.706 41.9944 229.553 42.2616Z" fill="#F9AF8B"/>
<path d="M234.242 47.1592C234.242 47.1592 235.889 44.4536 237.15 42.976C237.991 41.9912 238.42 43.4192 237.845 44.4152C237.269 45.4112 236.134 47.4392 234.242 47.1592Z" fill="#F9AF8B"/>
<path d="M157.552 95.932L153.904 72.4144L153.688 71.0208L153.713 69.9704L154.525 36.6544L163.769 33.5304L164.264 33.3616L166.34 32.6584L167.985 32.1032L177.745 33.4464L179.333 33.6648L179.893 33.7416L186.875 34.7024C186.94 56.7888 184.82 61.5608 188.901 79.5272C190.955 86.304 183.417 110.304 157.552 95.932Z" fill="#33D35E"/>
<path d="M162.748 89.9152L162.749 89.9144C170.057 87.8736 175.389 82.8296 178.575 78.9576C182.021 74.7696 183.771 71.004 183.789 70.9664C183.873 70.7832 183.793 70.5664 183.609 70.4824C183.426 70.3984 183.209 70.4784 183.125 70.6608C183.109 70.6976 181.389 74.392 177.998 78.5088C174.881 82.2944 169.671 87.2232 162.553 89.2112C162.358 89.2656 162.245 89.4664 162.299 89.6608C162.353 89.8544 162.554 89.968 162.748 89.9152Z" fill="#33D35E"/>
<path d="M171.056 90.308C177.405 88.5648 182.744 83.2088 182.986 82.9632C183.128 82.8192 183.126 82.588 182.982 82.4464C182.839 82.3048 182.608 82.3072 182.466 82.4504C182.404 82.5136 176.121 88.8136 169.328 89.944C169.125 89.976 168.994 90.1656 169.028 90.364C169.061 90.5632 169.248 90.6976 169.448 90.664C169.989 90.5736 170.526 90.4536 171.056 90.308Z" fill="#33D35E"/>
<path d="M166.562 43.3296C172.908 41.5704 178.232 36.2008 178.474 35.9544C178.615 35.8104 178.613 35.5792 178.469 35.4376C178.325 35.2968 178.094 35.2992 177.953 35.4424C177.891 35.5056 171.624 41.8216 164.833 42.9688C164.632 43.0008 164.5 43.1912 164.534 43.3896C164.568 43.5888 164.756 43.7224 164.955 43.6888C165.496 43.5976 166.032 43.476 166.562 43.3296Z" fill="#33D35E"/>
<path d="M222.244 156.799L224.799 162.487L219.559 164.741L216.511 158.866L222.244 156.799Z" fill="#F9AF8B"/>
<path d="M223.655 162.366C223.655 162.366 224.191 160.067 225.251 159.694C226.31 159.322 236.971 162.168 239.911 161.506C242.851 160.844 243.194 163.07 243.141 164.308C243.088 165.546 221.331 173.35 221.331 173.35C221.331 173.35 218.009 167.31 217.861 165.083C217.713 162.858 221.732 163.746 223.655 162.366Z" fill="#2D314D"/>
<path d="M229.946 164.853C229.863 164.923 229.751 164.961 229.634 164.949C229.406 164.924 229.242 164.72 229.266 164.493C229.274 164.417 229.475 162.617 230.346 161.569C231.503 160.173 233.025 160.508 233.09 160.522C233.313 160.574 233.451 160.797 233.399 161.02C233.348 161.243 233.125 161.382 232.902 161.33C232.86 161.321 231.808 161.106 230.983 162.098C230.274 162.952 230.091 164.565 230.09 164.582C230.079 164.691 230.024 164.786 229.946 164.853Z" fill="white"/>
<path d="M228.347 164.276C228.264 164.346 228.153 164.384 228.035 164.371C227.808 164.346 227.643 164.142 227.667 163.914C227.675 163.838 227.877 162.038 228.747 160.99C229.906 159.594 231.427 159.929 231.491 159.944C231.715 159.995 231.853 160.218 231.801 160.442C231.75 160.665 231.527 160.804 231.303 160.751C231.262 160.742 230.21 160.528 229.385 161.52C228.673 162.378 228.493 163.986 228.491 164.002C228.48 164.114 228.426 164.21 228.347 164.276Z" fill="white"/>
<path d="M231.86 165.053C231.777 165.123 231.666 165.161 231.548 165.149C231.32 165.124 231.155 164.92 231.18 164.693C231.188 164.617 231.39 162.817 232.26 161.769C233.418 160.372 234.939 160.708 235.004 160.722C235.227 160.774 235.366 160.997 235.314 161.22C235.263 161.442 235.039 161.582 234.816 161.53C234.775 161.521 233.722 161.306 232.898 162.298C232.186 163.156 232.006 164.765 232.004 164.781C231.993 164.89 231.939 164.986 231.86 165.053Z" fill="white"/>
<path d="M223.563 157.902C223.02 158.518 221.342 159.454 219.515 160.273C219.184 160.423 218.843 160.567 218.507 160.707C217.914 160.951 217.325 161.174 216.771 161.364C216.771 161.364 204.341 138.453 199.57 121.838C199.57 121.838 157.495 116.642 156.038 101.906C155.987 101.414 155.986 100.91 156.031 100.393C156.156 98.988 156.642 97.5048 157.551 95.9344C158.511 94.2808 172.911 95.8928 180.692 98.076C180.692 98.076 201.785 106.293 209.582 114.758C213.53 119.041 223.563 157.902 223.563 157.902Z" fill="#2D314D"/>
<path d="M219.515 160.273C219.184 160.423 218.843 160.567 218.507 160.707C212.221 150.302 203.492 125.995 201.547 120.161C201.415 119.766 201.078 119.471 200.663 119.393C180.221 115.55 168.443 110.188 162.161 106.366C159.393 104.682 157.417 103.147 156.039 101.906C155.988 101.413 155.987 100.909 156.032 100.392C157.37 101.698 159.529 103.5 162.853 105.509C169.055 109.258 180.683 114.526 200.867 118.322C201.67 118.472 202.327 119.046 202.584 119.816C204.528 125.654 213.292 150.071 219.515 160.273Z" fill="#2D314D"/>
<path d="M214.526 158.962L216.511 162.137C216.511 162.137 221.454 161.282 224.799 157.902L223.563 155.066C223.563 155.066 217.55 158.03 214.526 158.962Z" fill="#524E84"/>
<path d="M147.56 104.63C147.56 104.63 150.423 108.513 150.187 110.522C149.951 112.532 147.358 116.317 145.285 116.5C143.213 116.682 147.667 111.635 146.616 111.798C145.344 111.995 136.756 119.042 134.944 119.042C133.131 119.042 137.076 115.766 138.613 114.939C138.613 114.939 134.549 116.756 133.604 117.702C132.658 118.647 131.972 116.619 136.699 113.743C136.699 113.743 132.362 116.205 132.067 116.244C131.102 116.373 133.854 113.146 136.224 111.979C136.224 111.979 132.748 113.672 132.394 113.679C131.905 113.69 132.954 112.552 135.534 111.122C137.855 109.836 141.658 103.93 141.658 103.93L147.56 104.63Z" fill="#F9AF8B"/>
<path d="M154.525 36.6544C154.525 36.6544 144.887 55.1656 142.693 74.5272L141.659 103.928C141.659 103.928 142.65 106.023 147.561 104.63L152.311 75.2336L155.951 61.7832C155.951 61.7832 157.605 45.2304 154.525 36.6544Z" fill="#33D35E"/>
<path d="M184.125 16.6392C183.101 22.4304 177.577 26.296 171.785 25.272C165.994 24.248 162.129 18.7232 163.153 12.932C164.177 7.14078 169.701 3.27518 175.493 4.29918C181.284 5.32318 185.149 10.848 184.125 16.6392Z" fill="#2D314D"/>
<path d="M184.286 14.7288C184.286 14.7288 187.401 14.4344 187.519 11.4824C187.619 8.97038 184.457 10.0512 185.049 8.17918C185.641 6.30638 186.512 4.66318 184.117 3.74558C182.021 2.94318 181.722 4.42319 179.255 1.76239C176.34 -1.38081 172.712 4.06239 169.677 3.70879C165.2 3.18719 164.198 5.59359 163.408 7.52079C162.617 9.44798 164.075 11.1552 164.075 11.1552L184.286 14.7288Z" fill="#2D314D"/>
<path d="M181.845 19.2624C181.845 19.2624 183.897 17.3408 184.809 19.3912C185.72 21.4408 183.017 26.5416 180.227 24.6864L181.845 19.2624Z" fill="#FC8664"/>
<path d="M181.183 23.1312C181.295 23.1512 181.41 23.0952 181.462 22.988C182.226 21.4008 184.076 21.0296 184.094 21.0264C184.235 20.9992 184.327 20.864 184.301 20.7232C184.274 20.5824 184.138 20.4904 183.998 20.5168C183.912 20.5328 181.874 20.936 180.995 22.764C180.933 22.8928 180.987 23.048 181.117 23.1104C181.137 23.12 181.16 23.1272 181.183 23.1312Z" fill="#FD664D"/>
<path d="M183.077 22.5992C183.125 22.608 183.175 22.6032 183.223 22.5832C183.355 22.528 183.417 22.376 183.362 22.244C183.353 22.2216 183.129 21.7008 182.54 21.3008C182.422 21.22 182.26 21.2512 182.179 21.3704C182.099 21.4888 182.129 21.6504 182.249 21.7312C182.705 22.04 182.881 22.4408 182.883 22.4448C182.919 22.528 182.994 22.584 183.077 22.5992Z" fill="#FD664D"/>
<path d="M168.007 27.2576L167.056 32.6368C167.056 32.6368 168.849 35.3984 170.985 35.9688C173.118 36.5408 174.892 34.1992 174.892 34.1992L175.806 29.0264L168.007 27.2576Z" fill="#F9AF8B"/>
<path d="M168.007 27.2576L167.585 29.644C168.756 31.5168 171.269 32.3776 175.195 32.4888L175.807 29.0264L168.007 27.2576Z" fill="#FC8664"/>
<path d="M164.778 12.44C164.509 14.548 164.245 17.1976 164.275 19.3584C164.282 19.8976 164.309 20.408 164.356 20.8696C164.787 25.0336 166.417 32.3312 174.845 30.9016C178.566 30.2712 180.878 26.6576 182.303 22.82C183.269 20.2136 183.825 17.5048 184.133 15.5536C184.446 13.5616 183.683 11.5552 182.129 10.2712C177.918 6.79117 172.806 6.90797 169.335 7.58237C166.925 8.04957 165.089 10.0096 164.778 12.44Z" fill="#F9AF8B"/>
<path d="M177.736 19.26C177.634 19.8344 177.848 20.352 178.213 20.4168C178.577 20.4816 178.956 20.068 179.057 19.4944C179.159 18.92 178.945 18.4024 178.58 18.3376C178.215 18.2728 177.837 18.6856 177.736 19.26Z" fill="#2D314D"/>
<path d="M169.995 17.892C169.893 18.4664 170.107 18.984 170.473 19.0488C170.837 19.1136 171.216 18.7 171.317 18.1256C171.419 17.5512 171.205 17.0336 170.841 16.9688C170.475 16.9048 170.097 17.3176 169.995 17.892Z" fill="#2D314D"/>
<path d="M181.111 16.564C181.111 16.564 178.552 14.9904 176.271 15.5312L176.274 16.5464C176.274 16.5464 178.659 16.44 180.758 17.6744C180.978 17.2456 181.208 17.0616 181.111 16.564Z" fill="#2D314D"/>
<path d="M168.52 14.3384C168.52 14.3384 171.464 13.7376 173.421 15.0272L173.07 15.9792C173.07 15.9792 170.866 15.0616 168.472 15.5024C168.411 15.024 168.259 14.7728 168.52 14.3384Z" fill="#2D314D"/>
<path d="M173.35 22.704C172.919 22.628 172.522 22.3848 172.46 22.3456C172.339 22.2688 172.303 22.1088 172.379 21.988C172.455 21.8664 172.616 21.8304 172.737 21.9064C172.951 22.0408 173.479 22.2856 173.745 22.1848C173.796 22.1648 173.869 22.1216 173.913 21.9688C174.163 21.0928 174.447 18.0584 174.45 18.028C174.463 17.8856 174.59 17.7808 174.733 17.7936C174.876 17.8064 174.981 17.9328 174.967 18.076C174.955 18.2032 174.675 21.1896 174.412 22.1112C174.313 22.4584 174.095 22.6064 173.93 22.6696C173.749 22.7384 173.546 22.7384 173.35 22.704Z" fill="#FC8664"/>
<path d="M176.289 24.836C175.894 25.8496 174.858 27.6608 172.52 27.2472C170.176 26.8328 169.831 24.9496 169.82 23.6928L176.289 24.836Z" fill="white"/>
<path d="M172.316 28.5864C171.654 28.4696 171.153 28.0352 171.132 28.0168C171.024 27.9224 171.014 27.7584 171.108 27.6504C171.202 27.5424 171.366 27.532 171.474 27.6264C171.478 27.6296 171.891 27.984 172.406 28.0752C172.879 28.1584 173.38 27.9672 173.385 27.9656C173.518 27.9128 173.669 27.9776 173.722 28.1112C173.774 28.244 173.71 28.3952 173.576 28.448C173.55 28.4584 172.94 28.6968 172.316 28.5864Z" fill="#FC8664"/>
<path d="M181.806 21.0136C182.185 19.9936 182.617 18.6672 182.601 17.9456C182.571 16.668 181.677 15.7616 182.228 14.632C182.78 13.4976 181.748 11.9968 180.858 11.6208C179.971 11.2424 177.726 11.3208 175.775 9.93358C173.913 8.60798 170.257 8.67438 169.45 9.87678C168.474 11.3336 169.396 11.6504 167.193 13.0224C166.315 13.5696 166.901 15.4968 166.826 16.6696C166.79 17.2088 166.753 17.4688 166.632 18.0336L166.573 18.3208L164.297 17.9184C164.362 16.0904 164.566 14.0984 164.778 12.4392C165.089 10.0088 166.926 8.05037 169.335 7.58237C172.807 6.90797 177.917 6.78957 182.129 10.2712C183.682 11.556 184.446 13.5608 184.133 15.5528C183.889 17.1 183.489 19.1248 182.85 21.1984L181.806 21.0136Z" fill="#2D314D"/>
<path d="M165.131 19.08C165.243 18.4864 165.306 17.8832 165.306 17.2784C165.305 16.452 165.201 15.6832 164.441 15.204C163.828 14.8184 163.125 14.6888 162.491 15.344C160.932 16.9568 161.301 22.8992 164.558 22.1136L165.131 19.08Z" fill="#F9AF8B"/>
<path d="M164.266 20.3504C164.161 20.3088 164.091 20.2016 164.102 20.0832C164.275 18.3304 162.889 17.0512 162.874 17.0384C162.769 16.9424 162.76 16.7784 162.856 16.672C162.952 16.5656 163.116 16.5576 163.222 16.6528C163.287 16.7112 164.818 18.1152 164.619 20.1336C164.605 20.276 164.478 20.38 164.335 20.3664C164.311 20.364 164.288 20.3584 164.266 20.3504Z" fill="#FC8664"/>
<path d="M162.925 18.9096C162.88 18.892 162.839 18.8616 162.809 18.82C162.725 18.704 162.751 18.5416 162.866 18.4576C162.886 18.444 163.348 18.1144 164.059 18.08C164.202 18.0728 164.324 18.1832 164.331 18.3264C164.338 18.4696 164.228 18.5912 164.085 18.5984C163.534 18.6256 163.174 18.8752 163.171 18.8776C163.097 18.932 163.004 18.9408 162.925 18.9096Z" fill="#FC8664"/>
<path d="M285.334 142.046C285.334 142.046 281.829 148.694 277.702 153.962C276.484 155.515 275.214 156.948 273.961 158.054C271.932 159.85 269.953 160.788 268.342 159.992C262.364 157.04 249.038 133.545 249.038 133.545L252.32 129.731C252.32 129.731 258.251 136.441 262.588 140.457C266.588 144.16 269.664 146.928 269.664 146.928C270.218 146.102 270.808 145.198 271.421 144.24C272.073 143.224 272.75 142.148 273.438 141.042C278.433 133.008 284.447 124.221 284.447 124.221L285.334 142.046Z" fill="#F9AF8B"/>
<path d="M253.19 132.038C253.19 132.038 254.543 129.818 254.02 127.829C253.497 125.84 252.989 121.344 250.816 121.466C250.022 121.51 251.181 123.389 250.649 125.128C250.649 125.128 248.323 124.007 246.765 122.857C245.395 121.845 242.558 120.201 241.239 119.449C240.877 119.243 240.46 119.638 240.669 119.993C241.008 120.566 241.835 121.422 243.749 122.619C243.749 122.619 238.996 119.958 238.2 120.542C237.404 121.127 243.408 124.347 243.408 124.347C243.408 124.347 238.559 122.388 238.163 123.105C237.921 123.542 242.676 126.335 242.676 126.335C242.676 126.335 237.953 124.877 238.83 125.983C239.085 126.306 248.057 130.366 249.927 135.08C249.925 135.08 252.54 133.648 253.19 132.038Z" fill="#F9AF8B"/>
<path d="M277.702 153.962C276.485 155.515 275.214 156.948 273.961 158.054L271.421 144.239C272.073 143.223 272.75 142.147 273.439 141.041L277.702 153.962Z" fill="#FC8664"/>
<path d="M284.629 123.601L271.997 141.82L276.017 158.054L285.929 142.242C285.929 142.242 287.785 131.662 284.629 123.601Z" fill="#33D35E"/>
<path d="M291.112 279.498V285.25L296.481 285.166L296.832 279.07L291.112 279.498Z" fill="#F9AF8B"/>
<path d="M304.744 195.459C304.707 196.142 304.521 199.425 304.24 204.002C303.484 216.575 302.068 238.918 301.237 243.938C300.385 249.087 300.77 265.976 301.045 274.816C301.089 276.319 300.503 277.685 299.525 278.687C299.161 279.058 298.739 279.378 298.279 279.639C297.478 280.082 296.559 280.337 295.581 280.337H291.488C288.404 280.337 285.927 277.838 286.024 274.817C286.253 267.342 286.535 253.709 286.002 243.176C285.49 233.152 286.231 215.414 286.802 204.358H286.809C287.039 199.942 287.24 196.601 287.321 195.235L304.744 195.459Z" fill="#2E3052"/>
<path d="M287.322 195.234L304.745 195.459C304.708 196.142 304.522 199.425 304.241 204.002C298.325 204.714 292.163 205.011 286.81 204.358C287.039 199.941 287.24 196.6 287.322 195.234Z" fill="#001030"/>
<path d="M299.457 259.05C299.609 264.703 299.768 270.548 299.665 275.26C299.635 276.582 299.589 277.714 299.526 278.684C299.163 279.059 298.741 279.381 298.276 279.637C298.375 278.511 298.453 277.072 298.494 275.235C298.596 270.55 298.437 264.72 298.285 259.08C298.098 252.188 297.922 245.677 298.305 242.906C299.141 236.841 301.011 203.962 301.501 195.186L302.673 195.237C302.183 204.008 300.308 236.954 299.465 243.058C299.097 245.738 299.272 252.206 299.457 259.05Z" fill="#001030"/>
<path d="M292.488 285.035C292.488 285.035 291.376 283.503 290.465 283.548C289.553 283.593 282.412 288.909 279.997 289.309C277.582 289.709 278.009 291.454 278.431 292.349C278.852 293.245 297.621 292.428 297.621 292.428C297.621 292.428 298.258 286.974 297.683 285.289C297.109 283.603 294.36 285.471 292.488 285.035Z" fill="#2D314D"/>
<path d="M288.523 288.766C288.608 288.793 288.703 288.787 288.787 288.742C288.95 288.655 289.011 288.455 288.923 288.295C288.893 288.242 288.187 286.976 287.209 286.467C285.909 285.788 284.867 286.494 284.824 286.525C284.672 286.63 284.637 286.836 284.744 286.985C284.851 287.134 285.061 287.169 285.213 287.063C285.241 287.044 285.967 286.568 286.893 287.05C287.69 287.466 288.325 288.598 288.331 288.61C288.373 288.688 288.443 288.742 288.523 288.766Z" fill="white"/>
<path d="M289.548 287.859C289.632 287.886 289.727 287.88 289.812 287.835C289.975 287.749 290.037 287.548 289.948 287.388C289.918 287.334 289.212 286.069 288.234 285.559C286.933 284.88 285.892 285.586 285.848 285.617C285.696 285.722 285.661 285.928 285.768 286.077C285.875 286.226 286.086 286.261 286.238 286.155C286.266 286.136 286.991 285.66 287.918 286.142C288.718 286.559 289.348 287.69 289.354 287.702C289.398 287.78 289.468 287.834 289.548 287.859Z" fill="white"/>
<path d="M287.145 289.492C287.23 289.519 287.325 289.513 287.409 289.469C287.573 289.382 287.634 289.182 287.545 289.022C287.515 288.968 286.809 287.702 285.831 287.193C284.53 286.513 283.489 287.22 283.445 287.25C283.293 287.356 283.257 287.562 283.365 287.71C283.472 287.859 283.683 287.894 283.834 287.789C283.863 287.77 284.589 287.294 285.514 287.776C286.314 288.193 286.945 289.324 286.951 289.336C286.995 289.412 287.066 289.466 287.145 289.492Z" fill="white"/>
<path d="M317.263 279.498L317.841 285.241L322.633 285.166L322.983 279.07L317.263 279.498Z" fill="#F9AF8B"/>
<path d="M327.127 243.174C326.593 253.706 326.875 267.341 327.105 274.815C327.193 277.837 324.725 280.335 321.641 280.335H317.548C316.643 280.335 315.783 280.118 315.034 279.739C314.582 279.506 314.159 279.216 313.796 278.867C312.698 277.858 312.031 276.412 312.083 274.814C312.357 265.974 312.743 249.086 311.89 243.936C311.045 238.83 309.592 215.804 308.843 203.361C308.598 199.206 308.428 196.235 308.383 195.502L325.836 195.726C325.888 196.613 325.969 197.978 326.065 199.707C326.63 209.66 327.72 231.574 327.127 243.174Z" fill="#2E3052"/>
<path d="M326.067 199.709C322.783 200.588 316.266 202.2 308.845 203.362C308.6 199.207 308.43 196.237 308.385 195.503L325.838 195.728C325.889 196.614 325.97 197.98 326.067 199.709Z" fill="#001030"/>
<path d="M314.812 275.235C314.853 277.128 314.935 278.598 315.037 279.737C314.582 279.507 314.164 279.216 313.794 278.872C313.724 277.862 313.671 276.669 313.64 275.261C313.538 270.549 313.697 264.704 313.849 259.05C314.034 252.206 314.208 245.739 313.839 243.06C312.998 236.953 311.122 203.99 310.634 195.23L311.804 195.178C312.294 203.944 314.164 236.839 315.002 242.906C315.385 245.678 315.206 252.189 315.021 259.081C314.869 264.72 314.71 270.55 314.812 275.235Z" fill="#001030"/>
<path d="M319.709 284.358C319.709 284.358 322.153 283.719 322.829 283.733C323.505 283.746 328.03 288.704 329.553 288.996C332.317 289.526 332.321 293.754 330.639 293.963C325.775 294.57 317.454 292.558 317.454 292.558C317.454 292.558 316.688 287.133 317.021 285.43C317.353 283.728 318.35 284.858 319.709 284.358Z" fill="#2E3052"/>
<path d="M323.737 288.989C323.649 289.007 323.556 288.993 323.476 288.941C323.321 288.839 323.281 288.634 323.384 288.482C323.418 288.432 324.245 287.238 325.268 286.823C326.629 286.269 327.597 287.07 327.637 287.104C327.778 287.223 327.793 287.431 327.672 287.57C327.55 287.707 327.337 287.723 327.197 287.603C327.17 287.582 326.495 287.04 325.525 287.433C324.692 287.771 323.95 288.84 323.943 288.851C323.893 288.924 323.818 288.971 323.737 288.989Z" fill="white"/>
<path d="M322.805 287.99C322.719 288.008 322.625 287.994 322.545 287.942C322.39 287.84 322.349 287.635 322.453 287.483C322.487 287.433 323.313 286.239 324.337 285.823C325.698 285.269 326.665 286.069 326.706 286.104C326.847 286.223 326.862 286.431 326.741 286.57C326.619 286.708 326.406 286.723 326.265 286.603C326.239 286.582 325.563 286.04 324.594 286.433C323.757 286.773 323.019 287.84 323.012 287.851C322.962 287.924 322.887 287.972 322.805 287.99Z" fill="white"/>
<path d="M325.037 289.839C324.951 289.858 324.857 289.843 324.777 289.791C324.622 289.69 324.58 289.485 324.684 289.333C324.719 289.282 325.545 288.089 326.569 287.673C327.93 287.118 328.897 287.919 328.938 287.954C329.079 288.073 329.094 288.282 328.973 288.419C328.851 288.557 328.638 288.573 328.497 288.453C328.471 288.431 327.795 287.89 326.827 288.283C325.99 288.623 325.252 289.69 325.245 289.702C325.194 289.774 325.12 289.822 325.037 289.839Z" fill="white"/>
<path d="M329.798 197.223C314.035 201.11 298.29 201.121 282.562 197.223C282.48 191.466 282.397 168.445 282.85 149.55C282.858 149.179 282.868 148.81 282.877 148.441C282.881 148.258 282.887 148.076 282.892 147.896V147.866C282.898 147.63 282.903 147.398 282.911 147.166C283.247 134.705 283.835 124.529 284.84 123.17C284.841 123.168 284.841 123.168 284.841 123.168C287.189 120.008 298.984 114.962 302.247 112.71C302.519 113.138 304.125 115.522 306.229 115.698C308.538 115.898 310.591 113.235 310.591 113.235V112.731C313.869 114.982 324.555 119.653 326.899 122.803C329.462 126.256 329.906 187.414 329.798 197.223Z" fill="#33D35E"/>
<path d="M287.656 140.679C286.302 142.472 284.325 146.534 283.439 148.41C283.318 148.668 283.217 148.885 283.141 149.049C283.041 149.264 282.985 149.389 282.981 149.398C282.952 149.462 282.907 149.514 282.852 149.55C282.86 149.178 282.869 148.809 282.879 148.44C282.882 148.258 282.889 148.075 282.893 147.895V147.866C283.075 147.483 283.29 147.034 283.53 146.541C284.538 144.48 285.978 141.701 287.069 140.254C287.188 140.095 287.417 140.062 287.58 140.179C287.741 140.298 287.773 140.522 287.656 140.679Z" fill="#2D314D"/>
<path d="M317.839 126.773C317.835 126.773 317.831 126.773 317.827 126.773C311.563 126.578 306.73 124.024 303.779 121.917C300.582 119.634 298.887 117.426 298.817 117.334C298.696 117.175 298.729 116.951 298.891 116.834C299.053 116.715 299.281 116.748 299.402 116.906C299.469 116.994 306.228 125.695 317.85 126.058C318.052 126.064 318.21 126.229 318.204 126.426C318.197 126.62 318.035 126.773 317.839 126.773Z" fill="#2D314D"/>
<path d="M296.737 185.21C296.546 185.21 296.386 185.066 296.373 184.876C296.36 184.678 296.513 184.509 296.714 184.495C306.991 183.835 313.121 178.733 316.453 174.569C320.077 170.042 321.279 165.608 321.291 165.564C321.342 165.373 321.541 165.258 321.736 165.308C321.931 165.358 322.049 165.553 321.998 165.744C321.949 165.93 320.755 170.345 317.047 174.988C313.621 179.277 307.321 184.532 296.762 185.21C296.753 185.21 296.745 185.21 296.737 185.21Z" fill="#2D314D"/>
<path d="M302.255 178.818C302.094 178.818 301.947 178.713 301.903 178.553C301.85 178.362 301.965 178.166 302.161 178.114C311.091 175.749 312.814 168.442 312.831 168.369C312.873 168.176 313.069 168.053 313.265 168.095C313.462 168.137 313.587 168.327 313.545 168.52C313.527 168.6 313.094 170.506 311.496 172.738C310.025 174.79 307.244 177.51 302.351 178.806C302.319 178.813 302.286 178.818 302.255 178.818Z" fill="#2D314D"/>
<path d="M341.365 196.59C341.141 199.722 339.222 202.047 339.213 204.108C339.203 206.171 336.773 204.822 337.898 200.749C339.021 196.678 337.355 192.738 336.465 192.774C335.574 192.812 336.748 197.363 335.812 198.875C334.876 200.386 334.169 197.212 333.349 195.249C332.497 193.21 332.973 188.982 333.745 186.005C334.517 183.029 330.729 164.145 331.225 158.824L329.858 151.921L329.059 147.894L328.909 143.69L336.211 140.856C336.486 142.206 336.768 143.604 337.047 145.011C337.17 145.631 337.291 146.254 337.41 146.874C338.387 151.907 339.264 156.862 339.621 160.041C340.608 168.833 338.989 186.766 338.989 186.766C338.989 186.766 341.577 193.654 341.365 196.59Z" fill="#F9AF8B"/>
<path d="M337.409 146.874C335.763 148.717 333.131 151.063 329.857 151.921L329.058 147.894L328.909 143.69L336.21 140.856C336.486 142.206 336.767 143.604 337.046 145.011C337.17 145.631 337.29 146.254 337.409 146.874Z" fill="#FC8664"/>
<path d="M339.438 142.888C339.438 142.888 338.567 143.9 337.046 145.011C335.206 146.363 332.412 147.866 329.067 147.894C328.664 136.245 328.069 126.401 327.203 123.511C328.744 125.374 336.142 134.548 339.438 142.888Z" fill="#33D35E"/>
<path d="M324.056 139.51C325.409 141.302 327.385 145.363 328.273 147.241C328.393 147.498 328.493 147.714 328.57 147.879C328.671 148.094 328.727 148.219 328.731 148.228C328.791 148.362 328.925 148.441 329.065 148.441H329.073C329.069 148.258 329.064 148.076 329.058 147.895C329.166 147.895 329.273 147.895 329.377 147.891C329.328 147.786 329.209 147.528 329.04 147.165C328.826 146.709 328.53 146.083 328.181 145.371C327.174 143.309 325.733 140.53 324.644 139.085C324.523 138.926 324.295 138.891 324.133 139.01C323.97 139.126 323.937 139.352 324.056 139.51Z" fill="#2D314D"/>
<path d="M317.456 93.9992C317.456 100.31 313.49 104.658 307.049 104.658C300.609 104.658 296.12 99.9832 296.12 93.6728C296.12 87.3624 299.933 82.5816 306.374 82.5816C314.099 82.5816 317.456 87.6896 317.456 93.9992Z" fill="#2E3052"/>
<path d="M316.009 96.7168C316.009 96.7168 317.798 94.3792 319.129 96.312C320.459 98.2448 318.578 103.954 315.321 102.561L316.009 96.7168Z" fill="#FC8664"/>
<path d="M316.032 100.796C316.152 100.796 316.262 100.718 316.296 100.599C316.801 98.8368 318.665 98.1224 318.684 98.1152C318.825 98.0624 318.897 97.9064 318.843 97.7672C318.789 97.628 318.63 97.5576 318.488 97.6104C318.401 97.6424 316.348 98.4232 315.766 100.454C315.725 100.597 315.81 100.746 315.956 100.786C315.982 100.793 316.007 100.796 316.032 100.796Z" fill="#FD664D"/>
<path d="M317.912 99.908C317.964 99.908 318.015 99.8944 318.061 99.8648C318.189 99.784 318.226 99.6176 318.144 99.492C318.13 99.4712 317.8 98.9784 317.11 98.676C316.972 98.6152 316.808 98.676 316.747 98.812C316.684 98.948 316.747 99.1072 316.885 99.168C317.419 99.4016 317.678 99.78 317.68 99.784C317.734 99.8648 317.822 99.908 317.912 99.908Z" fill="#FD664D"/>
<path d="M297.567 96.7168C297.567 96.7168 295.777 94.3792 294.447 96.312C293.117 98.2448 294.997 103.954 298.255 102.561L297.567 96.7168Z" fill="#FC8664"/>
<path d="M297.544 100.796C297.424 100.796 297.313 100.718 297.279 100.599C296.774 98.8368 294.91 98.1224 294.892 98.1152C294.75 98.0624 294.678 97.9064 294.733 97.7672C294.786 97.628 294.945 97.5576 295.087 97.6104C295.174 97.6424 297.228 98.4232 297.809 100.454C297.85 100.597 297.765 100.746 297.619 100.786C297.593 100.793 297.569 100.796 297.544 100.796Z" fill="#FD664D"/>
<path d="M295.662 99.908C295.611 99.908 295.56 99.8944 295.513 99.8648C295.385 99.784 295.349 99.6176 295.431 99.492C295.445 99.4712 295.774 98.9784 296.465 98.676C296.603 98.6152 296.766 98.676 296.829 98.812C296.891 98.948 296.829 99.1072 296.689 99.168C296.156 99.4016 295.897 99.78 295.894 99.784C295.841 99.8648 295.753 99.908 295.662 99.908Z" fill="#FD664D"/>
<path d="M302.383 107.403V113.081C302.383 113.081 304.111 115.972 306.449 116.169C308.783 116.368 310.858 113.679 310.858 113.679V107.802L302.383 107.403Z" fill="#F9AF8B"/>
<path d="M302.383 107.403V109.922C303.951 111.627 306.737 112.054 310.858 111.457V107.802L302.383 107.403Z" fill="#FC8664"/>
<path d="M316.965 96.536C316.878 97.7392 316.733 99.0088 316.495 100.274C315.718 104.459 313.968 108.574 310.197 109.895C301.658 112.882 298.606 105.707 297.386 101.525C297.253 101.062 297.132 100.544 297.025 99.992C296.831 98.9952 296.681 97.8832 296.563 96.7632C296.424 95.4048 296.331 94.0304 296.273 92.8216C296.148 90.276 297.704 87.94 300.135 87.0232C303.636 85.7048 308.955 84.6624 313.996 87.4624C315.858 88.4936 317.026 90.4096 317.067 92.5048C317.089 93.6448 317.073 95.036 316.965 96.536Z" fill="#F9AF8B"/>
<path d="M315.907 96.764C315.62 97.2784 314.02 102.114 313.574 102.793C312.565 100.618 307.694 102.198 307.694 102.198C307.388 102.295 307.071 102.346 306.751 102.346C306.442 102.346 306.133 102.298 305.835 102.206L305.81 102.198C305.81 102.198 300.882 100.685 299.911 102.965C299.46 102.29 298.07 97.544 297.81 96.7648H296.563C296.681 97.8848 296.831 98.9968 297.025 99.9936C297.132 100.546 297.253 101.062 297.386 101.526C298.606 105.709 301.658 112.885 310.197 109.897C313.968 108.576 315.718 104.46 316.495 100.275C316.733 99.0104 316.878 97.74 316.965 96.5376L315.907 96.764ZM311.316 105.609V105.611C311.313 105.611 311.313 105.611 311.313 105.611C310.936 105.965 310.55 106.262 310.168 106.463C308.005 107.61 307.769 107.436 306.916 107.474C306.046 107.514 304.849 107.262 303.631 106.598C303.253 106.389 302.688 105.986 302.069 105.432C302.069 105.432 301.192 102.493 306.765 103.23C312.352 102.289 311.409 105.035 311.316 105.609Z" fill="#2E3052"/>
<path d="M310.449 97.4576C310.449 98.064 310.768 98.5552 311.161 98.5552C311.555 98.5552 311.873 98.064 311.873 97.4576C311.873 96.8512 311.555 96.36 311.161 96.36C310.769 96.36 310.449 96.8512 310.449 97.4576Z" fill="#2E3052"/>
<path d="M302.056 97.4352C302.056 98.0416 302.374 98.5328 302.768 98.5328C303.161 98.5328 303.48 98.0416 303.48 97.4352C303.48 96.8288 303.161 96.3376 302.768 96.3376C302.375 96.3376 302.056 96.8288 302.056 97.4352Z" fill="#2E3052"/>
<path d="M313.986 94.3584C313.986 94.3584 311.258 93.3024 309.157 94.1912L309.368 95.336C309.368 95.336 312.451 95.0808 314.005 95.6976C314.143 95.2568 314.163 94.8112 313.986 94.3584Z" fill="#2E3052"/>
<path d="M300.417 94.3584C300.417 94.3584 303.145 93.3024 305.246 94.1912L305.036 95.336C305.036 95.336 301.953 95.0808 300.399 95.6976C300.261 95.2568 300.241 94.8112 300.417 94.3584Z" fill="#2E3052"/>
<path d="M306.692 101.705C306.227 101.705 305.767 101.528 305.695 101.499C305.554 101.442 305.487 101.286 305.545 101.147C305.601 101.01 305.763 100.943 305.903 100.999C306.152 101.098 306.749 101.253 307.007 101.102C307.057 101.072 307.125 101.014 307.142 100.85C307.241 99.9088 306.978 96.7512 306.976 96.72C306.963 96.5712 307.076 96.4416 307.228 96.4288C307.38 96.416 307.513 96.5272 307.525 96.6752C307.536 96.8072 307.795 99.9144 307.69 100.906C307.651 101.278 307.451 101.47 307.29 101.564C307.114 101.668 306.903 101.705 306.692 101.705Z" fill="#FC8664"/>
<path d="M310.45 103.682C310.225 104.79 309.477 106.831 306.957 106.831C304.432 106.831 303.724 104.966 303.481 103.682H310.45Z" fill="white"/>
<path d="M296.564 96.7648H297.812C297.674 95.5376 297.477 93.376 298.505 93.0664C301.757 92.088 297.544 89.8376 299.011 88.7152C300.478 87.5904 304.131 88.072 306.671 87.992C309.226 87.9112 313.334 87.9464 314.331 88.1728C315.33 88.3968 314.782 90.0224 314.417 91.2816C314.048 92.5384 315.641 93.9304 315.909 95.2336C315.985 95.6072 315.97 96.1632 315.908 96.7648H316.948C317.071 95.1792 317.09 93.7032 317.067 92.5064C317.026 90.4104 315.858 88.4952 313.998 87.4624C308.957 84.6624 303.638 85.7064 300.136 87.0256C297.705 87.94 296.15 90.2784 296.274 92.8216C296.332 94.0304 296.423 95.4056 296.564 96.7648Z" fill="#2E3052"/>
<path d="M113.624 234.93H50.292C51.3384 228.577 56.3784 223.961 62.252 223.979L81.9576 224.037L101.663 223.979C107.538 223.962 112.577 228.577 113.624 234.93Z" fill="white"/>
<path d="M58.7249 234.021H55.2737V293.069H58.7249V234.021Z" fill="white"/>
<path d="M108.643 234.021H105.192V293.069H108.643V234.021Z" fill="white"/>
<path d="M105.191 250.566H58.7241V253.894H105.191V250.566Z" fill="#DCEDF9"/>
<path d="M66.4526 155.443C66.4526 155.443 55.8758 169.549 54.4678 181.85C53.4742 190.539 66.4526 203.522 66.4526 203.522L70.923 201.298L66.467 191.249C64.8814 186.355 62.9286 184.421 64.371 179.482L67.5982 172.523L66.4526 155.443Z" fill="#33D35E"/>
<path d="M99.7832 155.23C99.7832 155.23 110.223 170.271 111.087 182.623C111.833 193.273 99.0528 203.522 99.0528 203.522L95.3616 201.685L100.473 191.533C102.058 186.639 102.812 183.688 100.65 178.363L97.9064 172.523L99.7832 155.23Z" fill="#33D35E"/>
<path d="M68.6071 187.568L61.5959 209.871C61.5959 209.871 91.9503 213.742 101.233 211.238L96.5175 186.946L99.7823 155.23C95.2391 153.316 90.4231 152.093 85.5063 151.738C78.3279 151.219 73.7935 152.403 66.4527 155.443L68.6071 187.568Z" fill="#33D35E"/>
<path d="M76.1952 162.168C82.892 161.382 89.1224 156.784 89.4056 156.573C89.5712 156.45 89.6048 156.215 89.4816 156.05C89.3584 155.884 89.124 155.85 88.9584 155.974C88.8848 156.028 81.5536 161.437 74.5024 161.533C74.2928 161.534 74.1312 161.706 74.1336 161.912C74.136 162.118 74.3056 162.284 74.512 162.281C75.0744 162.272 75.6368 162.234 76.1952 162.168Z" fill="#0077EB"/>
<path d="M81.5911 281.66L82.1383 286.585L87.3759 286.704L87.8151 282.618L81.5911 281.66Z" fill="#F9AF8B"/>
<path d="M80.7694 203.582C80.7694 203.582 67.207 202.838 62.6126 206.596C58.019 210.354 58.9422 221.14 63.6222 224.085C68.3022 227.03 76.2798 232.816 76.2798 232.816L81.3542 283.264L88.0598 283.492C88.0598 283.492 94.2382 232.816 91.1054 223.002C87.9734 213.188 80.7694 203.582 80.7694 203.582Z" fill="#2D314D"/>
<path d="M88.6783 280.99C89.0431 282.169 88.8695 283.31 88.5055 284.446L80.7903 284.274C80.5183 283.15 80.4775 282.022 80.6407 280.89L88.6783 280.99Z" fill="#2E3052"/>
<path d="M99.9623 203.202H64.3703L61.0815 183.967C60.7967 182.302 62.0799 180.78 63.7695 180.78H100.563C102.253 180.78 103.536 182.301 103.252 183.967L99.9623 203.202Z" fill="white"/>
<path d="M97.1008 207.384H67.2672C65.6672 207.384 64.3704 206.087 64.3704 204.487V203.202H99.9976V204.487C99.9984 206.087 98.7008 207.384 97.1008 207.384Z" fill="#DCEDF9"/>
<path d="M85.3374 192.784C85.3374 194.491 83.9534 195.875 82.2462 195.875C80.539 195.875 79.155 194.491 79.155 192.784C79.155 191.077 80.539 189.693 82.2462 189.693C83.9534 189.693 85.3374 191.077 85.3374 192.784Z" fill="#DCEDF9"/>
<path d="M59.3449 267.81L58.1841 272.683L62.8841 273.612L64.7985 269.26L59.3449 267.81Z" fill="#F9AF8B"/>
<path d="M87.6601 202.747C87.6601 202.747 78.5769 199.615 73.2521 206.193C67.9273 212.77 59.0105 268.296 59.0105 268.296L65.1233 270.818L84.7729 221.506C84.7729 221.506 100.775 230.637 102.713 217.656C104.247 207.384 87.6601 202.747 87.6601 202.747Z" fill="#2D314D"/>
<path d="M66.508 268.274C66.4856 269.547 65.9464 270.611 65.224 271.607L57.7112 268.951C57.8072 267.761 58.1304 266.641 58.656 265.583L66.508 268.274Z" fill="#524E84"/>
<path d="M61.7703 271.882C61.7703 271.882 58.9215 270.436 58.0831 270.271C57.2447 270.106 50.3191 275.019 48.3575 274.971C44.7991 274.884 43.6599 280.109 45.6823 280.82C51.5319 282.877 62.3575 282.622 62.3575 282.622C62.3575 282.622 64.7615 276.122 64.8071 273.929C64.8519 271.734 63.3159 272.865 61.7703 271.882Z" fill="#2D314D"/>
<path d="M55.5486 276.524C55.651 276.57 55.771 276.578 55.8838 276.534C56.1022 276.45 56.2078 276.208 56.1206 275.993C56.091 275.921 55.3902 274.224 54.2374 273.436C52.7046 272.386 51.2926 273.115 51.2334 273.146C51.0278 273.256 50.9526 273.51 51.0654 273.713C51.1782 273.916 51.4374 273.992 51.6438 273.882C51.6822 273.863 52.6622 273.375 53.755 274.121C54.6942 274.763 55.3246 276.283 55.3302 276.298C55.3726 276.402 55.4526 276.48 55.5486 276.524Z" fill="white"/>
<path d="M56.9687 275.538C57.0711 275.585 57.1911 275.592 57.3039 275.549C57.5223 275.465 57.6279 275.222 57.5407 275.007C57.5111 274.935 56.8103 273.238 55.6575 272.45C54.1231 271.398 52.7127 272.129 52.6535 272.16C52.4479 272.27 52.3727 272.523 52.4855 272.726C52.5983 272.929 52.8575 273.005 53.0639 272.895C53.1023 272.876 54.0831 272.388 55.1743 273.134C56.1175 273.778 56.7431 275.296 56.7495 275.311C56.7927 275.417 56.8727 275.495 56.9687 275.538Z" fill="white"/>
<path d="M53.7126 277.226C53.815 277.273 53.935 277.28 54.0478 277.237C54.2662 277.153 54.3718 276.91 54.2846 276.695C54.255 276.623 53.5542 274.926 52.4014 274.138C50.867 273.086 49.4566 273.817 49.3974 273.848C49.1918 273.958 49.1166 274.211 49.2294 274.414C49.3422 274.618 49.6014 274.694 49.8078 274.584C49.8462 274.565 50.827 274.077 51.919 274.822C52.8622 275.467 53.4886 276.985 53.4942 277C53.5358 277.104 53.6166 277.182 53.7126 277.226Z" fill="white"/>
<path d="M84.1582 286.378C84.1582 286.378 87.0734 285.494 87.8886 285.478C88.7038 285.462 94.3926 291.226 96.243 291.506C99.5998 292.015 99.8022 297.111 97.7846 297.443C91.9494 298.404 81.8238 296.368 81.8238 296.368C81.8238 296.368 80.6446 289.865 80.9662 287.797C81.2886 285.729 82.5438 287.046 84.1582 286.378Z" fill="#2D314D"/>
<path d="M89.232 291.771C89.128 291.798 89.0136 291.785 88.9152 291.726C88.724 291.61 88.6648 291.365 88.7832 291.178C88.8224 291.115 89.7632 289.638 90.976 289.089C92.5896 288.357 93.7952 289.276 93.8456 289.315C94.0208 289.452 94.0496 289.703 93.9096 289.874C93.7696 290.046 93.5136 290.075 93.3384 289.938C93.3056 289.913 92.4664 289.292 91.316 289.811C90.3272 290.258 89.4832 291.582 89.4744 291.595C89.4176 291.686 89.3288 291.746 89.232 291.771Z" fill="white"/>
<path d="M88.0615 290.61C87.9575 290.637 87.8439 290.624 87.7455 290.565C87.5543 290.45 87.4951 290.204 87.6135 290.017C87.6527 289.954 88.5935 288.476 89.8063 287.927C91.4215 287.194 92.6255 288.114 92.6759 288.154C92.8511 288.291 92.8799 288.542 92.7391 288.714C92.5991 288.886 92.3431 288.914 92.1679 288.777C92.1351 288.752 91.2951 288.131 90.1455 288.65C89.1527 289.1 88.3127 290.421 88.3047 290.434C88.2471 290.525 88.1591 290.586 88.0615 290.61Z" fill="white"/>
<path d="M90.8398 292.736C90.7358 292.762 90.6222 292.75 90.5238 292.69C90.3326 292.575 90.2734 292.33 90.3918 292.142C90.431 292.08 91.3718 290.602 92.5846 290.053C94.1998 289.32 95.4038 290.24 95.4542 290.28C95.6294 290.417 95.6582 290.668 95.5174 290.839C95.3774 291.011 95.1214 291.04 94.9462 290.902C94.9134 290.878 94.0734 290.257 92.9238 290.776C91.931 291.226 91.091 292.546 91.083 292.56C91.0254 292.65 90.9374 292.71 90.8398 292.736Z" fill="white"/>
<path d="M92.0767 123.631C92.0767 123.631 96.3935 130.317 95.9199 137.281C95.4471 144.245 96.5559 152.284 90.3247 151.93C84.0935 151.577 72.9783 154.429 69.4455 149.005C65.9127 143.582 92.0767 123.631 92.0767 123.631Z" fill="#2E3052"/>
<path d="M93.6766 135.925C93.6766 135.925 94.7966 146.019 90.007 148.798C85.2174 151.578 81.7502 148.474 81.7502 148.474C81.7502 148.474 91.847 134.405 93.6766 135.925Z" fill="#000B29"/>
<path d="M73.7797 135.878C73.7797 135.878 72.0597 133.584 70.7805 135.481C69.5013 137.377 71.3093 142.978 74.4405 141.61L73.7797 135.878Z" fill="#FC8664"/>
<path d="M73.7574 139.88C73.6422 139.88 73.5358 139.803 73.503 139.686C73.0174 137.958 71.2262 137.256 71.2086 137.25C71.0726 137.198 71.0038 137.045 71.055 136.909C71.107 136.772 71.2598 136.703 71.3958 136.755C71.4798 136.787 73.4534 137.553 74.0126 139.544C74.0518 139.685 73.9702 139.831 73.8294 139.87C73.8054 139.877 73.7814 139.88 73.7574 139.88Z" fill="#FD664D"/>
<path d="M71.9493 139.009C71.9005 139.009 71.8501 138.995 71.8061 138.966C71.6829 138.887 71.6477 138.723 71.7269 138.601C71.7405 138.58 72.0573 138.097 72.7197 137.8C72.8525 137.74 73.0093 137.8 73.0693 137.934C73.1293 138.067 73.0693 138.223 72.9357 138.283C72.4229 138.513 72.1741 138.884 72.1717 138.887C72.1213 138.966 72.0365 139.009 71.9493 139.009Z" fill="#FD664D"/>
<path d="M91.5046 135.878C91.5046 135.878 93.2246 133.584 94.5038 135.481C95.783 137.377 93.975 142.978 90.8438 141.61L91.5046 135.878Z" fill="#FC8664"/>
<path d="M91.527 139.88C91.643 139.88 91.7487 139.803 91.7815 139.686C92.2671 137.958 94.0582 137.256 94.0759 137.25C94.2118 137.198 94.2806 137.045 94.2286 136.909C94.1766 136.772 94.0246 136.703 93.8878 136.755C93.8038 136.787 91.8303 137.553 91.2711 139.544C91.2319 139.685 91.3134 139.831 91.4542 139.87C91.479 139.877 91.503 139.88 91.527 139.88Z" fill="#FD664D"/>
<path d="M93.335 139.009C93.3838 139.009 93.4334 138.995 93.4782 138.966C93.6014 138.887 93.6366 138.723 93.5574 138.601C93.5438 138.58 93.227 138.097 92.5638 137.8C92.431 137.74 92.2742 137.8 92.2142 137.934C92.1542 138.067 92.2142 138.223 92.3478 138.283C92.8606 138.513 93.1094 138.884 93.1118 138.887C93.163 138.966 93.2486 139.009 93.335 139.009Z" fill="#FD664D"/>
<path d="M86.8758 146.362V151.931C86.8758 151.931 85.215 154.768 82.9686 154.961C80.7246 155.157 78.7302 152.518 78.7302 152.518V146.753L86.8758 146.362Z" fill="#F9AF8B"/>
<path d="M86.8758 146.362V148.833C85.3686 150.506 82.6926 151.098 78.731 150.514L78.7302 146.754L86.8758 146.362Z" fill="#FC8664"/>
<path d="M92.7485 132.057C92.6453 134.222 92.4389 136.928 92.0261 139.093C91.9229 139.633 91.8061 140.141 91.6765 140.596C90.5045 144.7 87.5725 151.738 79.3645 148.806C75.7397 147.513 74.0589 143.474 73.3101 139.368C72.8021 136.579 72.7253 133.761 72.7621 131.747C72.8013 129.691 73.9237 127.813 75.7125 126.799C80.5573 124.053 85.6693 125.077 89.0349 126.37C91.3725 127.268 92.8677 129.562 92.7485 132.057Z" fill="#F9AF8B"/>
<path d="M79.0277 136.738C79.0277 137.332 78.7213 137.814 78.3429 137.814C77.9653 137.814 77.6589 137.332 77.6589 136.738C77.6589 136.143 77.9653 135.661 78.3429 135.661C78.7213 135.662 79.0277 136.143 79.0277 136.738Z" fill="#2E3052"/>
<path d="M87.4796 136.738C87.4796 137.332 87.1732 137.814 86.7956 137.814C86.418 137.814 86.1108 137.332 86.1108 136.738C86.1108 136.143 86.4172 135.661 86.7956 135.661C87.1732 135.662 87.4796 136.143 87.4796 136.738Z" fill="#2E3052"/>
<path d="M76.9878 133.156C77.5566 132.995 78.7046 132.721 79.9158 132.718C80.235 132.717 80.479 133 80.4222 133.314L80.4206 133.322C80.3758 133.572 80.1518 133.75 79.8974 133.738C79.0734 133.699 76.9102 133.815 75.8886 134.229C75.8678 134.051 75.9726 133.857 76.1214 133.684C76.3462 133.422 76.655 133.25 76.9878 133.156Z" fill="#2E3052"/>
<path d="M88.0462 133.178C87.4774 133.017 86.3294 132.742 85.1182 132.739C84.7998 132.738 84.5558 133.022 84.6118 133.335L84.6134 133.343C84.6582 133.594 84.8822 133.771 85.1366 133.759C85.9606 133.721 88.1238 133.837 89.1454 134.25C89.1662 134.073 89.0614 133.878 88.9126 133.706C88.6878 133.444 88.3782 133.271 88.0462 133.178Z" fill="#2E3052"/>
<path d="M82.7342 141.117C82.5318 141.117 82.3286 141.081 82.159 140.979C82.0046 140.886 81.8118 140.699 81.7742 140.333C81.6734 139.36 81.9222 136.312 81.9334 136.182C81.9454 136.037 82.0726 135.928 82.219 135.94C82.3646 135.952 82.4734 136.08 82.4614 136.226C82.459 136.257 82.2062 139.354 82.3014 140.278C82.3182 140.438 82.3838 140.495 82.431 140.524C82.679 140.673 83.2534 140.521 83.4926 140.424C83.6278 140.368 83.7822 140.434 83.8374 140.569C83.8926 140.704 83.8278 140.858 83.6926 140.914C83.6238 140.943 83.1806 141.117 82.7342 141.117Z" fill="#FC8664"/>
<path d="M79.374 142.787C79.574 143.794 80.2388 145.646 82.4788 145.646C84.7244 145.646 85.354 143.954 85.57 142.787H79.374Z" fill="white"/>
<path d="M82.447 147.19C81.8006 147.19 81.2302 146.842 81.2062 146.826C81.0822 146.75 81.0438 146.586 81.1206 146.462C81.1974 146.338 81.3598 146.3 81.4846 146.376C81.4894 146.378 81.955 146.66 82.4478 146.66C82.9814 146.66 83.459 146.378 83.4638 146.374C83.5894 146.299 83.7518 146.34 83.827 146.465C83.9022 146.59 83.8622 146.752 83.7374 146.827C83.7118 146.842 83.1318 147.19 82.447 147.19Z" fill="#FC8664"/>
<path d="M93.8135 131.626C93.7287 131.867 93.4927 132.021 93.1767 132.114C93.1999 132.698 93.1383 133.399 93.0807 134.072C92.7543 137.896 91.7895 138.568 91.5711 137.622C91.4271 136.994 91.4359 133.393 91.5055 132.218C90.7495 132.169 90.1039 132.043 90.1039 132.043L89.2167 128.33L88.9063 131.998C87.5759 132.461 84.4711 131.719 84.4711 131.719L83.4295 128.059L82.7855 131.581C80.7895 132.553 78.2959 131.906 78.2959 131.906L77.7231 128.107L76.3999 131.906C76.3999 131.906 72.1423 133.433 72.0959 131.906C72.0671 131.017 72.7183 128.514 73.2687 126.574C73.8687 124.46 75.2575 122.674 77.1359 121.666C82.4167 118.83 88.0015 120.338 89.9175 121.483C93.9807 123.907 93.8135 131.626 93.8135 131.626Z" fill="#2E3052"/>
<path d="M74.4414 123.914C74.4414 123.914 70.9366 128.083 69.783 135.529C68.6302 142.974 67.0334 148.475 71.5198 150.934C76.3758 153.594 75.955 148.138 75.8854 146.654C75.8158 145.171 71.6854 141.118 74.4414 129.699C75.3318 126.012 74.4414 123.914 74.4414 123.914Z" fill="#2E3052"/>
<path d="M73.6223 139.3C73.6223 139.3 73.6223 139.304 73.6223 139.309C73.6239 139.364 73.6279 139.66 73.6487 140.123C73.6591 140.41 73.6767 140.76 73.7039 141.158C73.8687 143.666 74.3567 147.998 75.7903 149.501C76.3559 150.095 77.4471 150.393 78.7319 150.514V148.542C77.3783 147.9 76.3231 146.845 75.5047 145.546C74.9991 144.452 74.1279 142.738 73.7199 140.043L73.6223 139.3Z" fill="#000B29"/>
<path d="M92.8118 141.737C92.8118 142.079 92.5342 142.357 92.1918 142.357C91.8494 142.357 91.5718 142.079 91.5718 141.737C91.5718 141.394 91.8494 141.117 92.1918 141.117C92.5342 141.117 92.8118 141.394 92.8118 141.737Z" fill="white"/>
<path d="M279.599 88.3495H264.393C263.225 88.3495 262.279 87.4032 262.279 86.236V71.0296C262.279 69.8624 263.225 68.916 264.393 68.916H279.599C280.766 68.916 281.713 69.8624 281.713 71.0296V86.236C281.713 87.4039 280.766 88.3495 279.599 88.3495Z" fill="#2D314D"/>
<path d="M278.613 78.6336C278.613 80.2344 278.045 81.7024 277.098 82.8472C275.885 84.3152 274.049 85.2512 271.997 85.2512C269.943 85.2512 268.109 84.316 266.895 82.848C265.949 81.7032 265.38 80.2352 265.38 78.6344C265.38 74.98 268.342 72.0176 271.997 72.0176C275.65 72.016 278.613 74.9784 278.613 78.6336Z" fill="#2D314D"/>
<path d="M277.098 82.8464C275.885 84.3144 274.049 85.2504 271.997 85.2504C269.943 85.2504 268.109 84.3152 266.895 82.8472L266.984 82.6712C267.127 82.388 267.325 82.14 267.563 81.94C267.801 81.7392 268.079 81.5864 268.382 81.4944C269.46 81.1656 270.46 80.8328 271.021 79.8704C270.338 79.5496 269.883 78.908 269.693 78.4544C268.944 78.6144 268.405 77.2288 268.806 76.8616C268.958 76.7224 269.113 76.684 269.248 76.6912C269.372 75.2816 270.554 74.0232 271.996 74.0232C273.437 74.0232 274.621 75.2824 274.744 76.6912C274.879 76.6832 275.033 76.7224 275.185 76.8616C275.586 77.2288 275.048 78.6136 274.299 78.4544C274.136 78.96 273.574 79.5696 273.068 79.7824C273.629 80.7448 274.531 81.1648 275.609 81.4936C275.913 81.5856 276.19 81.7384 276.429 81.9392C276.667 82.1392 276.865 82.3872 277.008 82.6704L277.098 82.8464Z" fill="#33D35E"/>
<path d="M27.0998 191.686H11.8934C10.7262 191.686 9.77979 190.74 9.77979 189.573V174.366C9.77979 173.199 10.7262 172.253 11.8934 172.253H27.0998C28.267 172.253 29.2134 173.199 29.2134 174.366V189.573C29.2134 190.74 28.267 191.686 27.0998 191.686Z" fill="#33D35E"/>
<path d="M19.7878 175.526C17.3062 175.361 15.2422 177.326 15.2422 179.77C15.2422 180.562 15.459 181.304 15.8374 181.94C16.4006 182.888 16.9806 183.826 17.5158 184.791L19.531 188.423L22.6046 182.878C22.7846 182.554 22.9798 182.238 23.1678 181.919C23.5566 181.261 23.7702 180.489 23.7494 179.666C23.6982 177.487 21.9614 175.67 19.7878 175.526ZM19.4958 181.057C18.5046 181.057 17.6998 180.254 17.6998 179.261C17.6998 178.268 18.5046 177.465 19.4958 177.465C20.4886 177.465 21.2918 178.268 21.2918 179.261C21.2918 180.254 20.4886 181.057 19.4958 181.057Z" fill="#2D314D"/>
<path d="M346.412 94.7504C348.804 94.7504 350.75 96.696 350.75 99.0888C350.75 101.481 348.804 103.427 346.412 103.427C344.02 103.427 342.073 101.481 342.073 99.0888C342.073 96.696 344.02 94.7504 346.412 94.7504ZM346.412 102.066C348.053 102.066 349.389 100.73 349.389 99.0888C349.389 97.4472 348.053 96.112 346.412 96.112C344.77 96.112 343.435 97.4472 343.435 99.0888C343.434 100.73 344.77 102.066 346.412 102.066Z" fill="#2AB6D9"/>
<path d="M330.795 79.5312C333.187 79.5312 335.134 81.4776 335.134 83.8696C335.134 86.2616 333.187 88.208 330.795 88.208C328.403 88.208 326.458 86.2616 326.458 83.8696C326.457 81.4776 328.403 79.5312 330.795 79.5312ZM330.795 86.8464C332.437 86.8464 333.772 85.5112 333.772 83.8696C333.772 82.228 332.437 80.8928 330.795 80.8928C329.154 80.8928 327.818 82.228 327.818 83.8696C327.818 85.5112 329.154 86.8464 330.795 86.8464Z" fill="#33D35E"/>
<path d="M325.435 65.4344C325.811 65.4344 326.116 65.7392 326.116 66.1152V69.116C326.116 69.492 325.811 69.7968 325.435 69.7968C325.059 69.7968 324.754 69.492 324.754 69.116V66.1152C324.754 65.7392 325.059 65.4344 325.435 65.4344Z" fill="#2AB6D9"/>
<path d="M325.435 60.1832C325.811 60.1832 326.116 60.488 326.116 60.864V63.8648C326.116 64.2408 325.811 64.5456 325.435 64.5456C325.059 64.5456 324.754 64.2408 324.754 63.8648V60.864C324.754 60.488 325.059 60.1832 325.435 60.1832Z" fill="#2AB6D9"/>
<path d="M321.223 64.3096H323.919C324.295 64.3096 324.6 64.6144 324.6 64.9904C324.6 65.3664 324.295 65.6712 323.919 65.6712H321.223C320.847 65.6712 320.542 65.3664 320.542 64.9904C320.542 64.6136 320.847 64.3096 321.223 64.3096Z" fill="#2AB6D9"/>
<path d="M326.952 64.3096H329.648C330.024 64.3096 330.329 64.6144 330.329 64.9904C330.329 65.3664 330.024 65.6712 329.648 65.6712H326.952C326.576 65.6712 326.271 65.3664 326.271 64.9904C326.271 64.6136 326.576 64.3096 326.952 64.3096Z" fill="#2AB6D9"/>
<path d="M349.389 82.2496C349.765 82.2496 350.069 82.5544 350.069 82.9304V85.9312C350.069 86.3072 349.764 86.612 349.389 86.612C349.013 86.612 348.708 86.3072 348.708 85.9312V82.9304C348.708 82.5544 349.013 82.2496 349.389 82.2496Z" fill="#2D314D"/>
<path d="M349.389 76.9984C349.765 76.9984 350.069 77.3032 350.069 77.6792V80.68C350.069 81.056 349.764 81.3608 349.389 81.3608C349.013 81.3608 348.708 81.056 348.708 80.68V77.6792C348.708 77.3024 349.013 76.9984 349.389 76.9984Z" fill="#2D314D"/>
<path d="M345.177 81.124H347.873C348.249 81.124 348.553 81.4288 348.553 81.8048C348.553 82.1808 348.249 82.4856 347.873 82.4856H345.177C344.801 82.4856 344.496 82.1808 344.496 81.8048C344.496 81.4288 344.801 81.124 345.177 81.124Z" fill="#2D314D"/>
<path d="M350.905 81.124H353.601C353.977 81.124 354.282 81.4288 354.282 81.8048C354.282 82.1808 353.977 82.4856 353.601 82.4856H350.905C350.529 82.4856 350.225 82.1808 350.225 81.8048C350.225 81.4288 350.529 81.124 350.905 81.124Z" fill="#2D314D"/>
<path d="M77.763 39.3575C80.155 39.3575 82.1014 41.3039 82.1014 43.6959C82.1014 46.0879 80.155 48.0343 77.763 48.0343C75.371 48.0343 73.4246 46.0879 73.4246 43.6959C73.4254 41.3031 75.371 39.3575 77.763 39.3575ZM77.763 40.7183C76.1214 40.7183 74.7862 42.0543 74.7862 43.6951C74.7862 45.3367 76.1214 46.6719 77.763 46.6719C79.4046 46.6719 80.7406 45.3367 80.7406 43.6951C80.7406 42.0535 79.4046 40.7183 77.763 40.7183Z" fill="#2D314D"/>
<path d="M61.9639 25.028C64.3559 25.028 66.3023 26.9744 66.3023 29.3664C66.3023 31.7584 64.3559 33.7047 61.9639 33.7047C59.5719 33.7047 57.6255 31.7584 57.6255 29.3664C57.6263 26.9736 59.5719 25.028 61.9639 25.028ZM61.9639 26.3888C60.3223 26.3888 58.9871 27.724 58.9871 29.3656C58.9871 31.0072 60.3223 32.3424 61.9639 32.3424C63.6055 32.3424 64.9407 31.0064 64.9407 29.3656C64.9415 27.724 63.6063 26.3888 61.9639 26.3888Z" fill="#2BDAC2"/>
<path d="M56.2415 49.8247C56.2415 50.2007 56.5463 50.5055 56.9223 50.5055H59.9231C60.2991 50.5055 60.6039 50.2007 60.6039 49.8247C60.6039 49.4487 60.2991 49.1439 59.9231 49.1439H56.9223C56.5463 49.1439 56.2415 49.4487 56.2415 49.8247Z" fill="#2D314D"/>
<path d="M50.9902 49.8247C50.9902 50.2007 51.295 50.5055 51.671 50.5055H54.6718C55.0478 50.5055 55.3526 50.2007 55.3526 49.8247C55.3526 49.4487 55.0478 49.1439 54.6718 49.1439H51.671C51.2942 49.1439 50.9902 49.4487 50.9902 49.8247Z" fill="#2D314D"/>
<path d="M55.1157 45.6119V48.3079C55.1157 48.6839 55.4205 48.9887 55.7965 48.9887C56.1725 48.9887 56.4773 48.6839 56.4773 48.3079V45.6119C56.4773 45.2359 56.1725 44.9319 55.7965 44.9319C55.4205 44.9319 55.1157 45.2367 55.1157 45.6119Z" fill="#2D314D"/>
<path d="M55.1157 51.3408V54.0368C55.1157 54.4128 55.4205 54.7176 55.7965 54.7176C56.1725 54.7176 56.4773 54.4128 56.4773 54.0368V51.3408C56.4773 50.9648 56.1725 50.6608 55.7965 50.6608C55.4205 50.6608 55.1157 50.9648 55.1157 51.3408Z" fill="#2D314D"/>
<path d="M88.0183 26.3887C88.0183 26.7647 88.3231 27.0695 88.6991 27.0695H91.6999C92.0759 27.0695 92.3807 26.7647 92.3807 26.3887C92.3807 26.0127 92.0759 25.7079 91.6999 25.7079H88.6991C88.3231 25.7079 88.0183 26.0127 88.0183 26.3887Z" fill="#2BDAC2"/>
<path d="M82.7671 26.3887C82.7671 26.7647 83.0719 27.0695 83.4479 27.0695H86.4487C86.8247 27.0695 87.1295 26.7647 87.1295 26.3887C87.1295 26.0127 86.8247 25.7079 86.4487 25.7079H83.4479C83.0719 25.7079 82.7671 26.0127 82.7671 26.3887Z" fill="#2BDAC2"/>
<path d="M86.8936 22.1768V24.8728C86.8936 25.2488 87.1983 25.5536 87.5735 25.5536C87.9487 25.5536 88.2543 25.2488 88.2543 24.8728V22.1768C88.2543 21.8008 87.9495 21.496 87.5735 21.496C87.1975 21.496 86.8936 21.8008 86.8936 22.1768Z" fill="#2BDAC2"/>
<path d="M86.8936 27.9056V30.6016C86.8936 30.9776 87.1983 31.2824 87.5735 31.2824C87.9487 31.2824 88.2543 30.9776 88.2543 30.6016V27.9056C88.2543 27.5296 87.9495 27.2248 87.5735 27.2248C87.1975 27.2248 86.8936 27.5296 86.8936 27.9056Z" fill="#2BDAC2"/>
<path d="M268.906 47.3312C268.998 47.3528 269.095 47.3536 269.193 47.3304C270.223 47.0768 270.819 46.9744 270.826 46.9736C271.138 46.9208 271.344 46.64 271.288 46.3472C271.231 46.0544 270.933 45.86 270.621 45.9128C270.595 45.9176 269.98 46.0224 268.902 46.288C268.595 46.3632 268.411 46.6576 268.492 46.9456C268.547 47.1424 268.71 47.2848 268.906 47.3312Z" fill="#DCEDF9"/>
<path d="M235.564 72.0256C235.029 72.9408 234.514 73.8896 234.033 74.8464C233.913 75.0832 233.634 75.2008 233.374 75.1392C233.338 75.1304 233.303 75.1192 233.269 75.104C232.982 74.9768 232.859 74.656 232.995 74.3864C233.485 73.4104 234.012 72.4416 234.557 71.5072C234.709 71.2464 235.057 71.1504 235.337 71.2936C235.614 71.4368 235.716 71.764 235.564 72.0256Z" fill="#DCEDF9"/>
<path d="M232.685 77.748C232.271 78.7152 231.877 79.7144 231.515 80.72C231.418 80.988 231.118 81.1384 230.831 81.0696C230.817 81.0664 230.802 81.0624 230.787 81.0576C230.487 80.9624 230.326 80.656 230.427 80.3744C230.796 79.3504 231.197 78.3312 231.619 77.3464C231.737 77.0704 232.072 76.9368 232.366 77.0472C232.66 77.1584 232.802 77.472 232.685 77.748Z" fill="#DCEDF9"/>
<path d="M227.817 93.5312C227.54 93.4656 227.353 93.2136 227.39 92.9408C227.537 91.8688 227.709 90.796 227.904 89.7528C227.958 89.46 228.256 89.264 228.569 89.3152C228.885 89.3688 229.089 89.6456 229.035 89.9384C228.844 90.9656 228.673 92.0216 228.529 93.0784C228.489 93.3736 228.201 93.5824 227.886 93.544C227.863 93.5408 227.84 93.5368 227.817 93.5312Z" fill="#DCEDF9"/>
<path d="M230.122 83.084C230.428 83.164 230.606 83.4616 230.521 83.748C230.38 84.2208 230.245 84.7 230.118 85.1712C229.97 85.7152 229.829 86.2712 229.697 86.824C229.627 87.1144 229.32 87.2968 229.01 87.2312C229.005 87.2304 229 87.2288 228.995 87.228C228.694 87.1568 228.508 86.8728 228.577 86.5872C228.711 86.0248 228.855 85.4592 229.005 84.9064C229.134 84.4264 229.272 83.9392 229.415 83.4576C229.499 83.1752 229.808 83.0088 230.109 83.08C230.114 83.0824 230.118 83.0832 230.122 83.084Z" fill="#DCEDF9"/>
<path d="M237.276 69.2984C237.14 69.5008 236.884 69.5888 236.65 69.5328C236.593 69.5192 236.537 69.4968 236.484 69.4656C236.216 69.3064 236.136 68.9736 236.306 68.7224C236.918 67.8136 237.567 66.9128 238.237 66.0456C238.423 65.8048 238.782 65.7512 239.038 65.9256C239.294 66.1 239.352 66.4368 239.166 66.6784C238.51 67.5272 237.875 68.4088 237.276 69.2984Z" fill="#DCEDF9"/>
<path d="M265.971 48.248C264.924 48.584 263.861 48.9608 262.813 49.3672C262.694 49.4128 262.569 49.4192 262.453 49.392C262.283 49.3512 262.136 49.2392 262.063 49.0752C261.942 48.8 262.081 48.4848 262.374 48.372C263.445 47.9568 264.53 47.5728 265.6 47.2296C265.9 47.1336 266.226 47.284 266.329 47.5656C266.431 47.8448 266.271 48.1512 265.971 48.248Z" fill="#DCEDF9"/>
<path d="M256.734 52.1256C256.601 52.1952 256.45 52.2096 256.313 52.1776C256.165 52.1424 256.033 52.0528 255.953 51.9176C255.799 51.6576 255.898 51.3296 256.175 51.184C257.173 50.6608 258.201 50.1592 259.23 49.692C259.516 49.5624 259.858 49.6744 259.997 49.9424C260.135 50.2104 260.015 50.5328 259.729 50.6624C258.721 51.12 257.713 51.6128 256.734 52.1256Z" fill="#DCEDF9"/>
<path d="M245.849 59.5672C245.701 59.6976 245.498 59.74 245.315 59.696C245.213 59.6712 245.115 59.62 245.037 59.5416C244.821 59.3248 244.833 58.9832 245.064 58.78C245.897 58.048 246.767 57.3296 247.65 56.6448C247.895 56.4552 248.257 56.4872 248.458 56.7168C248.66 56.9464 248.625 57.2864 248.381 57.4752C247.516 58.1472 246.664 58.8504 245.849 59.5672Z" fill="#DCEDF9"/>
<path d="M251.048 55.5368C250.905 55.6352 250.729 55.6616 250.569 55.6232C250.443 55.5936 250.328 55.524 250.246 55.4176C250.059 55.1768 250.116 54.84 250.372 54.6648C251.293 54.036 252.25 53.4232 253.218 52.8432C253.486 52.6824 253.841 52.7568 254.011 53.0072C254.182 53.2576 254.103 53.5912 253.836 53.7512C252.888 54.32 251.95 54.92 251.048 55.5368Z" fill="#DCEDF9"/>
<path d="M241.23 64.1768C241.084 64.3424 240.855 64.4056 240.647 64.356C240.567 64.3368 240.49 64.3016 240.422 64.2488C240.178 64.0592 240.144 63.7192 240.346 63.4904C241.075 62.6632 241.842 61.8472 242.625 61.0656C242.842 60.8488 243.205 60.8384 243.436 61.0424C243.667 61.2464 243.678 61.5872 243.461 61.804C242.694 62.5688 241.944 63.3672 241.23 64.1768Z" fill="#DCEDF9"/>
<path d="M269.477 43.684L268.317 34.7032L298.745 39.0664L269.477 43.684Z" fill="#2BDAC2"/>
<path d="M298.745 39.0656L270.636 45.9704L270.561 45.9896L269.149 47.608L269.477 43.684L298.745 39.0656Z" fill="#263238"/>
<path d="M269.149 47.608L271.675 47.5768L270.561 45.9896L269.149 47.608Z" fill="#2D314D"/>
<path d="M274.098 45.12L270.561 45.9896L276.314 54.1816L298.745 39.0664L274.098 45.12Z" fill="#2BDAC2"/>
</svg>
