<svg width="475" height="471" viewBox="0 0 475 471" fill="none" xmlns="http://www.w3.org/2000/svg">
<g opacity="0.5">
<path d="M91.1428 213.545L95.2172 221.802C95.4251 222.223 95.8277 222.516 96.293 222.584L105.404 223.909C106.577 224.079 107.044 225.519 106.196 226.346L99.604 232.772C99.2674 233.1 99.1134 233.574 99.1926 234.037L100.749 243.111C100.949 244.278 99.7239 245.169 98.6756 244.618L90.5268 240.334C90.111 240.115 89.6127 240.115 89.1969 240.334L81.0481 244.618C79.9998 245.169 78.7744 244.279 78.9746 243.111L80.5311 234.037C80.6103 233.574 80.4574 233.1 80.1197 232.772L73.5274 226.346C72.6793 225.519 73.1468 224.079 74.3194 223.909L83.4307 222.584C83.896 222.517 84.2986 222.224 84.5065 221.802L88.5809 213.545C89.1045 212.483 90.6192 212.483 91.1428 213.545Z" fill="#2BDAC2" fill-opacity="0.3"/>
<path d="M53.886 165.823L56.7053 171.534C56.8494 171.826 57.1277 172.028 57.45 172.075L63.753 172.992C64.5637 173.109 64.8882 174.106 64.3008 174.678L59.7402 179.124C59.507 179.351 59.4003 179.679 59.4553 180L60.5322 186.277C60.6708 187.085 59.8227 187.701 59.0978 187.319L53.4603 184.356C53.1721 184.204 52.8278 184.204 52.5407 184.356L46.9032 187.319C46.1783 187.701 45.3302 187.085 45.4688 186.277L46.5457 180C46.6007 179.679 46.494 179.352 46.2619 179.124L41.7013 174.678C41.1139 174.106 41.4384 173.109 42.2491 172.992L48.5521 172.075C48.8744 172.028 49.1527 171.827 49.2968 171.534L52.1161 165.823C52.4758 165.088 53.523 165.088 53.886 165.823Z" fill="#2BDAC2" fill-opacity="0.3"/>
<path d="M257.825 18.2437L259.778 22.2015C259.878 22.4039 260.071 22.5436 260.294 22.5766L264.662 23.2113C265.224 23.2927 265.449 23.9835 265.042 24.3795L261.882 27.4606C261.72 27.6179 261.646 27.8445 261.685 28.0667L262.43 32.4172C262.526 32.9771 261.939 33.4039 261.436 33.1399L257.529 31.0862C257.329 30.9817 257.091 30.9817 256.891 31.0862L252.984 33.1399C252.481 33.4039 251.894 32.9771 251.989 32.4172L252.735 28.0667C252.774 27.8445 252.7 27.6179 252.538 27.4606L249.378 24.3795C248.971 23.9835 249.195 23.2927 249.757 23.2113L254.125 22.5766C254.349 22.5447 254.541 22.4039 254.641 22.2015L256.595 18.2437C256.848 17.7344 257.574 17.7344 257.825 18.2437Z" fill="#2BDAC2" fill-opacity="0.3"/>
<path d="M428.374 222.293L430.328 226.25C430.428 226.453 430.62 226.593 430.844 226.626L435.212 227.26C435.774 227.342 435.998 228.032 435.591 228.428L432.431 231.51C432.269 231.667 432.196 231.893 432.234 232.116L432.98 236.466C433.076 237.026 432.488 237.453 431.986 237.189L428.078 235.135C427.879 235.031 427.641 235.031 427.44 235.135L423.533 237.189C423.031 237.453 422.443 237.026 422.539 236.466L423.285 232.116C423.323 231.893 423.249 231.667 423.088 231.51L419.927 228.428C419.52 228.032 419.745 227.342 420.307 227.26L424.675 226.626C424.898 226.594 425.091 226.453 425.191 226.25L427.144 222.293C427.396 221.783 428.122 221.783 428.374 222.293Z" fill="#2BDAC2" fill-opacity="0.3"/>
<path d="M383.213 204.061L386.435 210.591C386.6 210.924 386.918 211.155 387.286 211.209L394.491 212.256C395.418 212.392 395.788 213.53 395.117 214.185L389.903 219.267C389.637 219.526 389.515 219.9 389.578 220.266L390.809 227.443C390.968 228.366 389.999 229.07 389.169 228.634L382.724 225.246C382.395 225.073 382.002 225.073 381.673 225.246L375.228 228.634C374.398 229.07 373.429 228.366 373.588 227.443L374.819 220.266C374.881 219.9 374.76 219.526 374.493 219.267L369.279 214.185C368.608 213.531 368.979 212.392 369.905 212.256L377.11 211.209C377.478 211.155 377.796 210.924 377.961 210.591L381.183 204.061C381.6 203.222 382.798 203.222 383.213 204.061Z" fill="#2BDAC2" fill-opacity="0.3"/>
<path d="M54.7219 283.84L57.0462 288.55C57.165 288.791 57.3949 288.957 57.66 288.997L62.8575 289.752C63.5263 289.849 63.7936 290.671 63.3096 291.143L59.5487 294.809C59.3562 294.996 59.2693 295.266 59.3144 295.531L60.2021 300.707C60.3165 301.373 59.6169 301.881 59.0196 301.566L54.371 299.122C54.1334 298.997 53.8496 298.997 53.612 299.122L48.9634 301.566C48.365 301.881 47.6665 301.373 47.7809 300.707L48.6686 295.531C48.7137 295.266 48.6257 294.996 48.4343 294.809L44.6734 291.143C44.1894 290.671 44.4567 289.849 45.1255 289.752L50.323 288.997C50.5881 288.958 50.818 288.791 50.9368 288.55L53.2611 283.84C53.5592 283.234 54.4227 283.234 54.7219 283.84Z" fill="#2BDAC2" fill-opacity="0.3"/>
<path d="M165.437 23.5975L152.81 23.6656L153.149 86.4944L165.776 86.4262L165.437 23.5975Z" fill="#2BDAC2" fill-opacity="0.3"/>
<path d="M76.1135 23.7751L43.416 23.9484L43.5999 58.6347L76.2973 58.4614L76.1135 23.7751Z" fill="#33D35E" fill-opacity="0.3"/>
<path d="M108.663 23.588L75.9651 23.7645L76.1524 58.4497L108.85 58.2732L108.663 23.588Z" fill="#263238" fill-opacity="0.3"/>
<path d="M43.4689 33.5227C65.1982 33.702 86.9815 33.5755 108.709 33.2224C109.155 33.2158 109.153 32.5305 108.704 32.5283C86.9749 32.4084 65.1906 32.5151 43.4656 32.9276C43.0828 32.9342 43.085 33.5194 43.4689 33.5227Z" fill="#2BDAC2" fill-opacity="0.3"/>
<path d="M82.4432 57.8716L23.0366 58.1924L23.1893 86.4591L82.5959 86.1383L82.4432 57.8716Z" fill="#33D35E" fill-opacity="0.3"/>
<path d="M141.569 57.5523L82.1624 57.873L82.315 86.1386L141.722 85.8179L141.569 57.5523Z" fill="#263238" fill-opacity="0.3"/>
<path d="M23.0738 66.0542C62.5385 66.5008 102.142 66.1004 141.604 65.469C142.052 65.4613 142.049 64.776 141.601 64.7738C102.133 64.5648 62.5286 64.589 23.0705 65.458C22.6877 65.4679 22.6899 66.0509 23.0738 66.0542Z" fill="#2BDAC2" fill-opacity="0.3"/>
<path d="M231.017 86.4591H0.858154V96.5857H231.017V86.4591Z" fill="#2BDAC2" fill-opacity="0.3"/>
<path d="M47.8832 91.3278H38.5398V125.881H47.8832V91.3278Z" fill="#2BDAC2" fill-opacity="0.3"/>
<path d="M187.359 91.3278H178.015V125.881H187.359V91.3278Z" fill="#2BDAC2" fill-opacity="0.3"/>
<path d="M177.757 0.167777L165.13 0.235962L165.596 86.6476L178.223 86.5794L177.757 0.167777Z" fill="#33D35E" fill-opacity="0.3"/>
<path d="M197.487 16.254L177.867 16.36L178.245 86.3871L197.865 86.2811L197.487 16.254Z" fill="#263238" fill-opacity="0.3"/>
<path d="M197.349 29.752C197.349 29.9401 192.957 30.0919 187.54 30.0919C182.122 30.0919 177.73 29.9401 177.73 29.752C177.73 29.5639 182.122 29.4121 187.54 29.4121C192.957 29.4121 197.349 29.565 197.349 29.752Z" fill="#2BDAC2" fill-opacity="0.3"/>
<path d="M197.349 26.8106C197.349 26.9976 192.957 27.1505 187.54 27.1505C182.122 27.1505 177.73 26.9987 177.73 26.8106C177.73 26.6225 182.122 26.4707 187.54 26.4707C192.957 26.4707 197.349 26.6225 197.349 26.8106Z" fill="#2BDAC2" fill-opacity="0.3"/>
<path d="M197.349 75.7518C197.349 75.9399 192.957 76.0917 187.54 76.0917C182.122 76.0917 177.73 75.9399 177.73 75.7518C177.73 75.5637 182.122 75.4119 187.54 75.4119C192.957 75.4119 197.349 75.5637 197.349 75.7518Z" fill="#2BDAC2" fill-opacity="0.3"/>
<path d="M197.349 72.8093C197.349 72.9974 192.957 73.1492 187.54 73.1492C182.122 73.1492 177.73 72.9974 177.73 72.8093C177.73 72.6212 182.122 72.4694 187.54 72.4694C192.957 72.4694 197.349 72.6223 197.349 72.8093Z" fill="#2BDAC2" fill-opacity="0.3"/>
<path d="M187.855 66.3908C187.667 66.3908 187.515 59.3255 187.515 50.6124C187.515 41.896 187.667 34.8329 187.855 34.8329C188.043 34.8329 188.195 41.896 188.195 50.6124C188.195 59.3266 188.043 66.3908 187.855 66.3908Z" fill="#2BDAC2" fill-opacity="0.3"/>
<path d="M218.917 33.4578H197.561V86.3139H218.917V33.4578Z" fill="#33D35E" fill-opacity="0.3"/>
<path d="M174.883 14.9294C174.883 16.9336 173.258 18.5583 171.254 18.5583C169.249 18.5583 167.625 16.9336 167.625 14.9294C167.625 12.9252 169.249 11.3005 171.254 11.3005C173.258 11.3005 174.883 12.9241 174.883 14.9294Z" fill="#2BDAC2" fill-opacity="0.3"/>
<path d="M172.374 24.9097H170.132V76.3138H172.374V24.9097Z" fill="#2BDAC2" fill-opacity="0.3"/>
<path d="M472.379 43.1488H317.124V182.049H472.379V43.1488Z" fill="#263238" fill-opacity="0.3"/>
<path d="M472.379 182.048C472.379 182.048 472.352 181.157 472.339 179.47C472.33 177.766 472.316 175.273 472.298 172.027C472.277 165.505 472.247 155.974 472.207 143.832C472.163 119.563 472.101 84.8839 472.026 43.1477L472.378 43.4997C427.666 43.5184 374.305 43.5393 317.137 43.5624H317.122L317.537 43.1477C317.52 93.6817 317.502 141.233 317.488 182.047L317.122 181.682C363.438 181.758 402.203 181.821 429.414 181.867C443.027 181.908 453.746 181.94 461.085 181.962C464.741 181.981 467.55 181.995 469.469 182.005C470.409 182.014 471.127 182.022 471.632 182.026C472.12 182.035 472.379 182.048 472.379 182.048C472.379 182.048 472.149 182.062 471.675 182.069C471.179 182.073 470.475 182.081 469.552 182.09C467.649 182.1 464.863 182.114 461.239 182.133C453.918 182.155 443.229 182.188 429.65 182.23C402.382 182.274 363.537 182.337 317.125 182.414L316.759 182.415V182.049C316.744 141.235 316.728 93.6828 316.71 43.1499V42.7352H317.125H317.139C374.307 42.7583 427.667 42.7803 472.38 42.7979H472.733V43.1499C472.658 84.9785 472.595 119.734 472.551 144.057C472.512 156.165 472.481 165.67 472.46 172.173C472.442 175.39 472.429 177.859 472.419 179.548C472.404 181.21 472.379 182.048 472.379 182.048Z" fill="#2BDAC2" fill-opacity="0.3"/>
<path d="M376.653 67.8284C376.653 68.0572 368.481 68.2431 358.403 68.2431C348.322 68.2431 340.151 68.0572 340.151 67.8284C340.151 67.5996 348.321 67.4137 358.403 67.4137C368.481 67.4137 376.653 67.5996 376.653 67.8284Z" fill="#2BDAC2" fill-opacity="0.3"/>
<path d="M442.438 78.2575C442.438 78.4874 419.988 78.6722 392.301 78.6722C364.604 78.6722 342.158 78.4863 342.158 78.2575C342.158 78.0287 364.604 77.8428 392.301 77.8428C419.988 77.8428 442.438 78.0287 442.438 78.2575Z" fill="#2BDAC2" fill-opacity="0.3"/>
<path d="M346.96 95.9236H340.419V102.464H346.96V95.9236Z" fill="#2BDAC2" fill-opacity="0.3"/>
<path d="M363.061 95.9236H356.52V102.464H363.061V95.9236Z" fill="#2BDAC2" fill-opacity="0.3"/>
<path d="M379.458 95.6266H372.918V102.167H379.458V95.6266Z" fill="#2BDAC2" fill-opacity="0.3"/>
<path d="M395.262 95.9236H388.721V102.464H395.262V95.9236Z" fill="#2BDAC2" fill-opacity="0.3"/>
<path d="M411.362 95.9236H404.821V102.464H411.362V95.9236Z" fill="#2BDAC2" fill-opacity="0.3"/>
<path d="M427.462 95.9236H420.922V102.464H427.462V95.9236Z" fill="#2BDAC2" fill-opacity="0.3"/>
<path d="M443.563 95.9236H437.022V102.464H443.563V95.9236Z" fill="#33D35E" fill-opacity="0.3"/>
<path d="M346.96 109.83H340.419V116.37H346.96V109.83Z" fill="#33D35E" fill-opacity="0.3"/>
<path d="M363.061 109.83H356.52V116.37H363.061V109.83Z" fill="#2BDAC2" fill-opacity="0.3"/>
<path d="M379.161 109.83H372.621V116.37H379.161V109.83Z" fill="#33D35E" fill-opacity="0.3"/>
<path d="M395.262 109.83H388.721V116.37H395.262V109.83Z" fill="#2BDAC2" fill-opacity="0.3"/>
<path d="M411.362 109.83H404.821V116.37H411.362V109.83Z" fill="#2BDAC2" fill-opacity="0.3"/>
<path d="M427.759 109.532H421.219V116.072H427.759V109.532Z" fill="#2BDAC2" fill-opacity="0.3"/>
<path d="M443.563 109.83H437.022V116.37H443.563V109.83Z" fill="#2BDAC2" fill-opacity="0.3"/>
<path d="M346.96 123.735H340.419V130.275H346.96V123.735Z" fill="#2BDAC2" fill-opacity="0.3"/>
<path d="M363.358 123.438H356.817V129.978H363.358V123.438Z" fill="#2BDAC2" fill-opacity="0.3"/>
<path d="M379.161 123.735H372.621V130.275H379.161V123.735Z" fill="#2BDAC2" fill-opacity="0.3"/>
<path d="M395.262 123.735H388.721V130.275H395.262V123.735Z" fill="#33D35E" fill-opacity="0.3"/>
<path d="M411.362 123.735H404.821V130.275H411.362V123.735Z" fill="#2BDAC2" fill-opacity="0.3"/>
<path d="M427.462 123.735H420.922V130.275H427.462V123.735Z" fill="#2BDAC2" fill-opacity="0.3"/>
<path d="M443.563 123.735H437.022V130.275H443.563V123.735Z" fill="#2BDAC2" fill-opacity="0.3"/>
<path d="M346.96 137.64H340.419V144.18H346.96V137.64Z" fill="#2BDAC2" fill-opacity="0.3"/>
<path d="M363.061 137.64H356.52V144.18H363.061V137.64Z" fill="#2BDAC2" fill-opacity="0.3"/>
<path d="M379.161 137.64H372.621V144.18H379.161V137.64Z" fill="#2BDAC2" fill-opacity="0.3"/>
<path d="M395.558 137.343H389.017V143.883H395.558V137.343Z" fill="#2BDAC2" fill-opacity="0.3"/>
<path d="M411.362 137.64H404.821V144.18H411.362V137.64Z" fill="#2BDAC2" fill-opacity="0.3"/>
<path d="M427.462 137.64H420.922V144.18H427.462V137.64Z" fill="#33D35E" fill-opacity="0.3"/>
<path d="M443.563 137.64H437.022V144.18H443.563V137.64Z" fill="#2BDAC2" fill-opacity="0.3"/>
<path d="M346.96 151.545H340.419V158.086H346.96V151.545Z" fill="#2BDAC2" fill-opacity="0.3"/>
<path d="M363.061 151.545H356.52V158.086H363.061V151.545Z" fill="#33D35E" fill-opacity="0.3"/>
<path d="M379.161 151.545H372.621V158.086H379.161V151.545Z" fill="#2BDAC2" fill-opacity="0.3"/>
<path d="M395.262 151.545H388.721V158.086H395.262V151.545Z" fill="#2BDAC2" fill-opacity="0.3"/>
<path d="M411.362 151.545H404.821V158.086H411.362V151.545Z" fill="#2BDAC2" fill-opacity="0.3"/>
<path d="M427.759 151.248H421.219V157.789H427.759V151.248Z" fill="#2BDAC2" fill-opacity="0.3"/>
<path d="M443.563 151.545H437.022V158.086H443.563V151.545Z" fill="#2BDAC2" fill-opacity="0.3"/>
<path d="M21.3391 397.613C21.3391 398.344 21.3391 438.058 21.3391 438.058H14.5862V442.448H21.3391V469.516H147.565V444.886H138.215V439.522H147.565V431.474H151.721V427.815H146.786V397.613H21.3391Z" fill="#33D35E" fill-opacity="0.3"/>
<path d="M114.046 397.73V469.067H147.566V444.435H138.216V439.521L147.566 439.688V431.64L151.802 431.646L151.722 427.487L146.786 427.364V397.613L114.046 397.73Z" fill="#2BDAC2" fill-opacity="0.3"/>
<path d="M116.434 441.867C116.434 442.114 93.5926 442.315 65.4238 442.315C37.2451 442.315 14.408 442.114 14.408 441.867C14.408 441.619 37.244 441.418 65.4238 441.418C93.5926 441.418 116.434 441.619 116.434 441.867Z" fill="#2BDAC2" fill-opacity="0.3"/>
<path d="M116.434 437.758C116.434 438.006 93.5926 438.207 65.4238 438.207C37.2451 438.207 14.408 438.007 14.408 437.758C14.408 437.511 37.244 437.311 65.4238 437.311C93.5926 437.311 116.434 437.511 116.434 437.758Z" fill="#2BDAC2" fill-opacity="0.3"/>
<path d="M122.987 426.701C122.987 426.949 100.146 427.149 71.9764 427.149C43.7966 427.149 20.9617 426.949 20.9617 426.701C20.9617 426.454 43.7977 426.253 71.9764 426.253C100.145 426.253 122.987 426.454 122.987 426.701Z" fill="#2BDAC2" fill-opacity="0.3"/>
<path d="M123.617 456.831C123.617 457.079 100.776 457.28 72.6069 457.28C44.4271 457.28 21.5911 457.08 21.5911 456.831C21.5911 456.584 44.4271 456.384 72.6069 456.384C100.776 456.384 123.617 456.585 123.617 456.831Z" fill="#2BDAC2" fill-opacity="0.3"/>
<path d="M37.7169 330.224C37.7169 330.917 37.7169 368.554 37.7169 368.554H31.3171V372.714H37.7169V398.368H157.345V375.025H148.484V369.941H157.345V362.315H161.283V358.848H156.607V330.225L37.7169 330.224Z" fill="#263238" fill-opacity="0.3"/>
<path d="M125.577 330.335V397.942H157.345V374.599H148.484V369.94L157.345 370.099V362.471L161.36 362.477L161.283 358.535L156.607 358.42V330.224L125.577 330.335Z" fill="#2BDAC2" fill-opacity="0.3"/>
<path d="M127.841 372.163C127.841 372.398 106.194 372.588 79.4972 372.588C52.7914 372.588 31.1489 372.398 31.1489 372.163C31.1489 371.929 52.7914 371.739 79.4972 371.739C106.193 371.739 127.841 371.929 127.841 372.163Z" fill="#2BDAC2" fill-opacity="0.3"/>
<path d="M127.841 368.27C127.841 368.506 106.194 368.695 79.4972 368.695C52.7914 368.695 31.1489 368.505 31.1489 368.27C31.1489 368.036 52.7914 367.846 79.4972 367.846C106.193 367.846 127.841 368.036 127.841 368.27Z" fill="#2BDAC2" fill-opacity="0.3"/>
<path d="M134.051 357.792C134.051 358.027 112.404 358.216 85.7067 358.216C59.0009 358.216 37.3584 358.026 37.3584 357.792C37.3584 357.557 59.0009 357.367 85.7067 357.367C112.404 357.366 134.051 357.556 134.051 357.792Z" fill="#2BDAC2" fill-opacity="0.3"/>
<path d="M134.648 386.347C134.648 386.582 113.001 386.771 86.3041 386.771C59.5983 386.771 37.9558 386.581 37.9558 386.347C37.9558 386.112 59.5983 385.922 86.3041 385.922C113.001 385.922 134.648 386.112 134.648 386.347Z" fill="#2BDAC2" fill-opacity="0.3"/>
<path d="M402.694 346.921C396.151 343.546 388.446 343.107 381.182 344.308C377.279 344.952 373.211 346.121 370.556 349.052C367.901 351.984 367.398 357.142 370.446 359.661C372.261 361.16 374.792 361.388 377.146 361.36C382.832 361.294 389.142 360.292 393.685 363.714C396.276 365.665 398.002 368.912 401.101 369.871C404.132 370.81 407.553 369.02 409.162 366.285C410.769 363.549 410.823 360.128 410.073 357.045C410.073 357.045 409.285 350.322 402.694 346.921Z" fill="#33D35E" fill-opacity="0.3"/>
<path d="M417.683 317.984C413.682 323.698 405.907 321.806 402.301 318.318C398.695 314.83 397.171 309.776 395.784 304.954C392.615 293.94 389.42 282.386 391.776 271.169C392.481 267.815 393.734 264.471 396.091 261.984C398.447 259.496 402.071 258.016 405.384 258.892C409.304 259.928 411.742 263.767 413.502 267.421C418.679 278.158 421.42 290.062 421.461 301.983C421.48 307.549 420.824 313.388 417.683 317.984Z" fill="#33D35E" fill-opacity="0.3"/>
<path d="M428.67 326.182C424.326 321.026 423.502 313.507 425.435 307.049C427.368 300.589 431.735 295.096 436.767 290.609C442.667 285.35 449.604 281.257 457.061 278.636C459.996 277.604 463.091 276.79 466.188 277.085C469.284 277.379 472.403 278.963 473.847 281.718C475.982 285.791 473.935 290.731 471.721 294.763C467.819 301.864 463.357 308.658 458.392 315.06C454.397 320.21 449.821 325.291 443.732 327.619C437.644 329.946 431.319 329.672 428.091 325.449" fill="#33D35E" fill-opacity="0.3"/>
<path d="M417.955 404.182C417.88 404.186 417.758 403.261 417.593 401.586C417.409 399.696 417.178 397.323 416.903 394.5C416.573 391.518 416.138 387.97 415.309 384.106C414.483 380.251 413.192 376.075 411.532 371.839C409.813 367.628 407.717 363.8 405.268 360.739C402.835 357.664 400.007 355.439 397.348 354.154C394.698 352.845 392.321 352.314 390.678 352.077C389.022 351.907 388.093 351.777 388.093 351.703C388.092 351.629 389.022 351.617 390.724 351.662C392.411 351.775 394.886 352.202 397.679 353.472C400.48 354.715 403.481 356.974 406.033 360.114C408.605 363.239 410.777 367.15 412.526 371.437C414.215 375.748 415.489 379.968 416.277 383.906C417.064 387.837 417.424 391.424 417.659 394.43C417.883 397.44 417.969 399.876 418.01 401.561C418.046 403.244 418.028 404.177 417.955 404.182Z" fill="#2BDAC2" fill-opacity="0.3"/>
<path d="M417.466 398.729C417.43 398.727 417.407 398.312 417.397 397.524C417.399 396.618 417.403 395.478 417.406 394.078C417.415 391.089 417.413 386.761 417.253 381.419C416.989 370.732 416.068 359.232 414.292 343.018C412.609 327.772 410.351 310.027 407.967 298.492C407.455 295.868 406.941 293.507 406.457 291.44C405.995 289.367 405.6 287.581 405.219 286.135C404.892 284.775 404.626 283.666 404.414 282.787C404.241 282.018 404.167 281.609 404.203 281.598C404.238 281.588 404.382 281.976 404.622 282.728C404.885 283.594 405.216 284.688 405.622 286.029C406.066 287.461 406.52 289.236 407.04 291.3C407.581 293.359 408.148 295.714 408.708 298.334C411.067 308.788 413.564 323.397 415.358 339.65C417.139 355.899 417.941 370.692 418.012 381.405C418.076 386.762 417.961 391.097 417.825 394.089C417.739 395.489 417.67 396.628 417.615 397.532C417.552 398.319 417.503 398.73 417.466 398.729Z" fill="#2BDAC2" fill-opacity="0.3"/>
<path d="M417.395 370.195C417.32 370.193 417.333 368.914 417.42 366.596C417.552 364.283 417.87 360.94 418.523 356.846C419.213 352.76 420.178 347.909 421.694 342.639C422.351 340.229 423.895 334.456 427.635 325.829C432.563 314.139 439.258 304.582 445.081 298.663C446.447 297.093 447.968 295.958 449.185 294.849C449.815 294.316 450.371 293.785 450.938 293.365C451.508 292.972 452.038 292.607 452.531 292.267C454.449 290.956 455.521 290.265 455.561 290.328C455.733 290.561 451.267 293.189 445.629 299.188C440.013 305.173 433.506 314.665 428.618 326.256C425.893 332.542 423.992 338.15 422.644 342.912C421.087 348.131 420.052 352.933 419.269 356.978C418.527 361.031 418.096 364.341 417.836 366.632C417.622 368.926 417.469 370.197 417.395 370.195Z" fill="#2BDAC2" fill-opacity="0.3"/>
<path d="M444.974 420.529L442.115 459.7H391.794L388.934 420.529H444.974Z" fill="#2BDAC2" fill-opacity="0.3"/>
<path d="M449.835 405.089H382.93V420.529H449.835V405.089Z" fill="#2BDAC2" fill-opacity="0.3"/>
<path d="M449.835 458.201V462.481H446.691H384.035V458.201H449.835Z" fill="#33D35E" fill-opacity="0.3"/>
<path d="M443.61 470.014L446.691 462.481H386.432L390.027 470.014H443.61Z" fill="#2BDAC2" fill-opacity="0.3"/>
<path d="M389.869 433.331C389.858 433.34 389.937 433.462 390.103 433.691C390.302 433.956 390.55 434.283 390.854 434.688C391.569 435.602 392.55 436.86 393.786 438.439L393.916 438.606L394.042 438.432C395.885 435.883 398.346 432.479 401.244 428.471H400.829C402.971 431.505 405.358 434.883 407.92 438.511L408.142 438.825L408.39 438.529C411.007 435.416 413.849 432.035 416.8 428.524L416.315 428.517C416.461 428.701 416.618 428.9 416.778 429.099C419.386 432.368 421.911 435.533 424.298 438.526L424.548 438.841L424.779 438.514C427.332 434.902 429.717 431.527 431.873 428.477L431.461 428.496C434.957 432.479 437.922 435.859 440.198 438.45L440.353 438.627L440.472 438.428C441.624 436.493 442.542 434.95 443.208 433.832C443.494 433.334 443.725 432.93 443.909 432.608C444.063 432.329 444.137 432.18 444.124 432.171C444.111 432.164 444.011 432.296 443.831 432.56C443.627 432.869 443.372 433.257 443.055 433.738C442.356 434.836 441.392 436.35 440.183 438.25L440.457 438.228C438.217 435.605 435.3 432.185 431.86 428.152L431.643 427.898L431.448 428.172C429.272 431.209 426.865 434.568 424.29 438.164L424.772 438.151C422.39 435.154 419.872 431.984 417.271 428.711C417.112 428.512 416.954 428.313 416.808 428.129L416.569 427.829L416.323 428.122C413.38 431.64 410.546 435.027 407.936 438.147L408.407 438.165C405.82 434.556 403.41 431.194 401.246 428.176L401.036 427.884L400.831 428.176C397.994 432.228 395.585 435.669 393.781 438.246L394.038 438.238C392.753 436.698 391.732 435.474 390.988 434.582C390.657 434.199 390.389 433.887 390.172 433.637C389.982 433.425 389.88 433.322 389.869 433.331Z" fill="#263238" fill-opacity="0.3"/>
<path d="M388.234 420.271C388.234 420.443 400.843 420.584 416.393 420.584C431.949 420.584 444.555 420.443 444.555 420.271C444.555 420.098 431.949 419.957 416.393 419.957C400.843 419.957 388.234 420.098 388.234 420.271Z" fill="#263238" fill-opacity="0.3"/>
<path d="M385.692 462.903C385.692 463.076 399.396 463.217 416.296 463.217C433.202 463.217 446.902 463.076 446.902 462.903C446.902 462.731 433.202 462.59 416.296 462.59C399.395 462.59 385.692 462.729 385.692 462.903Z" fill="#263238" fill-opacity="0.3"/>
</g>
<path d="M447.009 64.0433L444.332 59.6323C421.764 22.4435 380.962 0.0254653 337.943 2.74577C332.413 3.09557 326.907 3.84466 321.475 5.00736C282.362 13.3795 248.329 42.9574 234.222 80.8381C225.926 103.116 223.608 128.766 207.864 146.45C187.374 169.464 152.588 170.187 122.003 169.233C91.4188 168.279 56.6093 169.092 36.2197 192.198C23.4498 206.667 19.3908 227.245 20.4215 246.623C23.1473 297.929 58.8984 343.803 104.364 366.605C149.829 389.407 203.359 391.449 253.119 381.419C322.826 367.367 389.116 328.778 428.962 269.177C468.806 209.573 478.889 128.372 447.009 64.0433Z" fill="#2D314D"/>
<path d="M130.22 59.253C134.358 41.9553 123.691 24.5778 106.393 20.4393C89.0955 16.3007 71.718 26.9683 67.5795 44.2659C63.4409 61.5636 74.1084 78.941 91.4061 83.0796C108.704 87.2181 126.081 76.5506 130.22 59.253Z" fill="#2D314D"/>
<path d="M460.871 469.833C460.871 469.992 363.319 470.119 243.01 470.119C122.66 470.119 25.1287 469.991 25.1287 469.833C25.1287 469.675 122.659 469.547 243.01 469.547C363.319 469.547 460.871 469.675 460.871 469.833Z" fill="#263238"/>
<path d="M262.243 60.9534C262.712 52.6869 267.795 47.6027 274.918 43.382C282.04 39.1613 291.276 38.7422 298.751 42.3018C303.751 44.6822 308.127 48.7467 313.619 49.4551C322.662 50.6222 331.222 42.2424 340.097 44.3346C345.351 45.5732 349.354 50.829 349.151 56.2223C348.95 61.6156 344.565 66.5579 339.235 67.4005C345.157 68.2585 348.509 75.7495 346.32 81.3188C344.13 86.8881 337.915 90.1188 331.932 90.2486C325.949 90.3784 320.199 87.9364 315.024 84.9334C309.848 81.9293 305.017 78.3169 299.619 75.7341C294.222 73.1513 288.012 71.6421 282.229 73.181C274.401 75.2644 268.853 82.6564 266.812 90.4961C264.769 98.3358 265.65 106.617 266.866 114.627C268.082 122.637 269.626 130.715 268.864 138.781C268.774 139.728 268.564 140.811 267.731 141.271C266.528 141.934 265.15 140.799 264.264 139.749C254.261 127.889 246.619 114.047 241.915 99.2631C239.183 90.6765 237.677 82.3187 240.956 73.9268C244.235 65.5349 255.287 57.5423 262.243 60.9534Z" fill="#263238"/>
<path d="M254.617 100.9L267.854 182.562C270.325 197.811 280.235 212.546 304.167 207.538C324.603 201.628 323.085 186.928 320.421 168.803C320.421 168.803 342.901 162.955 340.888 140.095C339.915 129.048 336.058 106.456 332.331 86.0576C328.329 64.1511 308.151 49.0052 285.994 51.2327L283.79 51.4538C260.176 55.2301 250.189 77.3973 254.617 100.9Z" fill="#FFBF9D"/>
<path d="M320.421 168.803C320.421 168.803 306.115 171.094 289.808 163.003C289.808 163.003 298.773 179.987 321.35 175.639L320.421 168.803Z" fill="#FF9A6C"/>
<path d="M324.586 108.928C324.82 110.644 323.561 112.256 321.772 112.534C319.988 112.81 318.35 111.648 318.116 109.932C317.882 108.216 319.141 106.601 320.925 106.324C322.713 106.046 324.352 107.212 324.586 108.928Z" fill="#263238"/>
<path d="M328.553 97.7562C328.191 98.2215 325.538 96.6418 322.029 97.0048C318.52 97.3161 316.126 99.3797 315.702 98.9892C315.496 98.8176 315.83 98.008 316.87 97.0796C317.891 96.1556 319.694 95.1756 321.881 94.9655C324.068 94.7576 325.987 95.3769 327.127 96.0952C328.291 96.8146 328.733 97.5461 328.553 97.7562Z" fill="#263238"/>
<path d="M291.711 111.03C291.946 112.746 290.685 114.358 288.899 114.636C287.116 114.913 285.477 113.75 285.242 112.034C285.008 110.318 286.269 108.703 288.053 108.427C289.839 108.148 291.478 109.314 291.711 111.03Z" fill="#263238"/>
<path d="M294.129 101.879C293.767 102.345 291.11 100.766 287.604 101.128C284.096 101.439 281.702 103.503 281.277 103.111C281.071 102.939 281.402 102.132 282.446 101.202C283.468 100.277 285.271 99.2983 287.457 99.0871C289.644 98.8803 291.563 99.4996 292.704 100.217C293.863 100.936 294.308 101.669 294.129 101.879Z" fill="#263238"/>
<path d="M309.48 126.62C309.444 126.422 311.586 125.826 315.076 125.019C315.962 124.836 316.793 124.573 316.882 123.946C317.028 123.277 316.556 122.349 316.017 121.35C314.957 119.267 313.847 117.083 312.681 114.794C308.025 105.451 304.559 97.7309 304.936 97.5472C305.314 97.3624 309.395 104.787 314.05 114.131C315.178 116.437 316.254 118.635 317.28 120.738C317.721 121.723 318.421 122.82 318.098 124.209C317.925 124.902 317.316 125.455 316.758 125.666C316.201 125.9 315.697 125.96 315.257 126.032C311.717 126.581 309.513 126.818 309.48 126.62Z" fill="#263238"/>
<path d="M293.653 88.0365C293.402 89.0254 289.854 88.9253 285.787 89.8361C281.701 90.6644 278.503 92.2033 277.871 91.4025C277.586 91.0175 278.075 90.0616 279.324 89.0023C280.562 87.9463 282.597 86.8562 285.041 86.3337C287.485 85.8156 289.788 85.9795 291.347 86.4393C292.92 86.8969 293.755 87.569 293.653 88.0365Z" fill="#263238"/>
<path d="M326.242 87.7318C325.705 88.5909 323.205 88.0068 320.294 88.2598C317.375 88.4105 314.98 89.3345 314.33 88.5579C314.04 88.1784 314.347 87.3413 315.347 86.4789C316.332 85.6209 318.042 84.8289 320.045 84.6881C322.05 84.5506 323.852 85.0984 324.946 85.8134C326.056 86.5284 326.476 87.3149 326.242 87.7318Z" fill="#263238"/>
<path d="M258.182 117.619C257.776 117.489 242.027 114.556 244.096 130.116C246.164 145.676 261.358 140.39 261.326 139.94C261.293 139.49 258.182 117.619 258.182 117.619Z" fill="#FFBF9D"/>
<path d="M255.79 134.676C255.714 134.636 255.543 134.903 255.113 135.174C254.694 135.438 253.944 135.681 253.093 135.485C251.369 135.1 249.638 132.673 249.19 129.88C248.962 128.469 249.08 127.081 249.433 125.898C249.758 124.697 250.387 123.804 251.195 123.547C251.993 123.247 252.645 123.664 252.894 124.077C253.16 124.484 253.103 124.807 253.188 124.824C253.237 124.857 253.488 124.519 253.276 123.892C253.171 123.592 252.94 123.248 252.535 122.999C252.121 122.745 251.552 122.663 250.983 122.802C249.794 123.045 248.861 124.291 248.472 125.59C248.017 126.904 247.852 128.468 248.108 130.053C248.625 133.175 250.62 135.895 252.955 136.247C254.088 136.387 254.957 135.936 255.38 135.506C255.812 135.056 255.847 134.697 255.79 134.676Z" fill="#FF9A6C"/>
<path d="M330.468 64.766C327.984 60.4837 324.001 57.2607 319.771 54.6867C310.653 49.1405 299.846 46.2013 289.212 47.1055C278.578 48.0097 268.203 52.897 261.266 61.0051C255.714 67.4929 252.497 75.8023 251.47 84.2789C250.443 92.7555 251.525 101.401 253.865 109.614C254.892 113.219 256.276 116.929 259.123 119.367C260.901 120.889 263.778 121.721 265.483 120.115C266.486 119.169 266.739 117.695 266.938 116.331C268.731 103.983 270.392 90.7326 264.814 79.5731C267.407 75.3821 270.519 71.4122 274.572 68.6105C278.626 65.8088 283.73 64.2732 288.56 65.2445C295.735 66.6877 300.702 73.0259 306.73 77.1773C315.345 83.1107 326.9 84.5187 336.688 80.8304L330.468 64.766Z" fill="#263238"/>
<path d="M312.568 136.101C312.318 137.566 312.058 139.054 311.402 140.389C310.747 141.723 309.627 142.906 308.187 143.278C306.654 143.677 304.969 143.072 303.836 141.966C302.701 140.86 302.072 139.315 301.817 137.752C301.587 136.339 301.879 134.532 303.236 134.076C303.802 133.886 304.419 133.99 305.005 134.097C307.65 134.575 310.297 135.054 312.943 135.533" fill="#FF9A6C"/>
<path d="M310.906 142.732C310.821 142.51 309.351 143.498 306.904 143.066C305.719 142.855 304.338 142.235 303.392 141.003C302.451 139.788 301.936 137.983 302.295 136.236C302.372 135.802 302.537 135.385 302.704 135.009C302.93 134.643 302.88 134.669 303.205 134.649C303.52 134.667 304.049 134.793 304.474 134.863C304.916 134.944 305.351 135.024 305.778 135.101C307.477 135.407 309.011 135.664 310.303 135.861C312.885 136.255 314.501 136.408 314.538 136.227C314.574 136.047 313.024 135.566 310.487 134.936C309.219 134.62 307.705 134.267 306.02 133.895C305.597 133.803 305.164 133.708 304.724 133.613C304.26 133.527 303.895 133.404 303.274 133.342C302.971 133.321 302.556 133.361 302.194 133.601C301.841 133.838 301.654 134.151 301.521 134.407C301.286 134.911 301.09 135.419 300.989 135.967C300.547 138.147 301.218 140.317 302.436 141.774C303.682 143.262 305.403 143.886 306.778 143.999C308.178 144.129 309.293 143.794 309.974 143.459C310.661 143.117 310.949 142.798 310.906 142.732Z" fill="#263238"/>
<path d="M345.311 47.5125C345.345 47.5037 345.45 47.8535 345.619 48.5366C345.727 49.2252 345.89 50.268 345.721 51.6056C345.467 54.2379 343.931 58.1693 340.076 61.1646C336.248 64.2017 330.195 65.4238 323.959 64.4712C317.639 63.6066 311.327 60.5706 304.721 57.8525C298.147 55.1322 291.345 53.2985 285.271 54.4117C279.201 55.4413 274.493 58.9338 271.399 62.3493C268.255 65.8044 266.496 69.2353 265.47 71.6322C264.474 74.0588 264.128 75.4822 264.026 75.4547C263.991 75.4459 264.058 75.0873 264.219 74.4086C264.355 73.7222 264.671 72.7432 265.1 71.4859C266.026 69.0131 267.712 65.4689 270.862 61.8675C273.961 58.3123 278.77 54.6196 285.109 53.4866C291.457 52.2755 298.476 54.1675 305.103 56.9087C311.762 59.6543 317.974 62.6584 324.095 63.5428C330.15 64.5174 335.954 63.402 339.642 60.5915C343.376 57.8052 344.967 54.0806 345.329 51.555C345.721 48.9667 345.177 47.5268 345.311 47.5125Z" fill="#2AB6D9"/>
<path d="M243.139 94.9137C243.03 94.9038 243.032 93.2186 243.747 90.6138C244.431 88.0156 245.915 84.5077 248.468 81.244C249.729 79.605 251.141 78.2179 252.517 77.0728C253.895 75.9266 255.388 75.0873 256.785 74.8332C258.179 74.5703 259.344 74.8475 260.035 75.1995C260.734 75.5603 260.993 75.9222 260.953 75.9651C260.909 76.118 259.463 74.8926 256.943 75.5361C254.496 76.162 251.747 78.7932 249.271 81.8699C246.811 85.0159 245.277 88.3445 244.436 90.8261C243.564 93.3077 243.308 94.9401 243.139 94.9137Z" fill="#2AB6D9"/>
<path d="M247.264 108.384C247.156 108.367 247.297 106.683 248.147 104.1C248.988 101.524 250.671 98.0927 253.338 94.8917C256.018 91.6984 259.098 89.4346 261.484 88.152C263.875 86.8573 265.507 86.4206 265.544 86.524C265.608 86.6824 264.087 87.3523 261.85 88.7713C259.611 90.1815 256.713 92.4552 254.118 95.5451C251.537 98.6438 249.813 101.899 248.82 104.352C247.822 106.805 247.43 108.421 247.264 108.384Z" fill="#2AB6D9"/>
<path d="M331.093 196.501C331.093 196.501 347.78 218.026 351.791 226.113C355.803 234.2 384.578 323.533 384.578 323.533L372.098 328.778L331.093 196.501Z" fill="#33D35E"/>
<path d="M263.951 176.352V165.563L324.582 185.276L340.827 211.275L353.345 247.584L318.247 194.838L263.951 176.352Z" fill="#EBEBEB"/>
<path d="M260.35 186.722C260.35 186.722 234.625 217.495 235.181 237.5C235.73 257.2 262.448 376.914 262.448 376.914L255.98 398.308L248.976 469.612H394.72L384.578 323.533C382.959 323.438 352.624 239.813 352.624 239.813L318.723 192.737L262.894 172.621L260.35 186.722Z" fill="#33D35E"/>
<path d="M371.413 288.74C371.413 288.74 381.607 288.337 386.93 290.713C392.253 293.089 396.757 291.901 400.522 299.266C404.288 306.632 408.684 309.958 409.611 321.126C410.537 332.294 398.475 358.152 390.511 361.787C382.548 365.42 371.413 288.74 371.413 288.74Z" fill="#33D35E"/>
<g opacity="0.3">
<path d="M257.4 287.725C257.4 287.725 316.986 343.656 324.568 349.004C332.15 354.353 333.27 388.18 342.608 388.822C351.946 389.463 382.2 367.087 382.2 367.087L292.559 282.642L257.4 287.725Z" fill="black"/>
</g>
<path d="M341.31 337.805C341.31 337.805 328.352 354.389 326.867 358.545C325.383 362.701 323.942 365.464 325.525 366.85C327.108 368.236 328.484 368.402 330.068 367.799C332.181 366.995 342.595 353.252 342.595 353.252C342.595 353.252 328.78 372.957 328.152 376.356C327.52 379.775 330.23 381.403 333.397 380.809C336.564 380.215 342.595 371.31 342.595 371.31C342.595 371.31 334.047 381.205 335.85 382.887C337.652 384.569 339.731 384.767 342.106 383.58C344.481 382.393 350.516 374.575 350.516 374.575C350.516 374.575 346.36 379.028 348.636 380.117C350.912 381.206 351.11 381.326 353.089 379.683C355.068 378.039 372.538 360.938 372.538 360.938L361.501 353.4L341.31 337.805Z" fill="#FFBF9D"/>
<path d="M346.624 347.937C346.687 347.991 345.885 349.032 344.591 350.715C343.192 352.538 341.456 354.798 339.537 357.297C337.551 359.862 335.693 362.141 334.292 363.744C332.893 365.348 331.968 366.286 331.912 366.236C331.849 366.181 332.665 365.151 333.981 363.485C335.394 361.675 337.147 359.43 339.085 356.946C341.069 354.384 342.896 352.082 344.277 350.461C345.654 348.839 346.567 347.888 346.624 347.937Z" fill="#FF9A6C"/>
<path d="M355.801 355.883C355.922 355.985 352.828 359.835 348.893 364.481C344.956 369.128 341.668 372.811 341.548 372.709C341.427 372.606 344.52 368.758 348.456 364.111C352.391 359.465 355.68 355.781 355.801 355.883Z" fill="#FF9A6C"/>
<path d="M363.161 360.862C363.277 360.968 360.036 364.699 355.92 369.193C351.804 373.689 348.374 377.245 348.257 377.138C348.14 377.032 351.381 373.302 355.497 368.806C359.613 364.312 363.044 360.755 363.161 360.862Z" fill="#FF9A6C"/>
<path d="M268.234 205.878C276.601 204.103 287.234 203.364 295.323 207.951L339.537 247.835C339.537 247.835 401.85 317.744 404.296 321.64C406.744 325.536 410.026 348.544 400.584 360.268C391.141 371.992 380.544 367.484 368.426 364.721C358.837 362.535 291.838 313.304 264.296 292.856C254.772 285.786 247.781 275.771 244.719 264.31C242.884 257.44 241.672 249.471 242.503 241.581" fill="#33D35E"/>
<path d="M242.503 241.581C242.503 241.581 242.487 241.972 242.43 242.729C242.376 243.487 242.319 244.618 242.3 246.1C242.283 249.061 242.5 253.452 243.598 258.978C244.161 261.734 244.882 264.789 246.017 268.016C247.14 271.247 248.746 274.622 250.839 278.021C252.954 281.402 255.594 284.796 258.841 287.95C262.042 291.161 266.026 293.86 270.062 296.878C286.292 308.834 305.645 323.037 327.437 338.378C332.89 342.206 338.5 346.098 344.28 349.999C350.07 353.882 355.994 357.848 362.254 361.476C363.83 362.353 365.416 363.259 367.079 363.949C367.897 364.311 368.752 364.515 369.664 364.724L372.349 365.376C375.926 366.262 379.531 367.18 383.231 367.529C386.902 367.845 390.762 367.439 394.023 365.562C397.286 363.76 400.027 360.946 402.003 357.721C405.179 352.222 406.349 345.835 406.561 339.644C406.675 336.534 406.557 333.429 406.18 330.379C405.993 328.853 405.743 327.341 405.424 325.852C405.042 324.397 404.732 322.858 403.941 321.641C402.132 319.264 400.097 316.972 398.162 314.69C396.196 312.42 394.245 310.167 392.31 307.932C388.412 303.485 384.58 299.11 380.819 294.818C365.689 277.724 351.71 261.932 339.367 247.987L339.384 248.005C321.11 231.47 306.042 217.836 295.231 208.054L295.256 208.072C291.333 205.867 287.332 205.096 283.932 204.766C280.506 204.467 277.594 204.632 275.269 204.844C272.94 205.07 271.184 205.367 270.008 205.566C269.43 205.672 268.991 205.753 268.683 205.809C268.386 205.862 268.235 205.881 268.235 205.881C268.235 205.881 268.826 205.733 269.996 205.494C271.169 205.271 272.923 204.951 275.255 204.702C277.585 204.467 280.506 204.278 283.952 204.557C287.373 204.867 291.409 205.621 295.392 207.834L295.404 207.841L295.416 207.852C306.257 217.601 321.366 231.188 339.691 247.668L339.7 247.676L339.709 247.686C352.107 261.581 366.129 277.335 381.229 294.46C384.995 298.75 388.83 303.123 392.732 307.568C394.669 309.803 396.623 312.056 398.591 314.326C400.541 316.626 402.536 318.859 404.418 321.335C404.656 321.642 404.79 322.036 404.978 322.385C405.132 322.748 405.24 323.119 405.372 323.486C405.623 324.223 405.787 324.979 405.979 325.729C406.304 327.241 406.557 328.77 406.746 330.311C407.128 333.394 407.248 336.524 407.134 339.666C406.919 345.917 405.748 352.385 402.497 358.019C400.46 361.337 397.684 364.19 394.301 366.067C390.925 368.008 386.921 368.425 383.185 368.1C379.419 367.743 375.79 366.815 372.216 365.929L369.537 365.278C368.662 365.079 367.724 364.855 366.868 364.476C365.152 363.762 363.567 362.854 361.978 361.968C355.691 358.32 349.769 354.35 343.977 350.458C338.195 346.55 332.587 342.65 327.136 338.814C305.354 323.445 286.024 309.208 269.824 297.208C265.804 294.186 261.808 291.463 258.588 288.214C255.329 285.029 252.683 281.605 250.568 278.193C248.476 274.766 246.875 271.365 245.761 268.111C244.635 264.858 243.927 261.792 243.381 259.025C242.311 253.476 242.131 249.069 242.186 246.102C242.258 243.127 242.503 241.581 242.503 241.581Z" fill="#263238"/>
<path d="M354.596 244.938C354.591 244.946 354.505 244.891 354.344 244.776C354.159 244.639 353.927 244.467 353.641 244.255C353.039 243.777 352.098 243.132 350.995 242.171C348.723 240.324 345.605 237.453 341.876 233.788C338.145 230.123 333.835 225.631 328.935 220.766C326.467 218.355 323.878 215.818 321.052 213.351C318.241 210.87 315.239 208.391 311.922 206.212C310.586 205.246 309.132 204.508 307.774 203.68L307.584 203.565L307.63 203.365C307.858 202.363 308.083 201.375 308.304 200.407L308.496 200.74C295.072 196.514 283.203 192.778 274.641 190.082C270.419 188.727 267.014 187.635 264.62 186.867C263.479 186.49 262.58 186.192 261.926 185.975C261.645 185.876 261.417 185.797 261.232 185.731C261.076 185.672 260.998 185.639 261.001 185.631C261.004 185.622 261.086 185.638 261.247 185.679C261.436 185.731 261.669 185.794 261.956 185.873C262.619 186.066 263.527 186.332 264.68 186.67C267.088 187.399 270.509 188.436 274.753 189.722C283.329 192.371 295.218 196.044 308.665 200.198L308.915 200.275L308.857 200.531C308.638 201.499 308.414 202.487 308.186 203.49L308.043 203.176C309.417 204.01 310.892 204.759 312.239 205.733C315.589 207.934 318.604 210.432 321.422 212.928C324.257 215.412 326.844 217.963 329.307 220.389C334.193 225.283 338.471 229.802 342.162 233.498C345.849 237.196 348.918 240.104 351.139 241.999C352.218 242.985 353.133 243.656 353.713 244.163C353.986 244.394 354.206 244.58 354.381 244.729C354.529 244.86 354.603 244.93 354.596 244.938Z" fill="#263238"/>
<path d="M376.477 289.967C376.455 290.039 375.996 289.191 375.234 287.717C374.449 286.158 373.37 284.015 372.05 281.397C369.389 276.046 365.756 268.634 361.779 260.432C357.802 252.226 354.234 244.781 351.682 239.379C350.442 236.722 349.427 234.549 348.688 232.967C348.367 232.25 348.106 231.668 347.902 231.21C347.728 230.805 347.645 230.59 347.663 230.581C347.681 230.572 347.798 230.772 348.006 231.161C348.236 231.606 348.529 232.173 348.889 232.87C349.668 234.432 350.739 236.579 352.048 239.203C354.7 244.631 358.308 252.019 362.295 260.182C366.232 268.367 369.796 275.775 372.414 281.22C373.665 283.871 374.689 286.04 375.434 287.619C376.134 289.123 376.526 290.003 376.477 289.967Z" fill="#263238"/>
<path d="M273.478 410.641C273.483 410.635 273.618 410.639 273.875 410.655C274.157 410.676 274.532 410.703 275.01 410.738C276.031 410.822 277.49 410.94 279.362 411.093C283.162 411.421 288.634 411.893 295.445 412.479C309.091 413.698 328.097 415.395 349.665 417.321L349.365 417.671C348.239 413.133 347.062 408.385 345.862 403.546C345.313 401.33 344.77 399.132 344.239 396.987L344.483 397.201C320.251 394.39 298.723 391.892 283.771 390.157L283.958 390.061C280.392 396.379 277.645 401.477 275.852 405.022C274.957 406.796 274.303 408.184 273.915 409.142C273.719 409.62 273.59 409.993 273.533 410.248C273.461 410.507 273.494 410.628 273.478 410.641C273.437 410.66 273.421 410.068 273.814 409.106C274.173 408.128 274.799 406.723 275.666 404.932C277.405 401.352 280.101 396.225 283.625 389.876L283.686 389.766L283.812 389.781C298.771 391.469 320.307 393.899 344.547 396.635L344.744 396.657L344.791 396.85C345.322 398.994 345.867 401.192 346.417 403.409C347.615 408.248 348.788 412.995 349.911 417.535L350.007 417.922L349.611 417.885C327.989 415.863 308.935 414.081 295.255 412.802C288.471 412.146 283.021 411.619 279.236 411.253C277.389 411.066 275.951 410.919 274.943 410.817C274.478 410.765 274.113 410.725 273.84 410.695C273.596 410.666 273.472 410.648 273.478 410.641Z" fill="#263238"/>
<g opacity="0.3">
<path d="M275.453 410.822L278.057 417.604L349.638 421.874V417.604L275.453 410.822Z" fill="black"/>
</g>
<path d="M177.031 69.7171C176.811 65.8924 173.631 62.6826 169.977 61.532C166.322 60.3814 162.326 60.9622 158.69 62.1689C150.757 64.8001 144.093 70.1945 137.62 75.48C127.578 83.6816 117.825 94.9357 113.989 107.321C111.1 116.649 110.264 122.743 113.231 132.66C115.856 141.435 117.933 149.944 117.412 157.283C116.588 168.888 115.18 171.617 112.199 183.003C110.335 190.126 116.681 208.746 116.681 208.746L156.82 193.392C171.149 186.657 201.995 174.093 201.995 174.093L177.031 69.7171Z" fill="#263238"/>
<path d="M154.462 205.815C154.525 196.053 154.622 189.257 154.616 189.328C154.616 189.328 137.093 185.284 133.562 160.286C131.807 147.853 130.89 128.091 132.223 111.492C133.422 96.5516 143.646 78.3708 158.522 80.2034L204.856 92.7643C209.374 93.3209 210.887 97.1742 210.719 101.725L211.058 103.862L207.664 175.224L209.125 205.576C208.532 219.136 195.115 231.465 181.555 232.087C166.55 232.776 154.366 220.835 154.462 205.815Z" fill="#B56760"/>
<path d="M142.713 131.393C142.624 133.08 143.98 134.547 145.741 134.672C147.499 134.796 148.999 133.534 149.087 131.846C149.175 130.159 147.819 128.69 146.063 128.565C144.3 128.441 142.801 129.707 142.713 131.393Z" fill="#263238"/>
<path d="M138.508 122.732C138.897 123.155 141.35 121.404 144.791 121.472C148.229 121.491 150.723 123.304 151.104 122.89C151.291 122.706 150.899 121.947 149.814 121.127C148.746 120.312 146.913 119.504 144.769 119.477C142.626 119.451 140.81 120.21 139.76 120.999C138.687 121.793 138.315 122.541 138.508 122.732Z" fill="#263238"/>
<path d="M174.912 131.015C174.823 132.702 176.18 134.168 177.94 134.294C179.697 134.418 181.197 133.155 181.285 131.468C181.373 129.78 180.017 128.312 178.26 128.188C176.5 128.061 175 129.327 174.912 131.015Z" fill="#263238"/>
<path d="M171.506 122.634C171.896 123.057 174.353 121.306 177.79 121.375C181.226 121.394 183.722 123.207 184.103 122.792C184.289 122.608 183.903 121.849 182.813 121.03C181.745 120.214 179.912 119.407 177.768 119.379C175.625 119.355 173.809 120.112 172.759 120.902C171.688 121.695 171.314 122.443 171.506 122.634Z" fill="#263238"/>
<path d="M157.692 148.654C157.712 148.46 155.579 148.052 152.12 147.55C151.244 147.444 150.415 147.255 150.278 146.653C150.081 146.014 150.466 145.074 150.908 144.06C151.771 141.948 152.674 139.734 153.622 137.414C157.393 127.951 160.139 120.164 159.758 120.016C159.376 119.867 156.007 127.416 152.236 136.88C151.327 139.214 150.458 141.438 149.631 143.567C149.281 144.559 148.691 145.682 149.116 147.007C149.342 147.667 149.978 148.156 150.539 148.317C151.099 148.498 151.592 148.516 152.027 148.55C155.512 148.797 157.675 148.85 157.692 148.654Z" fill="#263238"/>
<path d="M154.615 189.328C154.615 189.328 171.369 190.697 188.156 180.995C188.156 180.995 179.432 198.447 154.52 195.686L154.615 189.328Z" fill="#8A4A43"/>
<path d="M170.399 110.468C170.802 111.378 174.2 110.701 178.26 110.911C182.325 111.039 185.654 111.996 186.13 111.122C186.341 110.705 185.716 109.866 184.341 109.052C182.977 108.239 180.841 107.523 178.405 107.42C175.968 107.321 173.782 107.856 172.355 108.554C170.918 109.251 170.224 110.035 170.399 110.468Z" fill="#263238"/>
<path d="M137.541 111.99C138.244 112.783 141.062 112.021 144.435 112.041C147.807 111.96 150.653 112.673 151.324 111.867C151.619 111.475 151.182 110.684 149.947 109.923C148.73 109.165 146.684 108.527 144.366 108.546C142.049 108.568 140.028 109.242 138.842 110.022C137.637 110.805 137.232 111.603 137.541 111.99Z" fill="#263238"/>
<path d="M158.508 157.135C159.285 155.696 162.143 153.647 165.178 154.082H165.177C165.262 154.079 165.344 154.079 165.418 154.085C166.85 154.191 168.266 155.063 168.772 156.406C169.235 157.636 168.875 159.078 168.056 160.104C167.236 161.13 166.014 161.775 164.747 162.12C163.113 162.566 161.257 162.518 159.852 161.57C158.449 160.623 157.704 158.626 158.508 157.135Z" fill="#8A4A43"/>
<path d="M168.136 151.922C167.966 151.895 167.756 152.791 167.119 154.072C166.495 155.345 165.352 156.999 163.596 158.222C161.837 159.443 159.889 159.939 158.477 160.08C157.056 160.232 156.142 160.116 156.109 160.286C156.074 160.415 156.958 160.821 158.508 160.871C160.036 160.93 162.254 160.517 164.235 159.14C166.214 157.763 167.373 155.828 167.849 154.375C168.342 152.905 168.269 151.934 168.136 151.922Z" fill="#263238"/>
<path d="M131.587 140.279L126.419 119.378C121.78 112.975 125.401 102.531 128.693 95.3416C131.984 88.152 138.252 82.6465 145.23 78.9285C152.207 75.2105 159.918 73.1117 167.595 71.2175C164.748 80.5345 157.57 89.5325 149.172 94.4693C149.172 94.4693 136.441 103.166 134.146 113.425C131.636 124.639 131.587 140.279 131.587 140.279Z" fill="#263238"/>
<path d="M160.581 84.4219L196.955 106.282C196.955 106.282 198.079 122.853 204.707 138.991C211.419 133.251 215.566 144.312 217.58 135.809C217.686 135.366 215.733 153.647 208.701 154.219L207.544 174.092L242.236 165.561C242.236 165.561 240.37 141.465 234.45 126.848C230.768 117.756 228.82 110.138 225.186 101.027C222.434 94.1316 217.549 83.829 213.876 78.923C205.991 68.3894 176.812 67.923 176.812 67.923C163.947 70.959 172.608 69.5125 161.779 77.0915L158.078 87.0322" fill="#263238"/>
<path d="M204.702 138.854C204.676 133.601 210.297 129.785 215.071 132.155C217.693 133.457 219.798 136.247 219.874 141.822C220.077 156.687 204.825 153.842 204.793 153.415C204.774 153.152 204.731 145.005 204.702 138.854Z" fill="#B56760"/>
<path d="M209.343 147.717C209.41 147.669 209.611 147.895 210.059 148.089C210.497 148.278 211.246 148.402 212.033 148.101C213.626 147.501 214.939 144.988 214.975 142.307C214.995 140.954 214.689 139.669 214.186 138.61C213.708 137.529 212.981 136.78 212.173 136.651C211.369 136.482 210.804 136.962 210.625 137.384C210.428 137.802 210.528 138.097 210.448 138.125C210.406 138.162 210.119 137.88 210.232 137.265C210.29 136.969 210.464 136.616 210.815 136.324C211.175 136.029 211.707 135.873 212.269 135.925C213.439 135.987 214.505 137.026 215.059 138.189C215.676 139.356 216.053 140.799 216.03 142.319C215.974 145.317 214.45 148.143 212.268 148.795C211.207 149.083 210.313 148.781 209.849 148.436C209.376 148.076 209.292 147.744 209.343 147.717Z" fill="#8A4A43"/>
<path d="M177.921 67.8878C177.951 67.9109 177.733 68.2321 177.294 68.7821C176.842 69.3189 176.16 70.0713 175.275 70.9557C173.512 72.7322 170.971 75.0686 168.157 77.6316C165.34 80.1946 162.808 82.5277 161.012 84.2547C159.212 85.9784 158.146 87.0916 158.08 87.0344C158.05 87.008 158.284 86.6989 158.732 86.161C159.176 85.6187 159.862 84.8729 160.726 83.9687C162.456 82.1614 164.953 79.7733 167.772 77.2081C170.535 74.7045 173.034 72.4407 174.995 70.6631C176.842 68.9889 177.856 67.8383 177.921 67.8878Z" fill="#455A64"/>
<path d="M137.458 80.4871C137.433 80.464 137.762 80.0416 138.425 79.3398C139.085 78.6347 140.095 77.6612 141.448 76.581C144.142 74.4294 148.323 71.8906 153.467 70.5277C156.022 69.8479 158.682 69.6796 160.921 70.4309C163.157 71.136 164.865 72.6815 165.547 74.3392C166.25 75.9925 166.087 77.5193 165.758 78.4323C165.601 78.8998 165.396 79.2276 165.254 79.4388C165.097 79.6434 165.009 79.7435 164.992 79.7325C164.939 79.6995 165.299 79.2804 165.546 78.3663C165.797 77.4742 165.881 76.0299 165.177 74.5042C164.497 72.9873 162.884 71.5749 160.762 70.9336C158.643 70.2527 156.11 70.4177 153.612 71.081C148.568 72.4186 144.422 74.8562 141.698 76.9011C138.959 78.9625 137.538 80.5663 137.458 80.4871Z" fill="#455A64"/>
<path d="M129.134 95.4428C129.106 95.4142 129.446 95.0347 130.085 94.3736C130.725 93.7136 131.665 92.7709 132.856 91.6368C135.247 89.3939 138.648 86.293 143.065 83.8092C145.277 82.6047 147.51 81.5982 149.712 81.2407C151.898 80.8535 154.007 81.2231 155.457 82.1042C156.925 82.9633 157.75 84.1425 158.098 85.006C158.265 85.446 158.347 85.8013 158.375 86.0455C158.399 86.2908 158.402 86.4173 158.383 86.4206C158.327 86.4305 158.279 85.9124 157.895 85.0984C157.5 84.2998 156.672 83.2273 155.259 82.4584C153.862 81.6719 151.897 81.3661 149.803 81.761C147.702 82.1284 145.524 83.1228 143.345 84.3097C139.001 86.7506 135.586 89.7734 133.131 91.9349C131.977 92.9722 131.008 93.8434 130.24 94.5342C129.554 95.1458 129.161 95.4714 129.134 95.4428Z" fill="#455A64"/>
<path d="M216.22 154.865C216.318 157.734 214.071 160.138 211.203 160.236C208.334 160.334 205.929 158.088 205.831 155.219C205.733 152.35 207.979 149.946 210.848 149.848C213.716 149.75 216.122 151.996 216.22 154.865Z" fill="#455A64"/>
<path d="M120.928 303.451C119.68 304.282 105.965 307.606 102.64 316.335C99.3147 325.063 81.6696 342.805 94.4406 360.119L120.928 345.429V303.451Z" fill="#2BDAC2"/>
<path d="M94.433 360.155L94.4187 360.136C92.0988 356.991 90.6424 353.613 90.0935 350.098C89.6095 347.004 89.7943 343.825 90.6578 340.375C92.2319 334.092 95.8058 328.233 98.6757 323.525C100.385 320.721 101.862 318.3 102.614 316.326C105.335 309.183 114.996 305.656 119.123 304.15C120.03 303.818 120.686 303.579 120.911 303.43L120.953 303.401V345.448L120.939 345.455L94.433 360.155ZM120.9 303.5C120.637 303.655 120.003 303.887 119.142 304.201C115.023 305.703 105.378 309.225 102.665 316.345C101.912 318.323 100.434 320.747 98.723 323.553C95.8542 328.258 92.2836 334.114 90.7117 340.389C89.8493 343.831 89.6645 347.004 90.1474 350.09C90.6952 353.589 92.1417 356.95 94.4484 360.084L120.9 345.413V303.5Z" fill="#263238"/>
<path d="M151.478 231.104L153.648 201.156L208.163 178.41L210.099 189.585L172.962 208.481L151.478 231.104Z" fill="#E0E0E0"/>
<path d="M210.099 182.991C210.099 182.991 176.702 196.501 161.888 209.7C147.957 222.113 118.987 271.037 115.885 284.379C112.782 297.721 113.39 334.632 113.39 334.632C113.39 334.632 113.314 372.711 113.314 373.642C113.314 374.572 89.4235 436.006 93.7674 469.515H229.977C229.977 469.515 234.011 422.354 224.703 404.048C215.394 385.742 215.084 389.465 215.084 389.465C215.084 389.465 220.669 383.26 220.049 377.675C219.428 372.091 216.015 367.437 216.015 367.437L239.906 292.971C239.906 292.971 242.388 255.428 235.872 230.296C229.764 206.735 227.49 208.067 219.852 200.534C219.688 200.372 219.954 200.74 219.852 200.534L212.91 194.839L210.099 182.991Z" fill="#2BDAC2"/>
<path d="M120.927 410.641C120.501 409.034 131.241 389.969 131.241 389.969L192.804 400.304L197.088 417.603L120.927 410.641Z" fill="#2BDAC2"/>
<path d="M120.928 410.641C120.933 410.635 121.068 410.639 121.326 410.656C121.607 410.675 121.984 410.703 122.463 410.738C123.486 410.822 124.947 410.94 126.82 411.093C130.626 411.421 136.103 411.893 142.919 412.48C156.573 413.7 175.579 415.398 197.114 417.321L196.813 417.671C195.774 413.478 194.684 409.081 193.574 404.607C193.22 403.176 192.868 401.753 192.525 400.374L192.755 400.587C168.218 396.429 146.34 392.721 131.208 390.157L131.406 390.062C127.844 396.374 125.097 401.472 123.302 405.018C122.407 406.792 121.753 408.18 121.363 409.141C121.167 409.62 121.038 409.992 120.98 410.249C120.911 410.507 120.944 410.628 120.928 410.641C120.887 410.66 120.87 410.067 121.264 409.103C121.623 408.124 122.25 406.719 123.117 404.927C124.856 401.345 127.553 396.217 131.074 389.875L131.139 389.759L131.272 389.781C146.41 392.299 168.299 395.94 192.85 400.023L193.035 400.054L193.08 400.236C193.422 401.616 193.774 403.039 194.128 404.469C195.236 408.945 196.324 413.342 197.361 417.536L197.457 417.923L197.06 417.886C175.47 415.867 156.416 414.085 142.726 412.805C135.939 412.149 130.483 411.621 126.693 411.255C124.844 411.068 123.403 410.922 122.393 410.819C121.927 410.768 121.561 410.727 121.287 410.696C121.045 410.666 120.922 410.648 120.928 410.641Z" fill="#263238"/>
<g opacity="0.3">
<path d="M107.706 381.062L109.081 392.215C118.898 399.167 132.782 397.842 143.281 391.968C153.779 386.094 161.574 376.45 168.775 366.814C190.604 337.609 209.622 306.069 222.593 271.992C188.755 312.619 141.872 340.712 107.706 381.062Z" fill="black"/>
</g>
<path d="M217.68 214.512C229.113 223.61 239.074 252.074 221.38 276.682C221.38 276.682 144.049 381.597 131.242 389.97C118.436 398.343 101.197 393.417 96.2712 381.104C91.3454 368.79 93.3155 356.969 100.211 348.596C107.107 340.222 152.422 260.428 152.422 260.428C152.422 260.428 162.76 223.441 180.367 212.705" fill="#2BDAC2"/>
<path d="M180.366 212.704C180.366 212.704 180.102 212.901 179.572 213.264C179.027 213.607 178.268 214.189 177.285 214.973C175.337 216.563 172.697 219.225 169.834 223.108C164.135 230.881 157.671 243.592 152.603 260.479L152.596 260.503L152.586 260.522C142.638 278.027 130.226 299.815 115.776 324.269C112.135 330.366 108.404 336.651 104.381 342.979C103.334 344.539 102.376 346.157 101.212 347.683C100.654 348.466 100.084 349.222 99.5074 349.964C98.9376 350.716 98.4283 351.517 97.9311 352.325C96.9477 353.952 96.1689 355.702 95.4979 357.498C94.8907 359.318 94.4056 361.192 94.1339 363.115C93.6081 366.955 93.7599 370.938 94.6322 374.8C94.8478 375.767 95.0777 376.731 95.3868 377.679C95.6475 378.64 96.0127 379.569 96.3548 380.509C96.6969 381.448 97.1842 382.314 97.6033 383.217L98.4195 384.47C98.6846 384.893 98.9585 385.311 99.3017 385.678C101.824 388.774 105.263 391.19 109.138 392.463C112.991 393.766 117.2 394.183 121.282 393.513C125.041 392.896 128.654 391.43 131.707 389.254C134.641 386.916 137.156 384.035 139.679 381.277C144.677 375.677 149.387 369.963 153.972 364.319C163.121 353.011 171.738 341.932 179.893 331.34C188.044 320.744 195.718 310.619 202.87 301.121C206.435 296.364 209.878 291.77 213.188 287.354C214.837 285.141 216.452 282.973 218.032 280.852C219.591 278.715 221.219 276.692 222.521 274.539C225.389 270.389 227.259 265.911 228.666 261.613C228.966 260.519 229.261 259.441 229.553 258.378C229.847 257.317 229.951 256.229 230.155 255.18C230.605 253.084 230.631 251.004 230.809 249.012C231.067 240.991 229.415 234.137 227.381 228.901C225.324 223.638 222.783 219.985 220.857 217.742C220.362 217.19 219.969 216.659 219.555 216.278C219.143 215.896 218.797 215.575 218.515 215.313C217.958 214.793 217.681 214.514 217.681 214.514C217.681 214.514 217.983 214.762 218.555 215.269C218.843 215.526 219.197 215.842 219.617 216.216C220.041 216.592 220.441 217.118 220.946 217.667C222.908 219.895 225.491 223.545 227.59 228.82C229.665 234.068 231.36 240.951 231.13 249.025C230.958 251.03 230.939 253.126 230.494 255.238C230.292 256.294 230.191 257.389 229.898 258.459C229.608 259.531 229.314 260.618 229.016 261.721C227.612 266.055 225.74 270.572 222.861 274.763C221.548 276.943 219.928 278.965 218.374 281.105C216.798 283.23 215.188 285.403 213.544 287.619C210.242 292.042 206.808 296.644 203.252 301.408C196.116 310.92 188.456 321.056 180.314 331.663C172.168 342.266 163.559 353.354 154.411 364.674C149.825 370.325 145.114 376.044 140.107 381.659C138.864 383.071 137.57 384.448 136.258 385.819C134.921 387.166 133.601 388.54 132.05 389.716C128.904 391.959 125.225 393.447 121.375 394.081C117.201 394.766 112.899 394.341 108.954 393.006C104.989 391.701 101.457 389.226 98.8606 386.036C98.5075 385.658 98.2259 385.228 97.952 384.792L97.1116 383.501C96.6793 382.574 96.1755 381.668 95.829 380.717C95.4825 379.764 95.1129 378.821 94.8489 377.847C94.5365 376.885 94.3033 375.905 94.0844 374.924C93.2 371.002 93.046 366.949 93.585 363.039C93.8633 361.081 94.3572 359.171 94.9787 357.316C95.6629 355.485 96.4593 353.702 97.4625 352.044C97.9696 351.222 98.4899 350.406 99.0707 349.64C99.6636 348.876 100.239 348.116 100.781 347.355C101.92 345.865 102.889 344.236 103.929 342.689C107.95 336.377 111.688 330.096 115.334 324.006C129.809 299.575 142.264 277.812 152.262 260.338L152.245 260.38C157.375 243.457 163.902 230.755 169.674 222.989C172.573 219.111 175.248 216.463 177.223 214.894C178.222 214.121 178.992 213.551 179.548 213.222C180.083 212.87 180.366 212.704 180.366 212.704Z" fill="#263238"/>
<path d="M146.263 293.92C146.263 293.92 144.273 288.709 140.298 288.021C136.322 287.332 128.624 288.064 128.624 288.064C128.624 288.064 125.233 290.614 125.265 294.113C125.297 297.612 125.981 300.06 125.981 300.06C125.981 300.06 123.194 296.308 119.534 299.863C115.874 303.419 112.655 310.618 112.655 310.618C112.655 310.618 107.782 312.178 105.926 314.543C104.069 316.908 102.973 320.738 102.973 320.738C102.973 320.738 98.9837 323.165 99.6074 328.345C100.231 333.525 104.775 335.703 104.775 335.703C104.775 335.703 119.3 346.41 121.079 345.028C122.859 343.646 126.488 341.458 121.26 336.832C116.032 332.207 112.761 329.292 112.761 329.292L115.223 325.492C115.223 325.492 129.441 335.264 131.72 334.795C133.999 334.326 137.882 334.247 136.292 330.742C134.702 327.235 121.403 317.003 121.403 317.003L122.98 311.519C122.98 311.519 138.345 321.931 140.87 320.264C143.394 318.598 145.636 317.821 143.082 314.392C140.527 310.964 129.42 302.763 129.42 302.763L133.969 298.517C133.97 298.514 144.701 300.336 146.263 293.92Z" fill="#B56760"/>
<path d="M212.911 194.838C212.913 194.848 212.783 194.886 212.529 194.955C212.246 195.03 211.874 195.128 211.399 195.253C210.407 195.517 208.942 195.897 207.067 196.43C203.321 197.501 197.896 199.089 191.429 201.674C189.814 202.322 188.137 203.039 186.426 203.861C185.568 204.267 184.697 204.687 183.833 205.163C183.402 205.399 182.951 205.618 182.524 205.873C182.114 206.15 181.679 206.392 181.278 206.704C178.045 209.17 175.102 212.453 172.06 215.895C166.034 222.86 159.888 230.928 153.587 239.495C147.296 248.079 141.477 256.382 136.266 263.988C133.664 267.793 131.215 271.426 128.957 274.847C126.686 278.265 124.641 281.478 123.115 284.606C120.021 290.842 118.2 296.205 116.991 299.903C116.395 301.759 115.966 303.21 115.677 304.195C115.541 304.666 115.434 305.037 115.353 305.317C115.278 305.569 115.237 305.698 115.228 305.696C115.219 305.693 115.24 305.559 115.296 305.303C115.363 305.018 115.452 304.642 115.565 304.166C115.817 303.169 116.212 301.706 116.777 299.837C117.924 296.11 119.689 290.718 122.752 284.426C124.263 281.268 126.309 278.011 128.56 274.587C130.804 271.151 133.238 267.506 135.831 263.69C141.02 256.063 146.829 247.745 153.126 239.156C159.432 230.58 165.598 222.515 171.664 215.547C174.731 212.101 177.686 208.823 181 206.321C181.41 206.004 181.868 205.751 182.293 205.467C182.732 205.208 183.182 204.993 183.62 204.756C184.493 204.281 185.372 203.863 186.238 203.459C187.964 202.644 189.654 201.936 191.279 201.297C197.789 198.751 203.24 197.22 207.008 196.215C208.895 195.714 210.371 195.368 211.372 195.141C211.852 195.039 212.229 194.959 212.516 194.898C212.774 194.848 212.909 194.829 212.911 194.838Z" fill="#263238"/>
<path d="M204.266 382.861C204.245 382.894 203.64 382.55 202.564 381.899C201.483 381.257 199.957 380.26 198.113 378.97C194.423 376.396 189.53 372.52 184.651 367.675C179.778 362.82 175.875 357.947 173.282 354.271C171.982 352.434 170.978 350.914 170.329 349.836C169.672 348.764 169.325 348.161 169.358 348.14C169.391 348.119 169.802 348.681 170.514 349.714C171.218 350.753 172.272 352.233 173.609 354.033C176.276 357.635 180.208 362.439 185.054 367.269C189.909 372.088 194.733 375.992 198.35 378.641C200.157 379.968 201.642 381.013 202.685 381.712C203.722 382.419 204.287 382.828 204.266 382.861Z" fill="#263238"/>
<g opacity="0.3">
<path d="M122.903 410.822L124.766 417.604L194.478 417.365L122.903 410.822Z" fill="black"/>
</g>
</svg>
