<svg width="357" height="309" viewBox="0 0 357 309" fill="none" xmlns="http://www.w3.org/2000/svg">
<path d="M354.798 181.488C358.914 154.489 355.966 126.692 348.778 100.467C342.336 76.964 334.223 52.817 315.321 36.314C292.422 16.322 263.829 13.697 234.806 17.089C177.405 23.798 161.005 -0.802002 118.514 0.688998C76.023 2.18 38.749 20.071 26.822 56.599C14.895 93.127 33.531 131.145 24.586 152.764C15.64 174.382 -9.70501 196.001 5.20399 227.31C20.113 258.62 52.914 283.22 128.951 289.183C204.988 295.147 271.335 298.129 314.573 258.618C338.002 237.207 350.415 210.23 354.798 181.488Z" fill="#33D35E"/>
<path d="M66.331 295.148C81.9761 295.148 94.659 290.142 94.659 283.966C94.659 277.79 81.9761 272.784 66.331 272.784C50.6859 272.784 38.003 277.79 38.003 283.966C38.003 290.142 50.6859 295.148 66.331 295.148Z" fill="#2AB6D9"/>
<path opacity="0.5" d="M66.331 295.148C81.9761 295.148 94.659 290.142 94.659 283.966C94.659 277.79 81.9761 272.784 66.331 272.784C50.6859 272.784 38.003 277.79 38.003 283.966C38.003 290.142 50.6859 295.148 66.331 295.148Z" fill="#FDE4E4"/>
<path d="M46.059 103.204C46.059 103.204 43.898 104.465 42.817 106.446C41.736 108.427 35.433 126.616 33.452 130.758C31.471 134.9 30.57 136.341 33.092 137.781C35.613 139.222 38.855 137.061 41.016 133.099C43.177 129.137 47.139 118.151 47.859 115.63C48.58 113.109 51.102 103.564 46.059 103.204Z" fill="#2AB6D9" stroke="#2D314D" stroke-miterlimit="10" stroke-linecap="round" stroke-linejoin="round"/>
<path d="M85.049 266.652L86.537 277.317L85.545 277.813L82.569 272.108L85.049 266.652Z" fill="#2D314D" stroke="#2D314D" stroke-miterlimit="10" stroke-linecap="round" stroke-linejoin="round"/>
<path d="M54.294 202.165C54.294 202.165 57.518 217.543 60.743 227.464C63.967 237.385 74.384 260.451 75.128 264.42C75.872 268.388 74.88 268.388 74.88 271.613C74.88 274.837 70.416 278.31 70.168 280.046C69.92 281.782 73.392 282.03 76.617 281.038C79.841 280.046 82.074 277.318 82.074 275.085C82.074 272.853 85.05 268.884 85.05 266.652C85.05 264.42 81.33 264.172 81.082 259.955C80.834 255.739 79.346 240.609 76.865 231.68C74.385 222.751 71.905 218.039 69.92 215.558C67.936 213.078 65.455 207.373 65.952 205.389C66.447 203.405 54.294 202.165 54.294 202.165Z" fill="#FDE4E4" stroke="#2D314D" stroke-miterlimit="10" stroke-linecap="round" stroke-linejoin="round"/>
<path d="M82.073 275.084C82.073 272.852 85.049 268.883 85.049 266.651C85.049 265.71 84.386 265.121 83.603 264.439C82.503 267.386 80.259 272.503 76.864 275.332C74.746 277.097 73.36 277.069 72.481 276.559C71.378 277.974 70.286 279.21 70.167 280.044C69.919 281.78 73.391 282.028 76.616 281.036C79.84 280.045 82.073 277.317 82.073 275.084Z" fill="#2D314D" stroke="#2D314D" stroke-miterlimit="10" stroke-linecap="round" stroke-linejoin="round"/>
<path d="M59.999 205.638C59.999 205.638 59.007 213.823 59.007 219.031C59.007 224.239 55.995 258.591 55.039 265.163C54.11 271.544 52.311 274.34 51.319 277.812C50.327 281.284 49.335 285.005 47.599 285.997C45.863 286.989 47.599 287.981 50.575 287.733C53.551 287.485 56.527 285.997 56.776 283.269C57.024 280.541 59.381 278.143 60.992 277.068C63.968 275.084 60.248 269.131 64.464 256.234C66.317 250.566 70.913 243.089 71.905 234.408C72.897 225.727 71.161 217.79 71.161 215.806C71.161 213.822 72.897 206.381 72.897 206.381L59.999 205.638Z" fill="#FDE4E4" stroke="#2D314D" stroke-miterlimit="10" stroke-linecap="round" stroke-linejoin="round"/>
<path d="M61.746 277.487C64.966 276.262 62.634 273.507 62.362 270.504C59.774 273.011 56.309 279.519 54.294 281.533C52.867 282.96 51.114 282.826 49.881 282.455C49.259 284.12 48.538 285.46 47.598 285.997C45.862 286.989 47.598 287.981 50.574 287.733C53.55 287.485 56.526 285.997 56.775 283.269C57.022 280.541 59.935 278.176 61.746 277.487Z" fill="#2D314D" stroke="#2D314D" stroke-miterlimit="10" stroke-linecap="round" stroke-linejoin="round"/>
<path d="M62.231 275.084L62.975 285.997H60.991L59.255 278.556C59.255 278.556 60.991 274.836 62.231 275.084Z" fill="#2D314D" stroke="#2D314D" stroke-miterlimit="10" stroke-linecap="round" stroke-linejoin="round"/>
<path d="M57.765 101.403L50.201 104.285C50.201 104.285 46.059 114.19 44.618 121.394C43.177 128.598 45.158 135.981 46.599 140.484C48.04 144.986 49.841 170.919 50.561 180.824C51.281 190.729 52.722 204.956 52.722 204.956C52.722 204.956 55.964 207.477 62.447 208.738C68.93 209.999 78.115 208.018 78.115 208.018C78.115 208.018 83.518 192.35 84.598 183.166C85.679 173.981 76.674 159.034 73.793 152.551C70.912 146.068 69.831 135.623 70.371 132.561C70.911 129.5 77.755 106.268 75.413 105.187C73.073 104.104 64.608 101.043 57.765 101.403Z" fill="#2D314D" stroke="#2D314D" stroke-miterlimit="10" stroke-linecap="round" stroke-linejoin="round"/>
<path d="M57.765 95.1C57.765 95.1 57.045 100.142 56.504 102.304C55.963 104.466 51.822 112.029 53.442 115.271C55.063 118.513 60.465 118.513 62.807 112.93C65.148 107.347 64.788 100.864 64.788 100.864L65.689 95.461C65.689 95.461 59.926 97.441 57.765 95.1Z" fill="#FDE4E4" stroke="#2D314D" stroke-miterlimit="10" stroke-linecap="round" stroke-linejoin="round"/>
<path d="M79.736 87.176C78.668 85.332 76.872 85.218 75.439 85.501C78.705 82.813 80.76 78.453 77.575 72.228C73.613 64.484 64.248 66.285 64.248 66.285C64.248 66.285 58.665 65.745 55.424 70.967C52.182 76.19 53.983 83.393 56.685 85.374C59.176 87.201 67.019 89.172 71.757 87.633C68.986 90.494 67.2 94.614 69.729 98.231C72.083 101.597 76.653 102.059 79.377 98.88C82.617 95.099 81.717 90.597 79.736 87.176Z" fill="#2D314D" stroke="#2D314D" stroke-miterlimit="10" stroke-linecap="round" stroke-linejoin="round"/>
<path d="M57.321 85.783C57.321 85.783 55.153 82.198 54.6 84.669C54.047 87.14 55.085 89.004 55.805 89.459C56.525 89.914 57.23 89.754 57.23 89.754" fill="#FDE4E4"/>
<path d="M57.321 85.783C57.321 85.783 55.153 82.198 54.6 84.669C54.047 87.14 55.085 89.004 55.805 89.459C56.525 89.914 57.23 89.754 57.23 89.754" stroke="#2D314D" stroke-miterlimit="10" stroke-linecap="round" stroke-linejoin="round"/>
<path d="M57.205 79.413C57.205 79.413 53.963 92.74 58.466 97.422C62.968 102.104 68.011 94.541 72.153 88.778L73.414 84.996C73.414 84.996 72.514 83.195 69.992 79.593C67.471 75.991 66.93 74.01 66.93 74.01C66.93 74.01 62.248 79.953 57.205 79.413Z" fill="#FDE4E4" stroke="#2D314D" stroke-miterlimit="10" stroke-linecap="round" stroke-linejoin="round"/>
<path d="M71.059 88.85C71.059 88.85 74.8059 86.977 73.9539 89.361C73.1019 91.745 71.229 92.767 70.378 92.767C69.526 92.767 69.015 92.256 69.015 92.256" fill="#FDE4E4"/>
<path d="M71.059 88.85C71.059 88.85 74.8059 86.977 73.9539 89.361C73.1019 91.745 71.229 92.767 70.378 92.767C69.526 92.767 69.015 92.256 69.015 92.256" stroke="#2D314D" stroke-miterlimit="10" stroke-linecap="round" stroke-linejoin="round"/>
<path d="M64.757 84.252C64.757 84.252 66.801 82.379 69.696 84.082" stroke="#2D314D" stroke-width="0.5" stroke-miterlimit="10"/>
<path d="M62.202 82.379C62.202 82.379 60.329 80.335 58.285 81.187" stroke="#2D314D" stroke-width="0.5" stroke-miterlimit="10"/>
<path d="M61.5209 90.894L62.7129 91.405" stroke="#2D314D" stroke-width="0.5" stroke-miterlimit="10"/>
<path d="M59.6479 92.768C59.6479 92.768 61.692 94.13 64.076 93.449" stroke="#2D314D" stroke-width="0.5" stroke-miterlimit="10"/>
<path d="M62.3209 86.233C61.7509 87.626 60.0539 88.249 58.5299 87.626C57.0069 87.002 56.2339 85.368 56.8039 83.975C57.3739 82.582 59.0709 81.959 60.5949 82.582C62.1179 83.205 62.8909 84.84 62.3209 86.233Z" stroke="#2D314D" stroke-width="0.5" stroke-miterlimit="10"/>
<path d="M69.304 88.106C68.734 89.499 67.037 90.122 65.513 89.499C63.99 88.875 63.217 87.241 63.787 85.848C64.357 84.455 66.054 83.832 67.578 84.455C69.101 85.079 69.874 86.713 69.304 88.106Z" stroke="#2D314D" stroke-width="0.5" stroke-miterlimit="10"/>
<path d="M62.373 85.444L63.787 85.848" stroke="#2D314D" stroke-width="0.5" stroke-miterlimit="10"/>
<path d="M69.355 87.488L72.251 87.829" stroke="#2D314D" stroke-width="0.5" stroke-miterlimit="10"/>
<path d="M56.504 102.303C56.504 102.303 51.822 111.668 50.021 120.672C48.22 129.677 48.4 146.425 48.76 152.908C49.12 159.391 48.76 177.941 48.76 177.941L40.476 174.339C40.476 174.339 40.836 162.633 42.277 155.069C43.718 147.505 43.898 137.961 43.718 133.818C43.538 129.676 41.737 123.733 42.818 118.15C43.899 112.567 45.519 103.743 46.06 103.203C46.599 102.664 56.504 102.303 56.504 102.303Z" fill="#2AB6D9" stroke="#2D314D" stroke-miterlimit="10" stroke-linecap="round" stroke-linejoin="round"/>
<path d="M64.788 101.943C64.788 101.943 61.546 114.729 59.565 126.435C57.584 138.141 62.447 177.4 62.447 177.4C62.447 177.4 64.968 177.4 72.892 176.139C80.816 174.878 84.598 172.537 84.598 172.537C84.598 172.537 79.916 160.651 76.854 154.528C73.792 148.405 71.451 143.542 71.451 143.542C71.451 143.542 70.37 136.879 72.351 129.495C74.332 122.111 79.735 106.984 77.574 105.183C75.414 103.384 64.788 101.943 64.788 101.943Z" fill="#2AB6D9" stroke="#2D314D" stroke-miterlimit="10" stroke-linecap="round" stroke-linejoin="round"/>
<path d="M72.352 111.128C72.352 111.128 70.371 120.133 69.651 124.275C68.931 128.417 67.49 134.54 67.49 134.54C67.49 134.54 54.884 135.08 51.822 134.9C48.76 134.72 45.519 134.72 45.519 134.72L46.599 140.483C46.599 140.483 56.684 144.085 62.987 145.165C69.29 146.246 72.712 147.866 73.792 145.885C74.873 143.904 78.474 123.554 79.735 115.81C80.996 108.066 81.896 106.265 76.493 104.825" stroke="#2D314D" stroke-miterlimit="10" stroke-linecap="round" stroke-linejoin="round"/>
<path d="M59.926 129.857C59.926 129.857 66.769 128.957 67.31 128.776C67.85 128.596 74.874 131.658 74.874 131.658C74.874 131.658 74.514 132.558 73.974 132.738C73.434 132.918 69.112 130.757 69.112 130.757L68.392 130.937L73.795 134.539C73.795 134.539 74.515 135.439 73.795 135.8C73.075 136.16 67.312 132.378 67.312 132.378L72.355 137.24C72.355 137.24 71.274 137.96 70.374 137.24C69.474 136.52 67.493 134.539 67.493 134.539C67.493 134.539 69.654 137.06 68.574 137.24C67.493 137.42 65.512 134.359 65.512 134.359L62.27 133.819L58.848 133.459L59.926 129.857Z" fill="#FDE4E4" stroke="#2D314D" stroke-miterlimit="10" stroke-linecap="round" stroke-linejoin="round"/>
<path d="M49.494 129.992C49.494 129.992 44.954 124.792 44.668 124.3C44.382 123.808 37.088 121.462 37.088 121.462C37.088 121.462 36.763 122.376 37.049 122.868C37.335 123.36 42.007 124.596 42.007 124.596L42.429 125.207L35.994 124.338C35.994 124.338 34.858 124.538 35.161 125.284C35.463 126.03 42.288 127.002 42.288 127.002L35.29 127.317C35.29 127.317 35.625 128.572 36.776 128.627C37.928 128.682 40.724 128.505 40.724 128.505C40.724 128.505 37.436 128.968 38.127 129.818C38.819 130.667 42.329 129.68 42.329 129.68L45.118 131.418L47.924 133.41L49.494 129.992Z" fill="#FDE4E4" stroke="#2D314D" stroke-miterlimit="10" stroke-linecap="round" stroke-linejoin="round"/>
<path d="M36.694 129.137C36.694 129.137 54.343 129.677 56.684 129.677C59.025 129.677 59.926 129.857 59.926 129.857L58.665 138.681C58.665 138.681 54.883 139.221 45.338 139.221C35.793 139.221 31.471 139.761 31.831 136.16C32.192 132.559 36.694 129.137 36.694 129.137Z" fill="#2AB6D9" stroke="#2D314D" stroke-miterlimit="10" stroke-linecap="round" stroke-linejoin="round"/>
<path d="M117.022 302.602C132.667 302.602 145.35 297.596 145.35 291.42C145.35 285.244 132.667 280.238 117.022 280.238C101.377 280.238 88.694 285.244 88.694 291.42C88.694 297.596 101.377 302.602 117.022 302.602Z" fill="#2BDAC2"/>
<path opacity="0.5" d="M117.022 302.602C132.667 302.602 145.35 297.596 145.35 291.42C145.35 285.244 132.667 280.238 117.022 280.238C101.377 280.238 88.694 285.244 88.694 291.42C88.694 297.596 101.377 302.602 117.022 302.602Z" fill="#DDB2B2"/>
<path d="M110.449 63.007C110.449 63.007 104.565 63.383 100.788 70.514C97.011 77.645 98.831 90.509 100.152 94.461C101.473 98.413 107.72 117.408 111.29 130.662C114.86 143.916 121.3 155.709 132.803 155.287C144.306 154.865 159.838 149.516 154.762 130.12C149.686 110.724 138.903 102.736 136.804 97.787C134.705 92.838 134.198 87.72 133.249 76.948C132.3 66.177 124.931 60.233 117.555 58.08C110.178 55.929 110.449 63.007 110.449 63.007Z" fill="#2D314D" stroke="#2D314D" stroke-miterlimit="10" stroke-linecap="round" stroke-linejoin="round"/>
<path d="M132.113 94.112C133.991 95.852 134.727 95.895 134.727 95.895" stroke="#DDB2B2" stroke-width="0.5" stroke-miterlimit="10" stroke-linecap="round" stroke-linejoin="round"/>
<path d="M115.482 64.347C115.482 64.347 115.64 72.077 123.842 83.907C126.752 88.104 128.967 90.831 130.614 92.605" stroke="#DDB2B2" stroke-width="0.5" stroke-miterlimit="10" stroke-linecap="round" stroke-linejoin="round"/>
<path d="M117.375 69.553C117.375 69.553 124.789 86.905 133.307 91.795" stroke="#DDB2B2" stroke-width="0.5" stroke-miterlimit="10" stroke-linecap="round" stroke-linejoin="round"/>
<path d="M139.459 113.563C139.459 113.563 151.605 127.602 151.763 137.54C151.921 147.478 145.611 151.737 144.98 151.737" stroke="#DDB2B2" stroke-width="0.5" stroke-miterlimit="10" stroke-linecap="round" stroke-linejoin="round"/>
<path d="M145.56 115.64C148.927 122.158 152.665 131.138 151.763 137.54" stroke="#DDB2B2" stroke-width="0.5" stroke-miterlimit="10" stroke-linecap="round" stroke-linejoin="round"/>
<path d="M140.721 107.253C140.721 107.253 141.922 109.069 143.536 111.909" stroke="#DDB2B2" stroke-width="0.5" stroke-miterlimit="10" stroke-linecap="round" stroke-linejoin="round"/>
<path d="M104.282 78.386C104.282 78.386 99.649 87.82 100.152 94.461" stroke="#DDB2B2" stroke-width="0.5" stroke-miterlimit="10" stroke-linecap="round" stroke-linejoin="round"/>
<path d="M102.074 83.907C102.074 83.907 101.916 89.744 103.651 92.898" stroke="#DDB2B2" stroke-width="0.5" stroke-miterlimit="10" stroke-linecap="round" stroke-linejoin="round"/>
<path d="M143.859 173.171C143.859 173.171 141.623 178.203 141.623 179.601C141.623 180.999 141.903 187.149 142.741 186.031C143.58 184.913 142.741 180.72 143.859 180.44C144.977 180.161 145.816 180.999 144.698 184.354C143.58 187.709 142.741 191.063 144.978 189.386C147.214 187.709 147.214 185.472 148.053 180.44C148.892 175.408 147.773 171.494 147.773 171.494L143.859 173.171Z" fill="#DDB2B2" stroke="#2D314D" stroke-miterlimit="10" stroke-linecap="round" stroke-linejoin="round"/>
<path d="M136.59 99.37L141.063 140.464L149.17 171.774L142.181 174.849C142.181 174.849 132.956 149.131 130.72 144.378C128.484 139.626 127.645 135.712 127.645 133.755C127.645 131.798 136.59 99.37 136.59 99.37Z" fill="#2BDAC2" stroke="#2D314D" stroke-miterlimit="10" stroke-linecap="round" stroke-linejoin="round"/>
<path d="M96.056 213.985C96.056 213.985 97.174 219.576 97.454 222.371C97.734 225.167 96.895 235.23 98.293 244.735C99.691 254.24 106.959 282.195 106.959 282.195C106.959 282.195 99.691 288.625 99.691 291.7C99.691 294.775 101.927 294.216 105.561 291.98C109.195 289.744 112.829 284.712 113.109 281.357C113.389 278.002 110.313 258.434 111.432 249.768C112.55 241.102 110.873 226.006 110.873 219.856C110.873 213.706 110.873 213.706 110.873 213.706L96.056 213.985Z" fill="#DDB2B2" stroke="#2D314D" stroke-miterlimit="10" stroke-linecap="round" stroke-linejoin="round"/>
<path d="M104.163 288.625C103.183 288.135 103.73 286.219 104.354 284.706C102.268 286.851 99.691 289.867 99.691 291.7C99.691 294.775 101.927 294.216 105.561 291.98C108.355 290.261 111.142 286.891 112.412 283.9C109.285 287.317 105.436 289.261 104.163 288.625Z" fill="#2D314D" stroke="#2D314D" stroke-miterlimit="10" stroke-linecap="round" stroke-linejoin="round"/>
<path d="M109.754 215.942C109.754 215.942 109.474 226.006 110.593 230.199C111.711 234.392 118.7 255.918 119.818 262.347C120.936 268.776 122.054 278.281 122.054 282.754C122.054 287.227 126.247 297.291 129.043 297.85C131.839 298.409 133.516 298.409 132.677 293.936C131.838 289.463 126.527 282.475 126.527 282.475C126.527 282.475 129.323 253.961 128.204 245.015C127.086 236.069 124.011 227.124 124.011 226.285C124.011 225.446 125.409 215.103 125.409 215.103L109.754 215.942Z" fill="#DDB2B2" stroke="#2D314D" stroke-miterlimit="10" stroke-linecap="round" stroke-linejoin="round"/>
<path d="M130.611 288.802C130.27 290.211 129.644 291.42 128.484 291.42C125.688 291.42 122.893 286.668 122.893 286.668L122.751 286.912C124.06 291.657 126.945 297.431 129.043 297.85C131.839 298.409 133.516 298.409 132.677 293.936C132.388 292.393 131.563 290.554 130.611 288.802Z" fill="#2D314D" stroke="#2D314D" stroke-miterlimit="10" stroke-linecap="round" stroke-linejoin="round"/>
<path d="M108.356 94.338C108.356 94.338 88.508 98.531 88.228 99.649C87.948 100.767 94.658 135.711 94.658 137.109C94.658 138.507 86.831 156.677 86.271 167.859C85.712 179.041 89.905 216.221 89.905 216.221C89.905 216.221 98.291 219.855 106.398 219.855C114.505 219.855 128.203 217.898 128.203 217.898C128.203 217.898 134.912 196.373 135.471 178.202C136.03 160.031 127.923 137.388 127.923 137.388C127.923 137.388 136.589 100.767 136.589 99.369C136.59 97.973 118.14 93.22 108.356 94.338Z" fill="#2D314D" stroke="#2D314D" stroke-miterlimit="10" stroke-linecap="round" stroke-linejoin="round"/>
<path d="M127.924 137.389C127.924 137.389 136.59 100.768 136.59 99.37C136.59 97.972 118.14 93.22 108.356 94.338C108.356 94.338 88.508 98.531 88.228 99.649C87.948 100.767 94.658 135.711 94.658 137.109C94.658 138.105 90.686 147.615 88.199 157.045C90.754 158.402 94.769 160.28 99.69 161.709C108.356 164.225 111.711 160.591 111.711 160.591C111.711 160.591 110.872 162.548 115.904 163.107C120.362 163.602 127.888 163.432 133.824 159.889C131.593 147.646 127.924 137.389 127.924 137.389Z" fill="#2BDAC2" stroke="#2D314D" stroke-miterlimit="10" stroke-linecap="round" stroke-linejoin="round"/>
<path d="M112.173 151.92C111.767 154.655 111.472 156.478 111.472 156.478" stroke="#2D314D" stroke-miterlimit="10" stroke-linecap="round" stroke-linejoin="round"/>
<path d="M113.708 114.953C113.708 114.953 114.94 126.31 114.246 134.979C113.977 138.343 113.499 142.333 113.015 145.957" stroke="#2D314D" stroke-miterlimit="10" stroke-linecap="round" stroke-linejoin="round"/>
<path d="M110.712 92.185C110.712 92.185 105.319 93.983 102.923 96.08C100.526 98.177 96.632 101.772 96.632 101.772L106.518 102.371L113.708 114.954L118.801 102.671C118.801 102.671 122.096 102.671 124.793 102.671C127.489 102.671 129.586 103.869 129.586 103.869C129.586 103.869 122.695 94.582 118.801 92.784C114.906 90.986 110.712 92.185 110.712 92.185Z" fill="#DDB2B2" stroke="#2D314D" stroke-miterlimit="10" stroke-linecap="round" stroke-linejoin="round"/>
<path d="M107.416 88.59C107.416 88.59 108.315 101.173 110.711 104.468C113.108 107.763 116.403 99.075 116.403 95.181C116.403 91.286 116.703 85.894 116.703 85.894L107.416 88.59Z" fill="#DDB2B2" stroke="#2D314D" stroke-miterlimit="10" stroke-linecap="round" stroke-linejoin="round"/>
<path d="M88.229 99.65C88.229 99.65 76.208 139.626 76.208 142.421C76.208 145.216 79.563 148.291 82.917 146.335C86.272 144.378 92.981 125.648 92.981 125.648L88.229 99.65Z" fill="#2BDAC2" stroke="#2D314D" stroke-miterlimit="10" stroke-linecap="round" stroke-linejoin="round"/>
<path d="M72.574 125.089L85.992 151.087L104.442 153.044L93.54 121.455L72.574 125.089Z" fill="#DDB2B2" stroke="#2D314D" stroke-miterlimit="10" stroke-linecap="round" stroke-linejoin="round"/>
<path d="M88.788 141.582L93.82 132.357L99.691 130.4L100.53 131.518L97.175 133.475C97.175 133.475 101.368 133.755 102.486 133.755C103.604 133.755 103.325 135.432 103.325 135.432L102.766 136.55C102.766 136.55 103.325 140.184 103.325 141.302C103.325 142.42 91.025 146.054 91.025 146.054L88.788 141.582Z" fill="#DDB2B2" stroke="#2D314D" stroke-miterlimit="10" stroke-linecap="round" stroke-linejoin="round"/>
<path d="M89.295 138.822L93.077 149.055C93.077 149.055 85.958 152.392 80.842 152.392C75.725 152.392 73.056 145.718 75.058 142.381C77.06 139.044 89.295 138.822 89.295 138.822Z" fill="#2BDAC2" stroke="#2D314D" stroke-miterlimit="10" stroke-linecap="round" stroke-linejoin="round"/>
<path d="M112.477 66.099L103.147 77.362C103.147 77.362 102.833 85.966 107.086 92.588C112.941 101.705 120.562 83.619 120.562 83.619L112.477 66.099Z" fill="#DDB2B2" stroke="#2D314D" stroke-miterlimit="10" stroke-linecap="round" stroke-linejoin="round"/>
<path d="M108.675 80.104C108.775 80.912 108.531 81.608 108.13 81.658C107.728 81.708 107.321 81.094 107.221 80.286C107.121 79.478 107.365 78.782 107.766 78.731C108.168 78.682 108.575 79.296 108.675 80.104Z" fill="#2D314D"/>
<path d="M114.007 80.531C114.001 81.345 113.669 82.003 113.264 82C112.859 81.997 112.536 81.335 112.541 80.521C112.547 79.707 112.879 79.049 113.284 79.052C113.689 79.054 114.013 79.716 114.007 80.531Z" fill="#2D314D"/>
<path d="M108.35 87.663C108.35 87.663 110.732 88.494 112.899 87.544" stroke="#2D314D" stroke-width="0.5" stroke-miterlimit="10" stroke-linecap="round" stroke-linejoin="round"/>
<path d="M111.621 77.037C111.621 77.037 113.458 75.558 115.296 77.222" stroke="#2D314D" stroke-width="0.5" stroke-miterlimit="10" stroke-linecap="round" stroke-linejoin="round"/>
<path d="M108.865 77.407C108.865 77.407 107.579 75.559 105.742 77.222" stroke="#2D314D" stroke-width="0.5" stroke-miterlimit="10" stroke-linecap="round" stroke-linejoin="round"/>
<path d="M109.784 79.255C109.784 79.255 110.151 80.179 109.6 81.843C109.049 83.507 108.314 84.431 108.865 84.8C109.416 85.17 110.519 85.17 110.519 85.17" stroke="#2D314D" stroke-width="0.5" stroke-miterlimit="10" stroke-linecap="round" stroke-linejoin="round"/>
<path d="M289.224 293.657C310.633 293.657 327.988 288.651 327.988 282.475C327.988 276.299 310.633 271.293 289.224 271.293C267.815 271.293 250.46 276.299 250.46 282.475C250.46 288.651 267.815 293.657 289.224 293.657Z" fill="#2AB6D9"/>
<path opacity="0.5" d="M289.224 293.657C310.633 293.657 327.988 288.651 327.988 282.475C327.988 276.299 310.633 271.293 289.224 271.293C267.815 271.293 250.46 276.299 250.46 282.475C250.46 288.651 267.815 293.657 289.224 293.657Z" fill="#BF6969"/>
<path d="M284.58 81.669C284.58 81.669 282.655 79.198 281.74 80.262C280.825 81.327 283.715 87.883 284.988 87.316C286.262 86.749 284.58 81.669 284.58 81.669Z" fill="#BF6969" stroke="#2D314D" stroke-miterlimit="10" stroke-linecap="round" stroke-linejoin="round"/>
<path d="M299.929 82.012C299.929 82.012 301.749 79.61 302.711 80.71C303.672 81.81 301.06 88.263 299.762 87.648C298.463 87.033 299.929 82.012 299.929 82.012Z" fill="#BF6969" stroke="#2D314D" stroke-miterlimit="10" stroke-linecap="round" stroke-linejoin="round"/>
<path d="M286.822 97.71C286.822 97.71 283.549 99.125 283.18 101.63C282.811 104.135 284.139 157.654 284.139 157.654L306.571 158.86L305.532 100.958C305.532 100.958 301.596 97.993 296.484 97.221C291.371 96.449 286.822 97.71 286.822 97.71Z" fill="#BF6969" stroke="#2D314D" stroke-miterlimit="10" stroke-linecap="round" stroke-linejoin="round"/>
<path d="M275.486 155.516L309.84 156.752C309.84 156.752 312.949 182.238 314.433 198.912C315.917 215.586 318.128 230.986 317.899 242.574C317.67 254.163 317.954 271.515 318.009 272.133C318.064 272.751 321.649 275.265 323.924 277.223C326.199 279.181 330.985 281.017 329.403 282.127C327.821 283.237 325.747 283.544 322.118 282.892C318.488 282.24 314.276 279.756 313.175 279.189C312.074 278.622 312.074 278.622 312.074 278.622L312.011 280.279L307.872 278.618C307.872 278.618 307.171 277.825 306.614 273.924C306.057 270.023 305.185 257.867 304.727 252.721C304.269 247.575 299.506 210.591 297.691 201.995C295.876 193.399 292.237 178.483 292.237 178.483C292.237 178.483 278.27 226.915 276.5 232.996C274.73 239.077 267.357 271.892 267.239 272.931C267.121 273.97 265.231 276.336 265.286 276.953C265.341 277.571 263.432 279.73 261.924 281.664C260.415 283.598 254.059 285.352 252.385 285.432C250.712 285.513 249.982 282.033 253.318 279.391C256.654 276.749 259.727 273.5 259.727 273.5C259.727 273.5 261.312 248.821 261.243 240.968C261.174 233.115 265.806 207.255 266.668 205.146C267.531 203.037 272.305 174.069 272.305 174.069L275.486 155.516Z" fill="#2D314D" stroke="#2D314D" stroke-miterlimit="10" stroke-linecap="round" stroke-linejoin="round"/>
<path d="M286.606 103.814C286.606 103.814 290.251 126.029 290.669 128.376C291.087 130.723 285.449 177.214 285.449 177.214C285.449 177.214 281.832 178.004 276.838 176.293C271.844 174.582 267.32 172.713 267.32 172.713L276.859 143.272L268.244 103.854C268.244 103.854 270.406 102.441 275.418 100.866C280.43 99.291 286.696 98.494 286.696 98.494L286.606 103.814Z" fill="#2AB6D9" stroke="#2D314D" stroke-miterlimit="10" stroke-linecap="round" stroke-linejoin="round"/>
<path d="M290.251 108.235L292.705 111.741L289.474 153.874L294.537 159.645L297.022 154.065L294.616 112.356L297.145 107.808L293.565 102.446L290.251 108.235Z" fill="#2D314D" stroke="#2D314D" stroke-miterlimit="10" stroke-linecap="round" stroke-linejoin="round"/>
<path d="M299.685 97.84C299.685 97.84 297.271 115.686 297.331 117.094C297.391 118.502 296.78 130.241 296.827 131.336C296.874 132.431 301.797 177.179 301.797 177.179C301.797 177.179 305.805 178.11 311.327 177.316C316.849 176.522 322.727 172.911 322.727 172.911L311.633 143.513L315.876 102.238C315.876 102.238 302.886 98.46 299.685 97.84Z" fill="#2AB6D9" stroke="#2D314D" stroke-miterlimit="10" stroke-linecap="round" stroke-linejoin="round"/>
<path d="M293.359 105.835L288.784 110.226C288.784 110.226 285.811 100.06 285.744 98.495C285.677 96.93 286.384 94.894 288.09 93.952C289.796 93.009 296.654 93.778 298.275 94.557C299.896 95.336 301.167 99.089 301.167 99.089L297.547 110.99L293.359 105.835Z" fill="#BF6969" stroke="#2D314D" stroke-miterlimit="10" stroke-linecap="round" stroke-linejoin="round"/>
<path d="M287.626 90.51C287.626 90.51 288.183 96.143 289.573 98.957C290.963 101.771 292.896 106.149 293.358 105.835C293.821 105.521 297.535 99.566 297.641 98.314C297.746 97.062 298.009 92.053 298.009 92.053L287.626 90.51Z" fill="#BF6969" stroke="#2D314D" stroke-miterlimit="10" stroke-linecap="round" stroke-linejoin="round"/>
<path d="M287.927 71.753C287.927 71.753 284.821 73.596 284.384 75.344C283.948 77.093 284.236 86.008 286.113 89.885C287.99 93.762 291.461 96.955 293.175 96.981C294.889 97.007 298.831 94.334 299.385 90.393C299.939 86.452 300.452 82.275 300.25 79.638C300.048 77.002 302.201 78.183 298.93 74.723C295.658 71.265 289.838 70.061 287.927 71.753Z" fill="#BF6969" stroke="#2D314D" stroke-miterlimit="10" stroke-linecap="round" stroke-linejoin="round"/>
<path d="M290.306 84.064C290.306 84.685 290.054 85.188 289.744 85.188C289.434 85.188 289.182 84.685 289.182 84.064C289.182 83.443 289.434 82.94 289.744 82.94C290.054 82.94 290.306 83.443 290.306 84.064Z" fill="#2D314D"/>
<path d="M295.644 84.064C295.644 84.685 295.392 85.188 295.082 85.188C294.772 85.188 294.52 84.685 294.52 84.064C294.52 83.443 294.772 82.94 295.082 82.94C295.393 82.94 295.644 83.443 295.644 84.064Z" fill="#2D314D"/>
<path d="M287.777 82.237C287.777 82.237 288.62 80.832 290.306 81.815" stroke="#2D314D" stroke-width="0.5" stroke-miterlimit="10" stroke-linecap="round" stroke-linejoin="round"/>
<path d="M293.818 81.956C293.818 81.956 294.942 80.13 296.909 82.237" stroke="#2D314D" stroke-width="0.5" stroke-miterlimit="10" stroke-linecap="round" stroke-linejoin="round"/>
<path d="M293.396 83.923L293.677 88.84L291.43 88.559" stroke="#2D314D" stroke-width="0.5" stroke-miterlimit="10" stroke-linecap="round" stroke-linejoin="round"/>
<path d="M290.727 90.385C290.727 90.385 292.834 91.368 295.784 90.244" stroke="#2D314D" stroke-width="0.5" stroke-miterlimit="10" stroke-linecap="round" stroke-linejoin="round"/>
<path d="M285.708 71.578C285.708 71.578 282.646 70.489 282.144 73.62C281.643 76.751 284.263 82.38 284.263 82.38C284.263 82.38 284.679 80.971 285.399 79.248C286.119 77.525 287.666 76.583 287.084 74.08C286.502 71.576 285.708 71.578 285.708 71.578Z" fill="#2D314D" stroke="#2D314D" stroke-miterlimit="10" stroke-linecap="round" stroke-linejoin="round"/>
<path d="M286.264 73.454C286.264 73.454 287.799 75.955 292.111 76.572C296.423 77.189 298.618 76.559 299.128 77.34C299.637 78.121 299.665 82.503 299.665 82.503C299.665 82.503 301.114 82.97 301.199 81.248C301.284 79.526 302.494 78.115 302.95 77.645C303.406 77.175 305.727 75.761 303.179 71.854C300.632 67.947 297.404 66.701 291.849 66.713C286.295 66.725 282.923 69.549 286.264 73.454Z" fill="#2D314D" stroke="#2D314D" stroke-miterlimit="10" stroke-linecap="round" stroke-linejoin="round"/>
<path d="M315.875 102.238C315.875 102.238 323.847 129.849 324.389 132.739C324.931 135.629 321.651 137.288 318.247 136.056C314.843 134.824 312.62 117.069 312.62 117.069L315.875 102.238Z" fill="#2AB6D9" stroke="#2D314D" stroke-miterlimit="10" stroke-linecap="round" stroke-linejoin="round"/>
<path d="M320.992 126.757C320.992 126.757 308.12 124.512 304.769 124.519C301.418 124.526 285.353 126.005 285.353 126.005L284.753 131.582C284.753 131.582 309.285 137.107 314.128 137.717C318.971 138.327 323.78 138.11 324.276 135.012C324.772 131.913 323.664 130.47 323.664 130.47" fill="#2AB6D9"/>
<path d="M320.992 126.757C320.992 126.757 308.12 124.512 304.769 124.519C301.418 124.526 285.353 126.005 285.353 126.005L284.753 131.582C284.753 131.582 309.285 137.107 314.128 137.717C318.971 138.327 323.78 138.11 324.276 135.012C324.772 131.913 323.664 130.47 323.664 130.47" stroke="#2D314D" stroke-miterlimit="10" stroke-linecap="round" stroke-linejoin="round"/>
<path d="M268.244 103.853C268.244 103.853 268.57 119.807 268.939 128.48C269.309 137.152 271.719 140.281 276.117 140.272C280.515 140.263 276.945 115.465 276.945 115.465" fill="#2AB6D9"/>
<path d="M268.244 103.853C268.244 103.853 268.57 119.807 268.939 128.48C269.309 137.152 271.719 140.281 276.117 140.272C280.515 140.263 276.945 115.465 276.945 115.465" stroke="#2D314D" stroke-miterlimit="10" stroke-linecap="round" stroke-linejoin="round"/>
<path d="M285.353 126.005C285.353 126.005 282.141 124.36 280.256 124.364C278.371 124.368 272.866 127.89 272.892 128.509C272.918 129.128 275.886 129.948 279.638 129.528C283.39 129.107 285.711 129.516 285.711 129.516L285.353 126.005Z" fill="#BF6969" stroke="#2D314D" stroke-miterlimit="10" stroke-linecap="round" stroke-linejoin="round"/>
<path d="M306.958 121.83C306.958 121.83 309.654 121.205 311.749 121.201C313.843 121.197 316.323 125.322 316.323 125.322L308.182 125.958L306.958 121.83Z" fill="#BF6969" stroke="#2D314D" stroke-miterlimit="10" stroke-linecap="round" stroke-linejoin="round"/>
<path d="M273.592 130.159L305.248 121.008C305.248 121.008 305.85 120.387 306.959 121.83C308.068 123.273 308.182 125.958 308.182 125.958C308.182 125.958 289.493 134.67 283.735 137.159C277.976 139.649 276.049 143.576 272.959 139.866C269.869 136.155 271.831 133.054 271.831 133.054" fill="#2AB6D9"/>
<path d="M273.592 130.159L305.248 121.008C305.248 121.008 305.85 120.387 306.959 121.83C308.068 123.273 308.182 125.958 308.182 125.958C308.182 125.958 289.493 134.67 283.735 137.159C277.976 139.649 276.049 143.576 272.959 139.866C269.869 136.155 271.831 133.054 271.831 133.054" stroke="#2D314D" stroke-miterlimit="10" stroke-linecap="round" stroke-linejoin="round"/>
<path d="M248.969 303.348C264.614 303.348 277.297 298.342 277.297 292.166C277.297 285.99 264.614 280.984 248.969 280.984C233.324 280.984 220.641 285.99 220.641 292.166C220.641 298.342 233.324 303.348 248.969 303.348Z" fill="#2BDAC2"/>
<path opacity="0.5" d="M248.969 303.348C264.614 303.348 277.297 298.342 277.297 292.166C277.297 285.99 264.614 280.984 248.969 280.984C233.324 280.984 220.641 285.99 220.641 292.166C220.641 298.342 233.324 303.348 248.969 303.348Z" fill="#F1C4C4"/>
<path d="M260.048 75.678C260.048 75.678 263.658 72.068 264.109 67.255C264.56 62.442 258.995 59.885 255.235 60.036C251.475 60.186 248.768 62.443 248.768 62.443C248.768 62.443 240.045 61.992 233.427 66.955C226.809 71.918 227.712 86.808 228.163 92.373C228.614 97.938 227.862 105.157 227.862 105.157C227.862 105.157 234.63 108.015 242.301 109.067C249.972 110.12 260.349 108.315 261.402 108.014C262.455 107.713 258.394 106.811 257.792 100.945C257.19 95.079 258.694 88.311 259.296 85.153C259.898 81.994 258.845 75.828 258.845 75.828L260.048 75.678Z" fill="#2D314D" stroke="#2D314D" stroke-miterlimit="10" stroke-linecap="round" stroke-linejoin="round"/>
<path d="M259.253 62.452C259.253 62.452 257.72 67.732 256.869 69.775" stroke="#F1C4C4" stroke-width="0.5" stroke-miterlimit="10" stroke-linecap="round" stroke-linejoin="round"/>
<path d="M252.951 64.666C252.951 64.666 254.314 69.094 249.545 76.758C244.776 84.422 235.068 92.597 234.728 98.217" stroke="#F1C4C4" stroke-width="0.5" stroke-miterlimit="10" stroke-linecap="round" stroke-linejoin="round"/>
<path d="M236.942 85.444C236.942 85.444 230.981 95.492 233.536 101.624" stroke="#F1C4C4" stroke-width="0.5" stroke-miterlimit="10" stroke-linecap="round" stroke-linejoin="round"/>
<path d="M251.776 102.751C251.776 102.751 259.898 106.962 261.101 107.414C262.304 107.865 263.357 108.918 264.259 111.625C265.161 114.332 270.125 133.885 270.576 135.99C271.027 138.096 266.816 140.201 264.109 140.352C261.402 140.502 257.942 138.096 257.942 136.291C257.943 134.486 251.776 102.751 251.776 102.751Z" fill="#2BDAC2" stroke="#2D314D" stroke-miterlimit="10" stroke-linecap="round" stroke-linejoin="round"/>
<path d="M255.085 134.637C255.085 134.637 258.695 129.974 260.5 128.47C262.305 126.966 266.065 125.763 268.321 126.966C270.577 128.169 270.126 130.275 269.223 130.576C268.321 130.877 266.065 130.877 264.56 131.779C263.056 132.681 260.649 134.336 258.995 134.787C257.341 135.238 255.085 134.637 255.085 134.637Z" fill="#F1C4C4" stroke="#2D314D" stroke-miterlimit="10" stroke-linecap="round" stroke-linejoin="round"/>
<path d="M230.646 282.625L230.511 290.726H231.456L232.671 285.191L230.646 282.625Z" fill="#2D314D" stroke="#2D314D" stroke-miterlimit="10" stroke-linecap="round" stroke-linejoin="round"/>
<path d="M261.642 213.892C261.642 213.892 260.151 234.02 256.237 247.065C252.323 260.111 244.496 280.425 244.31 283.593C244.31 283.593 249.155 288.252 250.833 289.184C252.51 290.116 253.815 289.929 252.697 290.861C251.579 291.793 248.411 292.352 245.988 291.42C243.565 290.488 241.702 287.693 240.397 286.947C239.093 286.201 237.415 285.27 237.229 283.592C237.043 281.915 239.652 279.492 239.652 279.492C239.652 279.492 245.802 265.701 245.057 256.942C244.312 248.183 246.175 238.305 248.039 234.764C249.903 231.223 251.021 227.496 251.021 227.496L245.803 215.01C245.801 215.01 256.424 211.842 261.642 213.892Z" fill="#F1C4C4" stroke="#2D314D" stroke-miterlimit="10" stroke-linecap="round" stroke-linejoin="round"/>
<path d="M250.833 289.184C250.617 289.064 250.349 288.882 250.045 288.657C249.079 289.123 246.594 290.056 244.682 288.439C242.536 286.623 240.245 283.352 238.066 281.332C237.562 282.062 237.15 282.892 237.227 283.594C237.413 285.271 239.091 286.203 240.395 286.949C241.7 287.694 243.563 290.49 245.986 291.422C248.409 292.354 251.577 291.795 252.695 290.863C253.815 289.929 252.51 290.116 250.833 289.184Z" fill="#2D314D" stroke="#2D314D" stroke-miterlimit="10" stroke-linecap="round" stroke-linejoin="round"/>
<path d="M259.033 212.028C259.033 212.028 262.667 222.93 262.667 225.726C262.667 228.522 245.055 268.217 243.378 272.131C241.701 276.045 239.185 283.313 239.185 283.313C239.185 283.313 239.744 286.388 242.819 288.624C245.894 290.86 247.012 292.817 245.615 293.376C244.217 293.935 237.788 294.494 236.11 292.258C234.433 290.022 232.755 285.269 231.078 283.871C229.401 282.473 231.078 279.398 232.196 278.56C233.314 277.721 235.271 275.205 235.271 275.205C235.271 275.205 239.464 266.26 239.464 258.432C239.464 250.604 240.862 243.057 245.055 236.627C249.248 230.197 250.646 225.725 250.646 225.725L246.173 216.5C246.173 216.5 253.442 211.469 259.033 212.028Z" fill="#F1C4C4" stroke="#2D314D" stroke-miterlimit="10" stroke-linecap="round" stroke-linejoin="round"/>
<path d="M242.995 288.762C241.368 289.546 240.222 290.136 236.669 286.109C234.224 283.338 232.45 280.954 231.391 279.442C230.488 280.72 229.784 282.794 231.078 283.873C232.755 285.271 234.432 290.023 236.11 292.26C237.787 294.496 244.217 293.937 245.615 293.378C246.983 292.83 245.926 290.94 242.995 288.762Z" fill="#2D314D" stroke="#2D314D" stroke-miterlimit="10" stroke-linecap="round" stroke-linejoin="round"/>
<path d="M243.955 100.946C243.955 100.946 225.455 103.804 224.854 104.857C224.252 105.91 230.569 140.653 231.171 143.36C231.773 146.067 227.561 153.136 225.155 166.823C222.749 180.51 225.62 183.802 229.681 193.578C233.742 203.354 245.159 217.96 245.159 217.96L262.907 214.802C262.907 214.802 266.968 183.067 265.013 167.725C263.058 152.384 257.192 141.555 257.192 141.555L257.643 133.433C257.643 133.433 262.682 130.354 262.832 126.444C262.982 122.534 260.199 116.889 257.643 111.775C255.085 106.661 248.016 100.946 243.955 100.946Z" fill="#2BDAC2" stroke="#2D314D" stroke-miterlimit="10" stroke-linecap="round" stroke-linejoin="round"/>
<path d="M245.309 98.69C245.309 98.69 241.399 99.141 240.797 99.893C240.195 100.645 238.391 111.023 238.391 111.023C238.391 111.023 245.46 108.917 246.212 108.917C246.964 108.917 253.131 116.136 253.131 116.136V109.819L258.546 113.88C258.546 113.88 257.042 109.368 254.635 105.157C252.227 100.946 248.618 98.84 245.309 98.69Z" fill="#F1C4C4" stroke="#2D314D" stroke-miterlimit="10" stroke-linecap="round" stroke-linejoin="round"/>
<path d="M245.61 89.666C245.61 89.666 244.407 101.247 245.159 102.601C245.911 103.955 251.025 111.776 251.025 111.776C251.025 111.776 250.423 105.76 250.423 102C250.423 98.24 252.077 92.374 252.077 92.374L245.61 89.666Z" fill="#F1C4C4" stroke="#2D314D" stroke-miterlimit="10" stroke-linecap="round" stroke-linejoin="round"/>
<path d="M256.138 70.564C256.138 70.564 253.28 77.633 250.423 80.19C247.565 82.747 245.159 83.95 245.159 83.95C245.159 83.95 244.858 88.913 245.61 89.665C246.362 90.417 252.529 96.734 254.634 95.832C256.74 94.93 259.898 89.064 260.199 84.401C260.5 79.738 258.845 73.873 258.845 73.873L256.138 70.564Z" fill="#F1C4C4" stroke="#2D314D" stroke-miterlimit="10" stroke-linecap="round" stroke-linejoin="round"/>
<path d="M258.231 79.313C258.231 79.313 257.039 79.654 257.039 81.357C257.039 83.06 258.572 84.423 258.572 85.274C258.572 86.126 256.699 86.637 256.699 86.637" stroke="#2D314D" stroke-width="0.5" stroke-miterlimit="10" stroke-linecap="round" stroke-linejoin="round"/>
<path d="M255.506 80.1649C255.506 80.1649 254.654 78.1209 251.929 78.8019" stroke="#2D314D" stroke-width="0.5" stroke-miterlimit="10" stroke-linecap="round" stroke-linejoin="round"/>
<path d="M256.187 89.361C256.187 89.361 254.314 89.872 252.781 88.509" stroke="#2D314D" stroke-width="0.5" stroke-miterlimit="10" stroke-linecap="round" stroke-linejoin="round"/>
<path d="M253.803 81.442C253.803 82.147 253.612 82.719 253.377 82.719C253.142 82.719 252.951 82.147 252.951 81.442C252.951 80.737 253.142 80.165 253.377 80.165C253.612 80.165 253.803 80.736 253.803 81.442Z" fill="#2D314D"/>
<path d="M258.231 82.0379C258.231 82.7429 258.04 83.315 257.805 83.315C257.57 83.315 257.379 82.7429 257.379 82.0379C257.379 81.3329 257.57 80.761 257.805 80.761C258.04 80.761 258.231 81.3329 258.231 82.0379Z" fill="#2D314D"/>
<path d="M228.313 104.556C228.313 104.556 225.455 104.406 223.35 105.91C221.244 107.414 221.696 113.28 222.748 119.597C223.801 125.914 229.516 143.511 230.87 146.519C232.224 149.527 235.382 151.482 238.24 151.482C241.098 151.482 259.898 141.405 259.898 141.405L258.244 136.742C258.244 136.742 242.151 140.803 240.947 140.953C239.744 141.103 234.48 114.181 234.48 114.181" fill="#2BDAC2"/>
<path d="M228.313 104.556C228.313 104.556 225.455 104.406 223.35 105.91C221.244 107.414 221.696 113.28 222.748 119.597C223.801 125.914 229.516 143.511 230.87 146.519C232.224 149.527 235.382 151.482 238.24 151.482C241.098 151.482 259.898 141.405 259.898 141.405L258.244 136.742C258.244 136.742 242.151 140.803 240.947 140.953C239.744 141.103 234.48 114.181 234.48 114.181" stroke="#2D314D" stroke-miterlimit="10" stroke-linecap="round" stroke-linejoin="round"/>
<path d="M245.459 137.795C245.459 137.795 239.292 137.645 238.39 137.645C237.488 137.645 233.276 142.458 232.223 143.661C231.17 144.864 232.373 145.165 232.825 145.315C233.277 145.465 236.134 144.262 236.134 144.262C236.134 144.262 233.577 149.225 234.179 150.128C234.781 151.031 236.285 151.632 236.886 151.03C237.488 150.428 239.142 149.676 239.744 149.676C240.346 149.676 241.549 149.676 242.752 148.322C243.955 146.968 245.91 141.554 245.91 141.554L248.918 140.652V138.396L245.459 137.795Z" fill="#F1C4C4" stroke="#2D314D" stroke-miterlimit="10" stroke-linecap="round" stroke-linejoin="round"/>
<path d="M244.858 137.645L246.512 147.722C246.512 147.722 267.117 142.007 269.674 140.803C272.231 139.6 270.727 133.132 268.772 131.478C266.817 129.824 244.858 137.645 244.858 137.645Z" fill="#2BDAC2" stroke="#2D314D" stroke-miterlimit="10" stroke-linecap="round" stroke-linejoin="round"/>
<path d="M245.158 217.96L262.906 214.802C262.906 214.802 266.967 183.067 265.012 167.725C264.584 164.365 263.963 161.239 263.262 158.378C260.216 159.688 255.8 161.012 249.528 161.709C237.884 163.003 230.088 159.648 227.121 158.042C226.423 160.607 225.736 163.518 225.155 166.822C222.749 180.509 225.62 183.801 229.681 193.577C233.741 203.354 245.158 217.96 245.158 217.96Z" fill="#2D314D" stroke="#2D314D" stroke-miterlimit="10" stroke-linecap="round" stroke-linejoin="round"/>
<path d="M248.267 180.854C250.64 184.884 253.257 190.436 254.933 197.305" stroke="#F1C4C4" stroke-width="0.75" stroke-miterlimit="10" stroke-linecap="round" stroke-linejoin="round"/>
<path d="M242.819 173.264C242.819 173.264 244.286 174.796 246.265 177.696" stroke="#F1C4C4" stroke-width="0.75" stroke-miterlimit="10" stroke-linecap="round" stroke-linejoin="round"/>
<path d="M185.794 308.566C211.012 308.566 231.456 303.56 231.456 297.384C231.456 291.208 211.012 286.202 185.794 286.202C160.576 286.202 140.132 291.208 140.132 297.384C140.132 303.56 160.576 308.566 185.794 308.566Z" fill="#2AB6D9"/>
<path opacity="0.5" d="M185.794 308.566C211.012 308.566 231.456 303.56 231.456 297.384C231.456 291.208 211.012 286.202 185.794 286.202C160.576 286.202 140.132 291.208 140.132 297.384C140.132 303.56 160.576 308.566 185.794 308.566Z" fill="#E9D7BD"/>
<path d="M182.335 68.853C182.335 68.853 180.646 65.782 179.418 66.857C178.19 67.932 180.186 75.761 181.721 75.301C183.256 74.84 182.335 68.853 182.335 68.853Z" fill="#E9D7BD" stroke="#2D314D" stroke-miterlimit="10" stroke-linecap="round" stroke-linejoin="round"/>
<path d="M151.209 175.129C151.209 175.129 164.374 181.094 180.624 182.74C196.874 184.386 215.798 172.661 215.798 172.661C215.798 172.661 196.874 143.452 196.668 142.835C196.462 142.218 173.835 141.395 173.835 141.395L151.209 175.129Z" fill="#2D314D" stroke="#2D314D" stroke-miterlimit="10" stroke-linecap="round" stroke-linejoin="round"/>
<path d="M165.011 150.807C165.011 150.807 157.463 182.955 157.463 194.417C157.463 205.878 157.463 215.104 156.904 224.329C156.345 233.554 153.27 251.445 154.388 260.67C155.506 269.895 156.904 288.066 156.904 288.066C156.904 288.066 147.12 295.893 147.12 298.689C147.12 301.485 152.99 300.646 158.022 297.571C163.054 294.496 164.452 292.26 164.452 292.26L165.57 293.378L167.247 291.701L167.806 285.551L173.397 235.232L181.224 185.193L194.922 245.296L206.943 286.949L209.739 288.067L210.298 290.583L213.094 292.26L215.889 292.539L218.685 295.055C218.685 295.055 227.631 297.851 229.308 297.291C230.985 296.731 230.985 294.495 226.512 291.141C222.039 287.786 214.491 285.83 214.491 285.83C214.491 285.83 213.652 257.595 211.695 241.102C209.738 224.609 207.222 210.631 207.222 198.89C207.222 187.149 203.308 153.044 203.308 153.044L165.011 150.807Z" fill="#2D314D" stroke="#2D314D" stroke-miterlimit="10" stroke-linecap="round" stroke-linejoin="round"/>
<path d="M184.3 87.909L163.427 95.923L165.104 153.324C165.104 153.324 172.186 156.865 184.672 156.679C197.158 156.493 205.625 155.978 205.625 155.978L210.577 93.315L190.449 88.656C190.45 88.654 186.723 87.35 184.3 87.909Z" fill="#E9D7BD" stroke="#2D314D" stroke-miterlimit="10" stroke-linecap="round" stroke-linejoin="round"/>
<path d="M184.486 97.973L186.723 103.75L180.386 148.664L183.741 156.119L189.332 147.546L188.587 104.123L191.196 98.345L188.214 92.382L184.486 97.973Z" fill="#2D314D" stroke="#2D314D" stroke-miterlimit="10" stroke-linecap="round" stroke-linejoin="round"/>
<path d="M184.33 85.28L180.952 89.272L181.566 101.708L188.628 96.028L194.308 104.318C194.308 104.318 196.611 93.418 195.69 90.04C194.769 86.662 191.545 84.513 189.856 84.82C188.168 85.126 184.33 85.28 184.33 85.28Z" fill="#E9D7BD" stroke="#2D314D" stroke-miterlimit="10" stroke-linecap="round" stroke-linejoin="round"/>
<path d="M183.409 79.446C183.409 79.446 183.43 79.686 183.468 80.097C183.657 82.147 184.253 88.454 184.637 90.5C185.098 92.956 188.322 95.72 189.55 95.259C190.778 94.798 193.695 91.114 194.002 89.886C194.309 88.658 195.537 82.977 195.537 82.977C195.537 82.977 191.545 84.819 189.857 84.819C188.168 84.819 183.409 79.446 183.409 79.446Z" fill="#E9D7BD" stroke="#2D314D" stroke-miterlimit="10" stroke-linecap="round" stroke-linejoin="round"/>
<path d="M199.478 71.426C199.478 71.426 201.975 68.967 202.844 70.349C203.713 71.73 199.56 78.661 198.22 77.78C196.882 76.899 199.478 71.426 199.478 71.426Z" fill="#E9D7BD" stroke="#2D314D" stroke-miterlimit="10" stroke-linecap="round" stroke-linejoin="round"/>
<path d="M187.969 58.109C187.969 58.109 184.136 59.752 183.315 61.668C182.494 63.584 181.125 73.714 182.494 78.368C183.863 83.022 187.148 87.129 189.064 87.403C190.98 87.677 195.908 85.213 197.277 80.832C198.646 76.452 200.015 71.798 200.289 68.786C200.563 65.774 202.753 67.417 199.741 63.037C196.73 58.657 190.433 56.467 187.969 58.109Z" fill="#E9D7BD" stroke="#2D314D" stroke-miterlimit="10" stroke-linecap="round" stroke-linejoin="round"/>
<path d="M189.203 70.967C189.223 71.717 188.935 72.333 188.56 72.343C188.185 72.353 187.865 71.753 187.845 71.003C187.825 70.253 188.113 69.637 188.488 69.627C188.863 69.617 189.183 70.217 189.203 70.967Z" fill="#2D314D"/>
<path d="M194.528 71.334C194.548 72.084 194.26 72.7 193.885 72.71C193.51 72.72 193.19 72.12 193.17 71.37C193.15 70.62 193.438 70.004 193.813 69.994C194.189 69.984 194.508 70.584 194.528 71.334Z" fill="#2D314D"/>
<path d="M186.461 67.58C186.461 67.58 187.774 65.678 189.76 66.651" stroke="#2D314D" stroke-width="0.5" stroke-miterlimit="10" stroke-linecap="round" stroke-linejoin="round"/>
<path d="M192.702 67.181C192.702 67.181 194.437 66.342 196.378 68.602" stroke="#2D314D" stroke-width="0.5" stroke-miterlimit="10" stroke-linecap="round" stroke-linejoin="round"/>
<path d="M188.131 78.378C188.131 78.378 190.213 79.44 192.322 78.85" stroke="#2D314D" stroke-width="0.5" stroke-miterlimit="10" stroke-linecap="round" stroke-linejoin="round"/>
<path d="M192.088 69.066C192.088 69.066 193.016 75.559 192.32 75.907C191.624 76.255 190.117 75.443 190.117 75.443" stroke="#2D314D" stroke-width="0.5" stroke-miterlimit="10" stroke-linecap="round" stroke-linejoin="round"/>
<path d="M183.87 55.036C183.87 55.036 178.65 56.111 178.804 58.874C178.958 61.637 180.8 66.55 180.8 66.55C180.8 66.55 182.642 67.625 182.335 68.853C182.028 70.081 182.181 72.691 183.256 71.77C184.331 70.849 183.717 67.471 184.177 67.011C184.637 66.55 186.019 65.783 186.019 63.94C186.019 62.097 184.944 60.409 185.251 59.948C185.558 59.487 190.931 60.102 193.541 61.33C196.151 62.558 199.682 64.554 198.761 66.55C197.84 68.546 199.068 69.62 199.068 69.62C199.068 69.62 197.993 72.537 198.761 73.305C199.529 74.073 200.45 70.695 200.45 70.695C200.45 70.695 201.985 70.541 202.446 68.546C202.907 66.55 203.521 63.48 203.06 61.023C202.599 58.567 197.533 54.421 192.006 54.268C186.48 54.115 183.87 55.036 183.87 55.036Z" fill="#2D314D" stroke="#2D314D" stroke-miterlimit="10" stroke-linecap="round" stroke-linejoin="round"/>
<path d="M184.484 57.646C184.484 57.646 190.778 63.173 196.152 65.322C201.525 67.471 208.434 63.48 208.741 60.409C209.048 57.339 203.828 52.886 202.447 52.733C201.065 52.579 203.215 50.737 198.148 49.202C193.082 47.667 181.874 48.588 181.26 51.658C180.646 54.729 184.484 57.646 184.484 57.646Z" fill="#2D314D" stroke="#2D314D" stroke-miterlimit="10" stroke-linecap="round" stroke-linejoin="round"/>
<path d="M181.691 88.841C181.691 88.841 180.946 124.251 176.659 136.364C172.373 148.478 166.968 160.591 162.309 164.878C157.65 169.164 149.45 182.769 149.45 182.769C149.45 182.769 146.655 177.364 146.655 175.687C146.655 174.01 159.701 162.082 160.819 160.964C161.937 159.846 162.496 154.068 162.496 145.496C162.496 136.924 160.446 96.668 160.446 95.923C160.445 95.177 178.15 87.909 181.691 88.841Z" fill="#2AB6D9" stroke="#2D314D" stroke-miterlimit="10" stroke-linecap="round" stroke-linejoin="round"/>
<path d="M160.445 95.923C160.445 95.923 160.298 96.138 160.042 96.538C158.857 98.39 156.006 104.452 153.27 111.112C149.813 119.528 140.69 133.476 142.647 136.271C144.604 139.066 149.636 140.744 152.711 137.389C155.786 134.034 163.334 119.777 163.334 119.777C163.334 119.777 162.309 98.904 160.445 95.923Z" fill="#2AB6D9" stroke="#2D314D" stroke-miterlimit="10" stroke-linecap="round" stroke-linejoin="round"/>
<path d="M195.296 89.213C195.296 89.213 195.669 113.627 196.414 130.4C197.16 147.173 199.396 153.509 201.26 156.678C203.124 159.846 216.728 180.906 216.728 180.906C216.728 180.906 219.896 174.383 219.524 171.774C219.151 169.165 209.274 152.578 209.274 151.646C209.274 150.714 213.56 95.736 212.815 94.245C212.069 92.754 195.296 89.213 195.296 89.213Z" fill="#2AB6D9" stroke="#2D314D" stroke-miterlimit="10" stroke-linecap="round" stroke-linejoin="round"/>
<path d="M177.777 91.077L172.373 104.495L176.659 108.782L172 114L174.609 133.941" stroke="#2D314D" stroke-miterlimit="10" stroke-linecap="round" stroke-linejoin="round"/>
<path d="M197.905 91.263L202.937 103.191L197.346 106.545L202.937 115.305L197.532 129.468" stroke="#2D314D" stroke-miterlimit="10" stroke-linecap="round" stroke-linejoin="round"/>
<path d="M165.011 162.269L165.949 164.709L159.305 169.835L157.217 165.089L165.011 162.269Z" fill="#E9D7BD" stroke="#2D314D" stroke-miterlimit="10" stroke-linecap="round" stroke-linejoin="round"/>
<path d="M151.872 132.357L165.011 162.269L155.227 169.817C155.227 169.817 140.97 139.905 140.97 137.389C140.97 134.873 144.045 129.841 145.443 129.002" fill="#2AB6D9"/>
<path d="M151.872 132.357L165.011 162.269L155.227 169.817C155.227 169.817 140.97 139.905 140.97 137.389C140.97 134.873 144.045 129.841 145.443 129.002" stroke="#2D314D" stroke-miterlimit="10" stroke-linecap="round" stroke-linejoin="round"/>
<path d="M165.949 164.709L168.228 165.848L161.963 174.391L159.305 169.835L165.949 164.709Z" fill="#E9D7BD" stroke="#2D314D" stroke-miterlimit="10" stroke-linecap="round" stroke-linejoin="round"/>
<path d="M200.735 162.703L199.558 165.037L205.657 170.801L208.209 166.287L200.735 162.703Z" fill="#E9D7BD" stroke="#2D314D" stroke-miterlimit="10" stroke-linecap="round" stroke-linejoin="round"/>
<path d="M212.814 94.245C212.814 94.245 215.688 97.316 216.067 100.163C216.447 103.011 226.508 136.422 226.888 137.941C227.268 139.46 223.471 141.928 219.674 142.497C215.877 143.067 211.131 128.259 211.131 128.259L212.814 94.245Z" fill="#2AB6D9" stroke="#2D314D" stroke-miterlimit="10" stroke-linecap="round" stroke-linejoin="round"/>
<path d="M216.799 134.254L200.736 162.702L209.717 171.19C209.717 171.19 226.893 142.853 227.144 140.35C227.396 137.847 224.839 132.533 223.532 131.558" fill="#2AB6D9"/>
<path d="M216.799 134.254L200.736 162.702L209.717 171.19C209.717 171.19 226.893 142.853 227.144 140.35C227.396 137.847 224.839 132.533 223.532 131.558" stroke="#2D314D" stroke-miterlimit="10" stroke-linecap="round" stroke-linejoin="round"/>
<path d="M199.558 165.037L197.177 165.942L202.557 175.069L205.657 170.801L199.558 165.037Z" fill="#E9D7BD" stroke="#2D314D" stroke-miterlimit="10" stroke-linecap="round" stroke-linejoin="round"/>
</svg>
