<svg width="360" height="300" viewBox="0 0 360 300" fill="none" xmlns="http://www.w3.org/2000/svg">
<path d="M341.205 48.5126C341.205 48.5126 319.309 7.37446 270.954 1.27966C222.601 -4.81514 188.845 24.8957 153.263 40.1327C134.63 48.1121 113.347 45.0125 93.5663 48.8744C30.3161 61.2233 6.48857 138.593 32.8352 182.592C55.6439 220.683 95.7866 240.49 156.913 245.061C218.039 249.632 260.919 254.964 315.659 217.635C370.4 180.307 366.75 102.602 341.205 48.5126Z" fill="#2D314D"/>
<path opacity="0.8" d="M341.205 48.5126C341.205 48.5126 319.309 7.37446 270.954 1.27966C222.601 -4.81514 188.845 24.8957 153.263 40.1327C134.63 48.1121 113.347 45.0125 93.5663 48.8744C30.3161 61.2233 6.48857 138.593 32.8352 182.592C55.6439 220.683 95.7866 240.49 156.913 245.061C218.039 249.632 260.919 254.964 315.659 217.635C370.4 180.307 366.75 102.602 341.205 48.5126Z" fill="#2D314D"/>
<path d="M179.782 299.553C278.846 299.553 359.154 291.589 359.154 281.765C359.154 271.94 278.846 263.976 179.782 263.976C80.7175 263.976 0.409973 271.94 0.409973 281.765C0.409973 291.589 80.7175 299.553 179.782 299.553Z" fill="#2AB6D9"/>
<path opacity="0.5" d="M179.782 299.553C278.846 299.553 359.154 291.589 359.154 281.765C359.154 271.94 278.846 263.976 179.782 263.976C80.7175 263.976 0.409973 271.94 0.409973 281.765C0.409973 291.589 80.7175 299.553 179.782 299.553Z" fill="white"/>
<path d="M357.5 189.233H22.7003V192.282H357.5V189.233Z" fill="#263238"/>
<path d="M258.093 151.961C258.676 152.216 260.102 152.184 260.102 152.184C260.117 152.184 259.796 151.25 259.769 151.194C259.457 150.54 258.468 149.46 257.663 149.569C257.084 149.647 256.761 150.228 256.892 150.773C257.025 151.33 257.597 151.744 258.093 151.961Z" fill="#263238"/>
<path d="M276.763 147.109C275.956 147.022 274.996 148.129 274.701 148.791C274.676 148.849 274.38 149.79 274.395 149.79C274.395 149.79 274.409 149.79 274.412 149.79C274.259 149.963 274.097 150.15 273.925 150.359C273.609 150.747 273.257 151.188 272.904 151.695C272.551 152.2 272.181 152.759 271.845 153.381C271.508 154.006 271.184 154.68 270.941 155.417C270.938 155.425 270.936 155.434 270.934 155.443C270.938 155.206 270.927 154.54 270.921 154.489C270.828 153.77 270.225 152.436 269.426 152.288C268.851 152.182 268.364 152.633 268.318 153.192C268.272 153.763 268.686 154.335 269.09 154.695C269.545 155.102 270.81 155.496 270.91 155.527C270.685 156.232 270.511 156.973 270.376 157.733C270.298 158.168 270.234 158.607 270.174 159.05C270.171 158.844 270.167 158.66 270.163 158.634C270.07 157.915 269.468 156.58 268.669 156.432C268.094 156.326 267.607 156.777 267.561 157.336C267.515 157.908 267.929 158.479 268.333 158.84C268.743 159.206 269.814 159.564 270.099 159.654C270.078 159.825 270.054 159.994 270.035 160.164C269.937 160.978 269.844 161.792 269.728 162.588C269.687 162.868 269.636 163.142 269.586 163.417C269.584 163.235 269.579 163.081 269.577 163.057C269.483 162.338 268.881 161.004 268.083 160.856C267.507 160.75 267.02 161.2 266.974 161.76C266.927 162.331 267.341 162.903 267.745 163.263C268.136 163.613 269.122 163.952 269.46 164.062C269.4 164.342 269.342 164.622 269.271 164.891C269.219 165.073 269.182 165.252 269.119 165.432C269.062 165.612 269.004 165.79 268.947 165.966C268.825 166.301 268.702 166.648 268.575 166.972C268.488 167.198 268.401 167.412 268.315 167.628C268.359 167.349 268.434 166.802 268.434 166.755C268.445 166.274 268.274 165.491 267.934 164.94C267.936 164.869 267.932 164.798 267.921 164.728C267.831 164.173 267.311 163.762 266.745 163.912C265.96 164.121 265.463 165.498 265.426 166.223C265.424 166.265 265.452 166.731 265.474 167.025C265.435 166.854 265.399 166.689 265.356 166.513C265.273 166.166 265.181 165.822 265.083 165.452C265.03 165.275 264.975 165.096 264.921 164.916C264.87 164.736 264.794 164.551 264.731 164.367C264.575 163.943 264.398 163.52 264.209 163.099C264.512 163.026 265.588 162.752 266.019 162.421C266.448 162.092 266.904 161.552 266.9 160.979C266.896 160.418 266.444 159.933 265.862 159.996C265.055 160.083 264.355 161.369 264.208 162.079C264.199 162.123 264.151 162.644 264.131 162.931C264.015 162.678 263.901 162.426 263.776 162.174C263.415 161.448 263.027 160.724 262.644 159.999C262.526 159.778 262.412 159.555 262.296 159.333C262.404 159.309 263.69 159.01 264.173 158.639C264.602 158.31 265.059 157.77 265.054 157.197C265.05 156.636 264.598 156.15 264.016 156.213C263.209 156.3 262.509 157.586 262.362 158.296C262.351 158.349 262.284 159.1 262.276 159.292C262.021 158.802 261.773 158.313 261.547 157.819C261.234 157.139 260.965 156.455 260.754 155.773C260.804 155.761 262.146 155.456 262.642 155.076C263.071 154.747 263.528 154.207 263.523 153.634C263.52 153.073 263.067 152.588 262.485 152.651C261.678 152.738 260.978 154.024 260.831 154.734C260.82 154.79 260.748 155.597 260.745 155.744C260.732 155.703 260.715 155.663 260.703 155.622C260.487 154.891 260.369 154.155 260.292 153.462C260.247 153.058 260.226 152.67 260.215 152.292C260.47 152.261 261.638 152.106 262.121 151.813C262.584 151.532 263.097 151.046 263.155 150.476C263.213 149.918 262.817 149.385 262.232 149.385C261.42 149.383 260.582 150.584 260.359 151.274C260.347 151.311 260.265 151.707 260.21 151.995C260.208 151.824 260.201 151.648 260.202 151.484C260.203 150.87 260.242 150.308 260.28 149.81C260.305 149.528 260.332 149.272 260.361 149.034C260.595 148.872 261.535 148.209 261.824 147.736C262.106 147.273 262.336 146.606 262.125 146.073C261.919 145.551 261.323 145.261 260.802 145.529C260.082 145.902 259.892 147.354 260.01 148.069C260.021 148.131 260.293 149.079 260.306 149.07C260.306 149.07 260.317 149.062 260.32 149.061C260.289 149.289 260.257 149.536 260.228 149.805C260.179 150.303 260.127 150.866 260.113 151.482C260.097 152.097 260.097 152.767 260.161 153.472C260.224 154.18 260.325 154.92 260.53 155.669C260.532 155.677 260.536 155.686 260.538 155.694C260.41 155.494 260.034 154.945 260.001 154.906C259.526 154.358 258.287 153.577 257.54 153.894C257.002 154.123 256.844 154.767 257.114 155.26C257.391 155.762 258.051 156.01 258.588 156.089C259.192 156.177 260.464 155.808 260.565 155.778C260.766 156.49 261.029 157.205 261.336 157.913C261.511 158.318 261.7 158.72 261.894 159.122C261.778 158.952 261.673 158.8 261.657 158.781C261.182 158.232 259.943 157.451 259.196 157.769C258.658 157.998 258.5 158.642 258.77 159.134C259.047 159.636 259.707 159.885 260.244 159.963C260.787 160.042 261.878 159.75 262.166 159.668C262.242 159.821 262.316 159.975 262.394 160.128C262.762 160.861 263.133 161.591 263.475 162.319C263.595 162.576 263.704 162.832 263.815 163.089C263.711 162.938 263.623 162.812 263.608 162.794C263.133 162.246 261.894 161.464 261.147 161.782C260.609 162.011 260.451 162.655 260.721 163.147C260.998 163.65 261.658 163.898 262.195 163.976C262.714 164.052 263.723 163.791 264.065 163.695C264.17 163.962 264.276 164.228 264.366 164.491C264.423 164.672 264.491 164.842 264.537 165.027C264.588 165.208 264.638 165.388 264.688 165.567C264.771 165.913 264.859 166.271 264.932 166.611C264.984 166.848 265.03 167.074 265.077 167.302C264.96 167.045 264.72 166.548 264.695 166.509C264.309 165.895 263.203 164.936 262.416 165.136C261.849 165.281 261.595 165.894 261.789 166.422C261.986 166.96 262.602 167.305 263.119 167.464C263.69 167.638 264.951 167.479 265.109 167.457C265.185 167.835 265.255 168.203 265.315 168.55C265.527 169.756 265.659 170.769 265.741 171.477C265.755 171.603 265.768 171.715 265.779 171.821H263.335L264.228 189.231H268.392L269.284 171.821H267.007C267.024 171.786 267.039 171.753 267.057 171.716C267.37 171.066 267.803 170.13 268.271 168.986C268.419 168.625 268.571 168.235 268.723 167.835C268.876 167.866 270.126 168.12 270.709 167.988C271.237 167.869 271.877 167.57 272.113 167.048C272.344 166.537 272.137 165.906 271.583 165.72C270.813 165.461 269.638 166.335 269.208 166.918C269.182 166.953 268.948 167.357 268.805 167.614C268.866 167.45 268.928 167.291 268.989 167.122C269.112 166.787 269.225 166.449 269.347 166.086C269.4 165.909 269.453 165.729 269.508 165.549C269.566 165.37 269.604 165.175 269.653 164.986C269.757 164.547 269.842 164.096 269.918 163.641C270.211 163.748 271.259 164.112 271.801 164.073C272.341 164.036 273.019 163.837 273.332 163.356C273.638 162.886 273.529 162.231 273.009 161.963C272.287 161.59 270.994 162.277 270.479 162.788C270.447 162.82 270.119 163.228 269.944 163.456C269.987 163.182 270.031 162.908 270.066 162.629C270.166 161.823 270.243 161.006 270.322 160.19C270.346 159.94 270.373 159.691 270.399 159.442C270.504 159.481 271.739 159.942 272.347 159.898C272.887 159.861 273.564 159.662 273.878 159.182C274.184 158.712 274.075 158.057 273.555 157.789C272.833 157.416 271.539 158.103 271.026 158.614C270.987 158.653 270.516 159.241 270.405 159.396C270.462 158.848 270.525 158.302 270.609 157.766C270.723 157.026 270.877 156.307 271.077 155.622C271.125 155.64 272.413 156.126 273.035 156.082C273.575 156.045 274.253 155.846 274.566 155.365C274.872 154.895 274.763 154.24 274.243 153.972C273.521 153.599 272.228 154.286 271.714 154.797C271.674 154.838 271.168 155.47 271.084 155.592C271.096 155.551 271.104 155.507 271.116 155.467C271.34 154.738 271.647 154.059 271.966 153.437C272.151 153.075 272.348 152.741 272.547 152.419C272.777 152.535 273.836 153.048 274.401 153.072C274.942 153.093 275.638 152.971 276.002 152.527C276.358 152.094 276.321 151.431 275.834 151.107C275.157 150.658 273.797 151.198 273.23 151.65C273.199 151.674 272.913 151.959 272.708 152.169C272.799 152.025 272.891 151.875 272.982 151.739C273.321 151.228 273.664 150.78 273.971 150.386C274.148 150.164 274.311 149.966 274.466 149.782C274.752 149.777 275.9 149.743 276.403 149.507C276.893 149.277 277.453 148.847 277.572 148.287C277.683 147.744 277.344 147.172 276.763 147.109ZM267.824 168.8C267.336 169.923 266.887 170.84 266.565 171.476C266.5 171.605 266.442 171.717 266.387 171.822H266.333C266.317 171.698 266.3 171.562 266.278 171.41C266.18 170.695 266.025 169.676 265.784 168.464C265.708 168.08 265.62 167.673 265.527 167.254C265.621 167.216 266.16 166.998 266.637 166.732C267.053 167.182 268.118 167.709 268.255 167.776C268.11 168.132 267.966 168.476 267.824 168.8Z" fill="#263238"/>
<path d="M272.509 152.274C272.521 152.283 272.768 151.328 272.777 151.266C272.877 150.547 272.648 149.101 271.917 148.748C271.39 148.494 270.801 148.8 270.609 149.327C270.413 149.865 270.661 150.527 270.955 150.981C271.302 151.515 272.509 152.274 272.509 152.274Z" fill="#263238"/>
<path d="M64.9265 153.794C65.4809 154.036 66.8363 154.005 66.8363 154.005C66.8507 154.005 66.5447 153.118 66.5195 153.064C66.2225 152.442 65.282 151.415 64.517 151.518C63.9662 151.593 63.6593 152.145 63.7835 152.663C63.9113 153.194 64.4549 153.588 64.9265 153.794Z" fill="#263238"/>
<path d="M82.6789 149.181C81.9112 149.098 80.9995 150.15 80.7188 150.78C80.6945 150.835 80.4136 151.73 80.4271 151.73C80.4271 151.73 80.4407 151.73 80.4433 151.73C80.2985 151.895 80.1437 152.074 79.9799 152.272C79.6793 152.641 79.3435 153.06 79.0087 153.542C78.673 154.021 78.322 154.553 78.0025 155.145C77.6812 155.739 77.3735 156.38 77.1422 157.081C77.1395 157.089 77.1376 157.098 77.1349 157.106C77.1394 156.88 77.1286 156.247 77.1223 156.198C77.0332 155.514 76.4609 154.245 75.7013 154.105C75.1541 154.004 74.6914 154.433 74.6473 154.965C74.6032 155.508 74.9965 156.052 75.3808 156.395C75.8138 156.782 77.0161 157.156 77.1115 157.186C76.8973 157.855 76.7317 158.561 76.6039 159.284C76.5301 159.697 76.4689 160.115 76.4122 160.536C76.4095 160.34 76.405 160.165 76.4023 160.14C76.3132 159.456 75.7408 158.187 74.9812 158.047C74.434 157.946 73.9714 158.375 73.9273 158.907C73.8832 159.45 74.2765 159.994 74.6608 160.337C75.0505 160.685 76.0693 161.024 76.3402 161.112C76.3204 161.273 76.2989 161.434 76.2791 161.596C76.1864 162.371 76.0972 163.144 75.9865 163.9C75.9478 164.166 75.9002 164.427 75.8525 164.688C75.8498 164.514 75.8461 164.368 75.8434 164.346C75.7552 163.662 75.1819 162.393 74.4223 162.253C73.8751 162.152 73.4125 162.58 73.3684 163.112C73.3243 163.656 73.7176 164.199 74.1019 164.542C74.4736 164.874 75.4114 165.197 75.7318 165.301C75.6751 165.567 75.6193 165.834 75.5527 166.089C75.5032 166.263 75.4681 166.433 75.4087 166.604C75.3538 166.775 75.2989 166.944 75.2449 167.112C75.1288 167.43 75.0109 167.76 74.8903 168.069C74.8075 168.284 74.7256 168.487 74.6428 168.692C74.6842 168.428 74.7554 167.907 74.7562 167.863C74.767 167.405 74.6041 166.661 74.2801 166.137C74.2819 166.07 74.2783 166.002 74.2675 165.935C74.1829 165.407 73.6879 165.017 73.1506 165.16C72.4045 165.359 71.9311 166.668 71.896 167.357C71.8942 167.397 71.9203 167.841 71.9419 168.12C71.9041 167.958 71.8699 167.799 71.8294 167.633C71.7511 167.303 71.6629 166.976 71.5702 166.624C71.5198 166.456 71.4676 166.286 71.4154 166.114C71.3677 165.942 71.2948 165.767 71.2354 165.592C71.0878 165.189 70.9186 164.786 70.7395 164.386C71.0284 164.316 72.0499 164.056 72.4603 163.741C72.8689 163.428 73.3018 162.915 73.2982 162.37C73.2946 161.836 72.8644 161.374 72.3118 161.435C71.5441 161.518 70.8781 162.741 70.7386 163.416C70.7296 163.459 70.6846 163.955 70.6648 164.227C70.555 163.987 70.447 163.747 70.3282 163.507C69.9853 162.816 69.6163 162.128 69.2518 161.439C69.1402 161.229 69.0313 161.017 68.9215 160.806C69.025 160.782 70.2463 160.499 70.7053 160.146C71.1139 159.833 71.5468 159.32 71.5432 158.774C71.5396 158.241 71.1094 157.779 70.5559 157.839C69.7882 157.923 69.1222 159.145 68.9827 159.82C68.9719 159.871 68.908 160.584 68.9008 160.767C68.6587 160.302 68.422 159.835 68.2078 159.366C67.9108 158.72 67.6552 158.07 67.4545 157.421C67.5022 157.41 68.7784 157.12 69.2491 156.758C69.6577 156.445 70.0906 155.932 70.087 155.387C70.0834 154.853 69.6532 154.391 69.1006 154.452C68.3329 154.534 67.6669 155.757 67.5274 156.432C67.5166 156.486 67.4473 157.253 67.4446 157.393C67.4329 157.354 67.4158 157.315 67.405 157.277C67.1989 156.581 67.0873 155.882 67.0144 155.222C66.9712 154.839 66.9514 154.47 66.9406 154.11C67.1836 154.081 68.2942 153.933 68.7532 153.655C69.1933 153.389 69.6811 152.926 69.7369 152.384C69.7918 151.853 69.4147 151.347 68.8585 151.346C68.0863 151.344 67.2898 152.487 67.0774 153.142C67.0657 153.178 66.9883 153.553 66.9361 153.828C66.9334 153.666 66.928 153.498 66.9289 153.343C66.9298 152.759 66.9667 152.224 67.0036 151.752C67.0261 151.482 67.0522 151.24 67.0792 151.014C67.3024 150.86 68.1952 150.23 68.4706 149.779C68.7388 149.34 68.9575 148.704 68.7577 148.197C68.5615 147.701 67.9936 147.425 67.5004 147.681C66.8146 148.035 66.6337 149.416 66.7471 150.096C66.757 150.155 67.0162 151.057 67.0279 151.049C67.0279 151.049 67.0387 151.041 67.0414 151.04C67.0117 151.257 66.9811 151.491 66.9541 151.747C66.9073 152.22 66.8587 152.756 66.8452 153.342C66.8299 153.928 66.8299 154.564 66.8902 155.235C66.9496 155.907 67.0468 156.612 67.2412 157.323C67.2439 157.332 67.2466 157.34 67.2493 157.348C67.1278 157.157 66.7705 156.635 66.7381 156.598C66.2872 156.077 65.1091 155.334 64.3981 155.636C63.886 155.854 63.7366 156.467 63.9931 156.934C64.2559 157.412 64.8841 157.647 65.3935 157.722C65.9677 157.806 67.1773 157.455 67.2736 157.427C67.4644 158.104 67.7155 158.783 68.0071 159.456C68.1736 159.842 68.3527 160.224 68.5381 160.606C68.4274 160.444 68.3275 160.301 68.3122 160.282C67.8613 159.761 66.6832 159.018 65.9722 159.32C65.4601 159.537 65.3107 160.149 65.5672 160.617C65.83 161.095 66.4582 161.331 66.9676 161.406C67.4851 161.481 68.5219 161.202 68.7955 161.126C68.8675 161.272 68.9386 161.418 69.0115 161.563C69.3616 162.261 69.7144 162.955 70.0393 163.647C70.1536 163.891 70.258 164.135 70.3624 164.379C70.2643 164.235 70.1806 164.115 70.1653 164.098C69.7144 163.577 68.5363 162.834 67.8253 163.136C67.3132 163.353 67.1638 163.966 67.4203 164.433C67.6831 164.911 68.3113 165.147 68.8207 165.222C69.3139 165.294 70.2733 165.045 70.5991 164.955C70.699 165.208 70.7998 165.462 70.8844 165.711C70.9384 165.883 71.0032 166.045 71.0482 166.221C71.0968 166.394 71.1445 166.565 71.1913 166.735C71.2705 167.065 71.3542 167.404 71.4235 167.728C71.473 167.953 71.5162 168.168 71.5612 168.384C71.4496 168.141 71.2219 167.668 71.1985 167.63C70.8313 167.047 69.7801 166.134 69.0313 166.325C68.4922 166.463 68.251 167.046 68.4346 167.547C68.6218 168.06 69.2068 168.388 69.6991 168.538C70.2409 168.704 71.4415 168.553 71.5918 168.533C71.6638 168.892 71.7304 169.241 71.788 169.572C71.9896 170.718 72.1147 171.68 72.193 172.354C72.2065 172.474 72.2182 172.581 72.229 172.682H69.9052L70.7539 189.237H74.713L75.5617 172.682H73.3972C73.4134 172.649 73.4287 172.617 73.4449 172.583C73.7419 171.964 74.1541 171.075 74.5987 169.986C74.74 169.643 74.884 169.273 75.0289 168.892C75.1738 168.923 76.3627 169.164 76.9162 169.039C77.4184 168.925 78.0269 168.641 78.2519 168.145C78.4724 167.659 78.2752 167.06 77.7478 166.882C77.0161 166.637 75.8993 167.467 75.4898 168.023C75.4655 168.055 75.2431 168.439 75.1072 168.684C75.1657 168.528 75.2242 168.377 75.2818 168.216C75.3988 167.898 75.5059 167.576 75.622 167.232C75.6724 167.063 75.7238 166.892 75.7751 166.72C75.83 166.551 75.866 166.365 75.9128 166.186C76.0127 165.768 76.0928 165.34 76.1648 164.906C76.4438 165.008 77.44 165.354 77.9557 165.317C78.4696 165.281 79.114 165.092 79.411 164.636C79.7026 164.189 79.5982 163.567 79.1041 163.311C78.4183 162.957 77.188 163.61 76.6993 164.096C76.6687 164.127 76.3573 164.514 76.1908 164.731C76.2322 164.47 76.2736 164.21 76.3069 163.946C76.4023 163.18 76.4743 162.402 76.5499 161.626C76.5733 161.389 76.5985 161.152 76.6237 160.915C76.7227 160.952 77.8972 161.39 78.4759 161.349C78.9898 161.313 79.6342 161.124 79.9312 160.668C80.2229 160.221 80.1184 159.599 79.6243 159.343C78.9385 158.989 77.7082 159.642 77.2195 160.128C77.1826 160.165 76.7354 160.724 76.6283 160.872C76.6832 160.351 76.7434 159.832 76.8226 159.322C76.9315 158.619 77.0773 157.935 77.2672 157.283C77.3131 157.3 78.538 157.763 79.1293 157.721C79.6432 157.685 80.2876 157.496 80.5846 157.04C80.8762 156.593 80.7718 155.971 80.2777 155.715C79.5919 155.361 78.3616 156.014 77.8729 156.5C77.8342 156.538 77.3536 157.14 77.2744 157.256C77.2861 157.217 77.2934 157.176 77.3051 157.137C77.5175 156.444 77.809 155.799 78.1132 155.208C78.2887 154.864 78.476 154.545 78.665 154.239C78.8846 154.349 79.8917 154.838 80.4281 154.859C80.9429 154.88 81.6034 154.763 81.949 154.342C82.2874 153.93 82.2524 153.299 81.7898 152.992C81.1463 152.564 79.8521 153.078 79.313 153.507C79.2833 153.531 79.0114 153.802 78.817 154.002C78.9043 153.865 78.9926 153.723 79.0781 153.593C79.4012 153.107 79.7269 152.681 80.0186 152.307C80.1859 152.095 80.3416 151.907 80.4892 151.733C80.7601 151.728 81.8528 151.695 82.3307 151.471C82.7969 151.252 83.3297 150.843 83.4422 150.311C83.5529 149.784 83.2315 149.241 82.6789 149.181ZM74.1793 169.805C73.7158 170.872 73.2883 171.744 72.9814 172.349C72.9193 172.47 72.8644 172.578 72.8122 172.678H72.7609C72.7456 172.56 72.7294 172.431 72.7087 172.286C72.6151 171.606 72.4684 170.637 72.2389 169.484C72.1678 169.12 72.0832 168.732 71.9941 168.334C72.0841 168.298 72.5962 168.091 73.0498 167.837C73.4449 168.265 74.4574 168.766 74.5888 168.83C74.4511 169.169 74.3134 169.497 74.1793 169.805Z" fill="#263238"/>
<path d="M78.6335 154.092C78.6452 154.099 78.8801 153.191 78.8882 153.132C78.9836 152.449 78.7658 151.074 78.0701 150.738C77.5688 150.496 77.009 150.787 76.8272 151.289C76.6409 151.801 76.8767 152.429 77.1566 152.862C77.486 153.37 78.6335 154.092 78.6335 154.092Z" fill="#263238"/>
<path d="M279.5 191.033V21.9806" stroke="#263238" stroke-miterlimit="10" stroke-linecap="round" stroke-linejoin="round"/>
<path d="M128.3 191.033V23.0327" stroke="#263238" stroke-miterlimit="10" stroke-linecap="round" stroke-linejoin="round"/>
<path d="M31.7759 108.046H345.414" stroke="#263238" stroke-miterlimit="10" stroke-linecap="round" stroke-linejoin="round"/>
<path d="M88.2689 42.6545H76.1378V35.8199C76.1378 34.1711 77.4743 32.8346 79.1231 32.8346H85.2836C86.9324 32.8346 88.2689 34.1711 88.2689 35.8199V42.6545Z" fill="#263238"/>
<path d="M87.7001 51.7031C87.7001 54.8252 85.1693 57.3551 82.0481 57.3551C78.926 57.3551 76.3952 54.8243 76.3952 51.7031C76.3952 48.5819 78.926 46.0511 82.0481 46.0511C85.1693 46.0502 87.7001 48.581 87.7001 51.7031Z" fill="white"/>
<path d="M106.239 51.9695H58.1675L76.1981 42.1496H88.169L106.239 51.9695Z" fill="#263238"/>
<path d="M83.2199 14.534H81.1868V34.1846H83.2199V14.534Z" fill="#263238"/>
<path d="M319.084 42.6545H306.954V35.8199C306.954 34.1711 308.29 32.8346 309.939 32.8346H316.099C317.748 32.8346 319.085 34.1711 319.085 35.8199V42.6545H319.084Z" fill="#263238"/>
<path d="M312.862 57.3551C315.984 57.3551 318.514 54.8246 318.514 51.7031C318.514 48.5815 315.984 46.0511 312.862 46.0511C309.741 46.0511 307.21 48.5815 307.21 51.7031C307.21 54.8246 309.741 57.3551 312.862 57.3551Z" fill="white"/>
<path d="M337.054 51.9695H288.982L307.013 42.1496H318.984L337.054 51.9695Z" fill="#263238"/>
<path d="M314.035 14.534H312.002V34.1846H314.035V14.534Z" fill="#263238"/>
<path d="M172.439 76.9904L168.527 79.4015" stroke="#263238" stroke-width="0.5" stroke-miterlimit="10" stroke-linecap="round" stroke-linejoin="round"/>
<path d="M238.371 36.3581L177.694 73.7513" stroke="#263238" stroke-width="0.5" stroke-miterlimit="10" stroke-linecap="round" stroke-linejoin="round"/>
<path d="M246.376 38.8844L197.764 68.8436" stroke="#263238" stroke-width="0.5" stroke-miterlimit="10" stroke-linecap="round" stroke-linejoin="round"/>
<path d="M267.607 25.8002L252.926 34.8479" stroke="#263238" stroke-width="0.5" stroke-miterlimit="10" stroke-linecap="round" stroke-linejoin="round"/>
<path d="M191.608 182.91C191.608 182.91 190.036 193.284 191.136 198.786C192.237 204.287 196.323 231.165 197.424 242.167C198.523 253.17 203.868 269.831 204.183 270.617C204.497 271.403 203.711 273.603 203.711 274.547C203.711 275.49 204.025 277.69 204.025 277.69C204.025 277.69 199.467 280.677 197.109 282.091C194.751 283.506 195.852 284.134 198.053 284.449C200.253 284.763 231.375 284.449 231.375 284.449C231.375 284.449 232.161 284.292 231.218 282.878C230.274 281.463 223.83 277.062 223.83 277.062C223.83 277.062 223.673 276.119 223.673 273.918C223.673 271.718 221.787 267.789 221.787 267.789C221.787 267.789 225.244 242.64 224.459 236.038C223.673 229.437 223.358 222.678 224.616 216.705C225.873 210.732 223.987 184.17 224.302 182.912C224.616 181.655 223.988 180.24 223.988 180.24C223.988 180.24 214.085 184.17 205.755 184.799C197.424 185.425 191.608 182.91 191.608 182.91Z" fill="#263238" stroke="#263238" stroke-miterlimit="10" stroke-linecap="round"/>
<path d="M231.218 282.876C230.274 281.461 223.83 277.06 223.83 277.06C223.83 277.06 223.813 276.951 223.792 276.745C218.028 278.474 213.155 282.526 213.155 282.526C213.155 282.526 213.666 281.844 210.769 279.458C207.872 277.072 204.026 277.689 204.026 277.689C204.026 277.689 199.467 280.675 197.11 282.09C194.752 283.504 195.853 284.133 198.054 284.448C200.254 284.763 231.376 284.448 231.376 284.448C231.376 284.448 232.16 284.291 231.218 282.876Z" fill="#C59595" stroke="#263238" stroke-miterlimit="10" stroke-linecap="round" stroke-linejoin="round"/>
<path d="M197.325 283.069C197.325 283.069 203.106 283.492 205.504 282.787" stroke="#263238" stroke-width="0.75" stroke-miterlimit="10" stroke-linecap="round" stroke-linejoin="round"/>
<path d="M189.907 139.514C189.907 139.514 185.372 163.802 184.242 167.474C183.113 171.146 183.536 179.619 186.925 178.631C190.314 177.643 191.444 172.559 191.727 171.146C192.009 169.734 192.292 145.019 192.292 140.782C192.292 136.544 189.907 139.514 189.907 139.514Z" fill="#33D35E" stroke="#263238" stroke-miterlimit="10" stroke-linecap="round" stroke-linejoin="round"/>
<path d="M206.296 130.149C206.296 130.149 194.688 133.563 192.834 133.953C190.981 134.344 190.005 137.172 189.907 139.513C189.81 141.854 190.199 165.755 190.102 172.875C190.005 179.997 189.029 182.435 192.249 185.07C195.468 187.703 204.54 188.192 212.832 187.606C221.123 187.021 224.83 184.485 224.83 180.777C224.83 177.07 224.245 159.511 224.245 159.511C224.245 159.511 225.123 149.268 227.172 144.879C229.221 140.489 230.391 139.124 228.831 137.563C227.27 136.002 217.612 130.442 213.808 129.369C210.002 128.296 206.296 130.149 206.296 130.149Z" fill="#33D35E" stroke="#263238" stroke-miterlimit="10" stroke-linecap="round" stroke-linejoin="round"/>
<path d="M204.052 136.978L205.125 143.806L212.929 139.222L209.514 133.662C209.514 133.662 204.734 135.124 204.052 136.978Z" fill="#263238" stroke="#263238" stroke-miterlimit="10" stroke-linecap="round" stroke-linejoin="round"/>
<path d="M206.91 126.613C206.91 126.613 204.394 128.709 203.304 131.476C202.214 134.244 199.95 138.604 200.872 138.855C201.795 139.107 204.562 136.759 205.149 136.759C205.736 136.759 206.91 139.611 207.245 139.694C207.581 139.778 210.767 138.436 210.767 138.436C210.767 138.436 211.27 142.041 212.36 142.126C213.45 142.21 217.14 136.592 217.81 132.399C218.481 128.206 216.301 127.535 215.882 127.452C215.463 127.367 210.515 125.187 206.91 126.613Z" fill="#33D35E" stroke="#263238" stroke-miterlimit="10" stroke-linecap="round" stroke-linejoin="round"/>
<path d="M206.323 112.944C206.323 112.944 206.155 109.087 206.155 106.739C206.155 104.391 206.491 103.134 207.917 102.63C209.342 102.127 209.762 104.307 209.678 105.482C209.593 106.655 206.323 112.944 206.323 112.944Z" fill="#263238" stroke="#263238" stroke-miterlimit="10" stroke-linecap="round" stroke-linejoin="round"/>
<path d="M206.323 112.022C206.323 112.022 206.239 109.171 205.233 110.68C204.227 112.189 204.562 115.711 205.233 115.376C205.903 115.041 206.323 112.022 206.323 112.022Z" fill="#C59595" stroke="#263238" stroke-miterlimit="10" stroke-linecap="round" stroke-linejoin="round"/>
<path d="M206.49 126.444C206.49 126.444 206.238 133.237 206.071 135.921C205.903 138.604 206.826 140.114 208.419 139.526C210.012 138.939 213.869 133.824 215.044 131.811C216.217 129.799 216.972 127.451 216.972 127.451C216.972 127.451 211.186 129.212 206.49 126.444Z" fill="#C59595" stroke="#263238" stroke-miterlimit="10" stroke-linecap="round" stroke-linejoin="round"/>
<path d="M208.419 104.642C208.419 104.642 205.4 114.621 204.561 118.227C203.723 121.832 204.142 124.851 205.651 127.199C207.161 129.547 209.592 130.553 212.276 130.469C214.96 130.386 218.313 129.714 220.327 125.522C222.339 121.329 222.675 119.233 223.094 118.394C223.514 117.555 225.023 113.195 225.862 110.428C226.701 107.661 225.044 104.334 221.837 102.462C220.847 101.885 214.29 97.7444 208.419 104.642Z" fill="#C59595" stroke="#263238" stroke-miterlimit="10" stroke-linecap="round" stroke-linejoin="round"/>
<path d="M223.681 117.472C223.681 117.472 225.777 115.796 226.364 117.053C226.951 118.31 225.861 120.575 224.435 121.33C223.01 122.085 222.087 121.581 222.087 121.581C222.087 121.581 222.759 118.395 223.681 117.472Z" fill="#C59595" stroke="#263238" stroke-miterlimit="10" stroke-linecap="round" stroke-linejoin="round"/>
<path d="M226.448 101.12L225.525 100.114C225.525 100.114 225.441 99.4436 222.758 98.4374C220.074 97.4312 216.972 97.5986 215.882 96.2567C214.792 94.9148 213.534 94.58 210.348 95.0831C207.161 95.5862 205.82 98.8568 205.82 101.54C205.82 104.223 211.606 107.996 215.631 108.583C219.655 109.17 223.596 107.913 222.759 108.667C221.92 109.422 219.488 112.105 220.327 113.027C221.166 113.95 221.669 114.537 221.669 115.626C221.669 116.373 221.511 118.104 221.547 119.147C221.226 119.806 220.363 121.561 220.159 121.832C219.908 122.168 217.56 120.155 216.135 119.4C214.709 118.645 213.955 118.645 213.955 118.645C213.955 118.645 213.871 119.903 213.284 120.071C212.697 120.238 210.685 120.238 210.097 119.651C209.511 119.064 209.678 117.89 209.678 117.89C209.678 117.89 206.396 117.898 204.228 120.26C203.943 122.976 204.437 125.308 205.652 127.198C207.162 129.546 209.593 130.552 212.277 130.468C214.961 130.385 218.314 129.713 220.328 125.521C221.897 122.251 222.444 120.268 222.809 119.151C223.046 118.804 223.269 118.373 223.43 117.89C223.849 116.632 225.359 114.368 226.449 113.026C227.538 111.684 229.048 108.498 228.964 105.312C228.879 102.126 226.448 101.12 226.448 101.12Z" fill="#263238" stroke="#263238" stroke-miterlimit="10" stroke-linecap="round" stroke-linejoin="round"/>
<path d="M218.75 101.599C218.75 101.599 213.35 99.5741 212.45 103.399C211.55 107.224 220.55 108.349 227.975 106.999" stroke="#C59595" stroke-width="0.75" stroke-miterlimit="10" stroke-linecap="round" stroke-linejoin="round"/>
<path d="M221.45 111.499C221.45 111.499 223.025 111.949 226.625 110.824" stroke="#C59595" stroke-width="0.75" stroke-miterlimit="10" stroke-linecap="round" stroke-linejoin="round"/>
<path d="M211.606 112.022L211.27 113.951C211.27 113.951 209.09 118.814 209.677 119.401C210.264 119.988 213.367 120.659 213.618 119.652C213.87 118.646 213.87 118.227 213.87 118.227L212.864 117.975" stroke="#263238" stroke-miterlimit="10" stroke-linecap="round" stroke-linejoin="round"/>
<path d="M215.127 112.776C215.127 112.776 218.23 112.021 218.985 114.621" stroke="#263238" stroke-miterlimit="10" stroke-linecap="round" stroke-linejoin="round"/>
<path d="M210.934 111.183C210.934 111.183 209.844 110.01 208.167 110.847" stroke="#263238" stroke-miterlimit="10" stroke-linecap="round" stroke-linejoin="round"/>
<path d="M216.38 115.701C216.311 116.206 216.013 116.582 215.715 116.541C215.417 116.5 215.231 116.058 215.3 115.553C215.37 115.048 215.667 114.672 215.965 114.713C216.263 114.754 216.45 115.197 216.38 115.701Z" fill="#263238"/>
<path d="M209.378 113.605C209.309 114.11 209.011 114.486 208.713 114.445C208.415 114.404 208.229 113.961 208.298 113.457C208.368 112.952 208.665 112.575 208.963 112.617C209.262 112.658 209.448 113.1 209.378 113.605Z" fill="#263238"/>
<path d="M215.547 121.917C212.037 126.079 209.24 122.64 209.007 121.749L215.547 121.917Z" fill="#C59595"/>
<path d="M205.125 143.806C205.125 143.806 201.028 160.097 200.248 167.901C199.467 175.705 199.565 181.168 199.565 181.168L201.613 184.777L204.637 181.168C204.637 181.168 204.54 163.804 204.54 158.244C204.539 152.683 205.125 143.806 205.125 143.806Z" fill="#263238" stroke="#263238" stroke-miterlimit="10" stroke-linecap="round" stroke-linejoin="round"/>
<path d="M224.459 146.916C224.459 146.916 221.944 152.574 222.887 155.404C223.83 158.233 231.847 170.022 232.632 170.493C233.418 170.965 239.548 172.38 240.335 168.764C241.12 165.149 234.519 143.773 232.476 140.629C230.433 137.486 228.861 137.8 228.075 138.429" fill="#33D35E"/>
<path d="M224.459 146.916C224.459 146.916 221.944 152.574 222.887 155.404C223.83 158.233 231.847 170.022 232.632 170.493C233.418 170.965 239.548 172.38 240.335 168.764C241.12 165.149 234.519 143.773 232.476 140.629C230.433 137.486 228.861 137.8 228.075 138.429" stroke="#263238" stroke-miterlimit="10" stroke-linecap="round" stroke-linejoin="round"/>
<path d="M202.768 158.704L203.711 183.853L222.886 182.91L222.415 158.232L202.768 158.704Z" fill="#C59595" stroke="#263238" stroke-miterlimit="10" stroke-linecap="round" stroke-linejoin="round"/>
<path d="M236.561 164.363C236.561 164.363 231.688 164.835 228.859 166.406C226.029 167.978 215.027 170.336 215.027 170.336L215.656 176.466C215.656 176.466 223.515 177.566 230.588 176.466C237.661 175.365 241.748 175.68 242.062 173.636C242.376 171.593 239.704 163.891 239.704 163.891" fill="#33D35E"/>
<path d="M236.561 164.363C236.561 164.363 231.688 164.835 228.859 166.406C226.029 167.978 215.027 170.336 215.027 170.336L215.656 176.466C215.656 176.466 223.515 177.566 230.588 176.466C237.661 175.365 241.748 175.68 242.062 173.636C242.376 171.593 239.704 163.891 239.704 163.891" stroke="#263238" stroke-miterlimit="10" stroke-linecap="round" stroke-linejoin="round"/>
<path d="M219.115 169.707L219.429 176.78" stroke="#263238" stroke-miterlimit="10" stroke-linecap="round" stroke-linejoin="round"/>
<path d="M215.499 170.965L210.155 166.721C210.155 166.721 206.54 164.835 205.754 164.835C204.968 164.835 201.51 165.464 200.881 165.621C200.252 165.778 200.567 166.564 201.667 167.035C202.767 167.507 203.867 167.507 203.867 167.507C203.867 167.507 198.837 168.608 198.837 169.865C198.837 171.122 201.038 171.751 201.038 171.751C201.038 171.751 200.409 174.738 201.824 175.838C203.238 176.939 204.653 177.41 207.168 176.781C209.682 176.153 215.656 176.467 215.656 176.467L215.499 170.965Z" fill="#C59595" stroke="#263238" stroke-miterlimit="10" stroke-linecap="round" stroke-linejoin="round"/>
<path d="M189.044 168.321C189.044 168.321 185.372 163.942 184.242 160.554C183.113 157.164 180.57 150.668 180.57 150.668L176.474 150.527C176.474 150.527 176.898 163.237 179.157 170.439C181.417 177.642 184.383 181.314 185.936 180.607C187.489 179.901 189.749 176.511 189.749 176.511" fill="#33D35E"/>
<path d="M189.044 168.321C189.044 168.321 185.372 163.942 184.242 160.554C183.113 157.164 180.57 150.668 180.57 150.668L176.474 150.527C176.474 150.527 176.898 163.237 179.157 170.439C181.417 177.642 184.383 181.314 185.936 180.607C187.489 179.901 189.749 176.511 189.749 176.511" stroke="#263238" stroke-miterlimit="10" stroke-linecap="round" stroke-linejoin="round"/>
<path d="M184.807 134.708C183.537 135.556 183.113 136.827 182.83 137.956C182.548 139.086 181.983 139.51 180.147 139.368C179.372 139.309 178.803 139.442 178.303 139.831C178.233 139.509 178.181 139.178 178.181 138.882C178.181 137.883 179.895 135.668 180.681 135.025C181.467 134.382 182.61 133.454 182.467 132.596C182.323 131.739 179.109 133.596 178.181 134.239C177.252 134.882 176.752 137.525 176.752 137.525C176.206 139.362 176.282 141.472 176.618 142.518C176.525 142.734 176.434 142.94 176.335 143.183C175.064 146.289 176.476 150.527 176.476 150.527L180.572 150.668C180.572 150.668 180.148 148.549 180.855 147.702C181.561 146.855 182.125 145.584 183.256 144.596C184.385 143.607 184.951 140.641 184.951 139.935C184.951 139.229 185.374 137.393 185.939 136.122C186.502 134.85 186.078 133.861 184.807 134.708Z" fill="#C59595" stroke="#263238" stroke-miterlimit="10" stroke-linecap="round" stroke-linejoin="round"/>
<path d="M175.68 140.24C175.68 140.24 176.18 137.596 177.108 136.954C178.037 136.311 181.251 134.454 181.394 135.31C181.537 136.167 180.394 137.096 179.608 137.739C178.822 138.382 177.108 140.597 177.108 141.597C177.108 142.597 177.679 144.026 177.679 144.026C177.679 144.026 176.823 145.669 176.108 145.884C175.394 146.098 174.894 142.883 175.68 140.24Z" fill="#C59595" stroke="#263238" stroke-miterlimit="10" stroke-linecap="round" stroke-linejoin="round"/>
<path d="M175.823 141.811C175.823 141.811 176.323 139.168 177.252 138.525C178.181 137.883 181.396 136.025 181.538 136.882C181.681 137.739 180.538 138.667 179.752 139.311C178.966 139.954 177.252 142.168 177.252 143.168C177.252 144.168 177.823 145.597 177.823 145.597C177.823 145.597 176.967 147.241 176.252 147.455C175.537 147.669 175.037 144.454 175.823 141.811Z" fill="#C59595" stroke="#263238" stroke-miterlimit="10" stroke-linecap="round" stroke-linejoin="round"/>
<path d="M176.037 148.883C176.037 148.883 174.894 144.954 175.037 143.382C175.18 141.811 175.752 140.454 176.537 140.382C177.323 140.311 180.681 139.096 180.681 140.025C180.681 140.953 177.609 141.953 177.609 141.953C177.609 141.953 179.538 144.453 179.467 145.74C179.396 147.026 178.966 148.454 178.966 148.454" fill="#C59595"/>
<path d="M176.037 148.883C176.037 148.883 174.894 144.954 175.037 143.382C175.18 141.811 175.752 140.454 176.537 140.382C177.323 140.311 180.681 139.096 180.681 140.025C180.681 140.953 177.609 141.953 177.609 141.953C177.609 141.953 179.538 144.453 179.467 145.74C179.396 147.026 178.966 148.454 178.966 148.454" stroke="#263238" stroke-miterlimit="10" stroke-linecap="round" stroke-linejoin="round"/>
<path d="M201.353 197.685L204.89 200.279L213.141 281.383" stroke="#C59595" stroke-width="0.75" stroke-miterlimit="10" stroke-linecap="round" stroke-linejoin="round"/>
<path d="M90.1076 158.1C90.1076 158.1 92.8922 165.127 93.0245 167.647C93.1568 170.166 92.4944 169.769 93.5546 173.083C94.6157 176.398 97.6649 184.221 99.3884 190.586C101.112 196.95 101.377 202.519 101.377 206.497H81.7538C81.7538 206.497 83.2127 202.519 79.2347 191.381C75.2567 180.243 73.6655 173.613 73.6655 170.431C73.6655 167.249 71.942 164.066 71.2787 160.486C70.6154 156.906 72.7376 157.304 72.7376 157.304L88.7819 157.436C88.7819 157.436 89.8421 157.305 90.1076 158.1Z" fill="#2AB6D9" stroke="#2AB6D9" stroke-miterlimit="10" stroke-linecap="round" stroke-linejoin="round"/>
<path d="M71.1662 158.893C71.3246 157.042 72.7376 157.305 72.7376 157.305L88.7819 157.437C88.7819 157.437 89.843 157.305 90.1076 158.1C90.1076 158.1 92.8922 165.127 93.0245 167.647C93.0758 168.621 93.0083 169.16 92.9678 169.645L92.6267 170.168C92.6267 170.168 92.0966 174.808 85.7318 175.073C79.367 175.339 75.7877 172.421 74.4611 169.637C73.1354 166.853 72.6044 162.345 71.5442 159.693C71.4371 159.425 71.3066 159.159 71.1662 158.893Z" fill="white" stroke="#2AB6D9" stroke-miterlimit="10" stroke-linecap="round" stroke-linejoin="round"/>
<path d="M73.6655 170.431C73.6655 167.249 71.942 164.066 71.2787 160.486C70.8206 158.012 71.6918 157.438 72.2741 157.32C72.5045 157.395 73.3208 157.881 74.3288 161.017C75.5222 164.73 74.8589 169.635 75.5222 173.613C76.1855 177.591 79.5002 186.342 81.887 192.839C83.8526 198.191 84.2864 203.358 83.4899 206.497H81.7547C81.7547 206.497 83.2136 202.519 79.2356 191.381C75.2567 180.243 73.6655 173.613 73.6655 170.431Z" fill="white" stroke="#2AB6D9" stroke-miterlimit="10" stroke-linecap="round" stroke-linejoin="round"/>
<path d="M171.89 206.257H155.922C155.284 206.257 154.766 205.74 154.766 205.102C154.766 204.464 155.284 203.946 155.922 203.946H171.89C172.656 203.946 173.394 203.62 173.91 203.052C174.546 202.353 174.774 201.392 174.519 200.482L168.855 180.183C168.683 179.568 169.042 178.931 169.657 178.76C170.269 178.587 170.909 178.948 171.08 179.562L176.744 199.861C177.212 201.541 176.792 203.314 175.618 204.606C174.666 205.657 173.306 206.257 171.89 206.257Z" fill="white" stroke="#2AB6D9" stroke-miterlimit="10" stroke-linecap="round" stroke-linejoin="round"/>
<path d="M169.914 153.487L166.298 153.054L160.696 199.796L164.312 200.229L169.914 153.487Z" fill="white" stroke="#2AB6D9" stroke-miterlimit="10" stroke-linecap="round" stroke-linejoin="round"/>
<path d="M169.91 153.489C169.91 153.489 176.33 176.405 164.305 200.23L169.91 153.489Z" fill="white" stroke="#2AB6D9" stroke-miterlimit="10" stroke-linecap="round" stroke-linejoin="round"/>
<path d="M182.385 206.155H24.4355V275.005H182.385V206.155Z" fill="#2AB6D9"/>
<mask id="mask0_29_17" style="mask-type:luminance" maskUnits="userSpaceOnUse" x="24" y="206" width="159" height="70">
<path d="M182.385 206.155H24.4355V275.005H182.385V206.155Z" fill="white"/>
</mask>
<g mask="url(#mask0_29_17)">
<path opacity="0.72" d="M182.385 206.155H24.4355V275.005H182.385V206.155Z" fill="white"/>
</g>
<path d="M182.385 206.155H24.4355V275.005H182.385V206.155Z" stroke="#2AB6D9" stroke-miterlimit="10" stroke-linecap="round" stroke-linejoin="round"/>
<path d="M182.423 208.108H24.4517V210.392H182.423V208.108Z" fill="#2AB6D9"/>
<path d="M183.736 204.805H20.3855V208.405H183.736V204.805Z" fill="white" stroke="#2AB6D9" stroke-miterlimit="10" stroke-linecap="round" stroke-linejoin="round"/>
<path d="M340.377 152.074L322.627 152.22C322.627 152.22 321.454 152.074 321.16 152.954C321.16 152.954 318.079 160.728 317.933 163.516C317.786 166.303 318.52 165.863 317.346 169.53C316.172 173.198 312.798 181.852 310.891 188.895C308.328 198.358 307.66 208.402 307.497 218.171C307.471 219.739 306.534 233.226 308.974 233.226C310.999 233.226 329.674 235.701 329.899 232.101C330.796 217.751 328.204 203.73 333.189 189.775C335.125 184.355 337.344 178.631 338.986 172.961C340.635 167.268 340.916 161.399 341.99 155.596C342.724 151.634 340.377 152.074 340.377 152.074Z" fill="#263238" stroke="#263238" stroke-miterlimit="10" stroke-linecap="round" stroke-linejoin="round"/>
<path d="M342.116 153.832C341.941 151.783 340.378 152.074 340.378 152.074L322.628 152.221C322.628 152.221 321.455 152.074 321.161 152.954C321.161 152.954 318.08 160.729 317.934 163.516C317.877 164.594 317.952 165.188 317.997 165.725L318.374 166.303C318.374 166.303 318.961 171.437 326.001 171.731C333.043 172.024 337.003 168.797 338.47 165.716C339.937 162.635 340.524 157.648 341.697 154.714C341.815 154.42 341.961 154.126 342.116 153.832Z" fill="#E7CDA5" stroke="#263238" stroke-miterlimit="10" stroke-linecap="round" stroke-linejoin="round"/>
<path d="M338.001 159.561C336.81 163.847 337.525 165.037 336.334 172.417C335.143 179.798 330.859 188.13 329.192 195.749C327.525 203.367 328.24 230.27 328.477 231.46C328.568 231.914 328.59 232.643 328.582 233.373C329.381 233.074 329.865 232.661 329.9 232.099C330.797 217.75 328.205 203.728 333.19 189.772C335.126 184.352 337.345 178.628 338.987 172.958C340.636 167.265 340.917 161.396 341.991 155.594C342.442 153.16 341.73 152.391 341.113 152.157L341.096 152.18C341.096 152.18 339.191 155.276 338.001 159.561Z" fill="#E7CDA5" stroke="#263238" stroke-miterlimit="10" stroke-linecap="round" stroke-linejoin="round"/>
<path d="M289.661 159.996C289.661 159.996 284.233 162.489 282.034 164.103C279.833 165.717 280.273 169.678 280.273 170.705C280.273 171.732 274.405 181.266 275.432 184.64C276.459 188.014 278.953 196.962 279.099 199.016C279.246 201.07 278.806 206.937 278.806 206.937H306.531C306.531 206.937 306.384 197.989 307.264 191.388C308.144 184.786 310.051 182.44 310.051 172.317C310.051 162.195 299.05 160.289 296.263 159.996C293.475 159.702 289.661 159.996 289.661 159.996Z" fill="#E7CDA5" stroke="#263238" stroke-miterlimit="10" stroke-linecap="round" stroke-linejoin="round"/>
<path d="M275.432 184.639C276.362 187.694 278.488 195.302 278.992 198.241C278.997 196.979 278.988 195.767 278.953 194.762C278.806 190.507 278.953 184.494 283.207 174.665C286.477 167.112 288.354 162.17 289.051 160.281C287.576 160.978 283.786 162.817 282.034 164.102C279.833 165.716 280.273 169.677 280.273 170.704C280.273 171.731 274.405 181.265 275.432 184.639Z" fill="#2AB6D9" stroke="#263238" stroke-miterlimit="10" stroke-linecap="round" stroke-linejoin="round"/>
<path d="M253.282 205.763C253.282 205.763 251.365 208.662 250.02 210.513C248.674 212.363 246.487 215.895 248.001 216.064C249.515 216.232 251.197 214.718 252.88 213.877C254.562 213.035 255.403 210.848 255.403 210.848C255.403 210.848 254.898 214.044 256.077 213.372C257.254 212.699 257.254 210.344 257.254 208.83C257.254 207.316 257.59 204.96 257.59 204.96C257.59 204.96 255.367 203.033 253.282 205.763Z" fill="#E7CDA5" stroke="#263238" stroke-miterlimit="10" stroke-linecap="round" stroke-linejoin="round"/>
<path d="M254.182 209.513C254.182 209.513 246.004 209.513 244.673 210.273C243.342 211.034 238.777 232.525 234.973 241.273C234.973 241.273 231.931 248.88 229.458 252.493C228.592 253.758 224.514 255.346 221.661 256.107C218.808 256.867 217.666 257.438 218.047 258.198C218.428 258.959 224.323 260.29 226.986 260.67C229.648 261.051 231.36 260.29 232.12 260.29C232.881 260.29 233.832 261.24 235.353 260.67C236.874 260.1 235.924 256.106 235.924 253.824C235.924 251.543 238.777 243.364 242.01 239.941C245.242 236.517 251.519 223.395 252.85 219.401C254.181 215.407 254.562 214.456 254.562 214.456" fill="#E7CDA5"/>
<path d="M254.182 209.513C254.182 209.513 246.004 209.513 244.673 210.273C243.342 211.034 238.777 232.525 234.973 241.273C234.973 241.273 231.931 248.88 229.458 252.493C228.592 253.758 224.514 255.346 221.661 256.107C218.808 256.867 217.666 257.438 218.047 258.198C218.428 258.959 224.323 260.29 226.986 260.67C229.648 261.051 231.36 260.29 232.12 260.29C232.881 260.29 233.832 261.24 235.353 260.67C236.874 260.1 235.924 256.106 235.924 253.824C235.924 251.543 238.777 243.364 242.01 239.941C245.242 236.517 251.519 223.395 252.85 219.401C254.181 215.407 254.562 214.456 254.562 214.456" stroke="#263238" stroke-miterlimit="10" stroke-linecap="round" stroke-linejoin="round"/>
<path d="M252.209 214.079C252.209 214.079 247.366 215.809 247.366 221.69C247.366 227.57 256.015 264.931 256.015 267.007C256.015 269.082 256.015 272.887 251.864 276.692C251.241 277.263 247.63 279.802 248.046 280.972C248.732 282.892 253.565 281.025 254.745 280.518C256.871 279.604 259.236 275.862 261.55 276.002C264.011 276.15 264.317 274.964 264.317 272.542C264.317 270.12 261.641 267.073 261.295 263.614C260.949 260.155 259.845 247.936 260.877 242.094C261.829 236.707 257.052 223.075 257.052 223.075C257.052 223.075 271.742 232.065 284.696 228.93C297.649 225.795 272.619 220.307 268.813 217.54C265.009 214.771 255.323 212.004 252.209 214.079Z" fill="#E7CDA5" stroke="#263238" stroke-miterlimit="10" stroke-linecap="round" stroke-linejoin="round"/>
<path d="M247.716 213.697C247.716 213.697 254.182 220.734 262.36 223.967L265.213 210.083C265.213 210.083 253.041 207.992 244.673 210.273" fill="#E7CDA5"/>
<path d="M247.716 213.697C247.716 213.697 254.182 220.734 262.36 223.967L265.213 210.083C265.213 210.083 253.041 207.992 244.673 210.273" stroke="#263238" stroke-miterlimit="10" stroke-linecap="round" stroke-linejoin="round"/>
<path d="M306.531 206.937C306.531 206.937 306.384 197.989 307.264 191.388C308.144 184.786 310.051 182.44 310.051 172.318C310.051 162.899 300.528 160.594 296.959 160.083C296.295 161.25 295.148 163.364 294.942 164.396C294.649 165.863 288.341 178.625 286.874 188.16C285.701 195.781 286.684 203.958 287.126 206.937H278.806L279.191 209.928L263.625 209.236L259.697 224.727C259.697 224.727 268.092 228.306 274.151 230.813C280.21 233.32 292.427 235.615 299.74 233.317C305.768 231.422 310.258 228.17 309.445 221.369C308.863 216.5 307.83 211.665 306.531 206.937Z" fill="#2AB6D9" stroke="#263238" stroke-miterlimit="10" stroke-linecap="round" stroke-linejoin="round"/>
<path d="M289.051 160.281L281.447 171.291L282.327 173.784L279.833 176.572L279.393 184.639" stroke="#263238" stroke-miterlimit="10" stroke-linecap="round" stroke-linejoin="round"/>
<path d="M296.116 164.396L295.676 173.198L292.595 175.105L293.769 177.452L287.755 188.747" stroke="#263238" stroke-miterlimit="10" stroke-linecap="round" stroke-linejoin="round"/>
<path d="M283.495 133.961C283.495 133.961 281.76 137.87 281.903 139.035C282.046 140.199 281.771 141.564 280.642 141.998C279.514 142.433 278.292 143.322 278.855 144.288C279.417 145.254 280.362 145.728 280.362 145.728C280.362 145.728 279.626 150.548 280.079 151.823C280.531 153.097 281.419 155.5 282.875 155.321C284.331 155.142 287.989 154.839 287.989 154.839C287.989 154.839 289.222 157.942 288.342 162.195C287.461 166.45 284.234 170.41 287.755 171.29C291.276 172.17 293.329 167.622 294.943 164.395C296.557 161.167 297.411 156.928 298.143 154.473C298.875 152.018 299.899 149.528 299.899 149.528C299.899 149.528 295.188 148.482 293.16 142.82C291.133 137.158 291.249 133.301 288.193 132.494C285.137 131.69 283.495 133.961 283.495 133.961Z" fill="#E7CDA5" stroke="#263238" stroke-miterlimit="10" stroke-linecap="round" stroke-linejoin="round"/>
<path d="M286.158 150.778C286.158 150.778 286.463 153.253 289.25 151.875" stroke="#263238" stroke-miterlimit="10" stroke-linecap="round" stroke-linejoin="round"/>
<path d="M289.488 129.823C289.488 129.823 286.359 129.617 284.267 129.432C282.175 129.246 281.351 132.156 281.84 133.721C282.329 135.287 282.801 135.524 282.801 135.524C282.801 135.524 285.697 133.836 285.986 134.984C286.275 136.13 283.597 138.382 285.013 140.277C286.428 142.171 288.682 143.668 287.515 144.993C286.348 146.319 286.947 147.576 287.966 147.45C288.985 147.324 290.372 145.38 290.932 147.529C291.492 149.677 288.887 151.328 289.45 152.293C290.012 153.259 295.341 154.524 296.835 153.453C298.329 152.382 302.042 151.333 303.8 145.204C305.558 139.076 303.837 134.706 300.114 130.878C296.39 127.05 290.108 130.042 290.108 130.042L289.488 129.823Z" fill="#263238" stroke="#263238" stroke-miterlimit="10" stroke-linecap="round" stroke-linejoin="round"/>
<path d="M295.198 134.743C295.77 135.03 296.318 135.377 296.825 135.799" stroke="#E7CDA5" stroke-width="0.75" stroke-miterlimit="10" stroke-linecap="round" stroke-linejoin="round"/>
<path d="M286.025 133.774C286.025 133.774 290.063 132.966 293.768 134.163" stroke="#E7CDA5" stroke-width="0.75" stroke-miterlimit="10" stroke-linecap="round" stroke-linejoin="round"/>
<path d="M253.282 205.763C253.282 205.763 253.282 205.763 253.722 204.736C254.162 203.709 258.869 202.839 263.525 202.175C271.062 201.099 274.739 199.895 279.1 199.015C284.543 197.917 290.248 196.521 290.248 196.521C290.248 196.521 299.929 198.722 298.316 201.949C296.703 205.176 292.302 205.763 292.302 205.763H255.551C255.551 205.763 255.881 207.039 254.313 207.782" fill="#E7CDA5"/>
<path d="M253.282 205.763C253.282 205.763 253.282 205.763 253.722 204.736C254.162 203.709 258.869 202.839 263.525 202.175C271.062 201.099 274.739 199.895 279.1 199.015C284.543 197.917 290.248 196.521 290.248 196.521C290.248 196.521 299.929 198.722 298.316 201.949C296.703 205.176 292.302 205.763 292.302 205.763H255.551C255.551 205.763 255.881 207.039 254.313 207.782" stroke="#263238" stroke-miterlimit="10" stroke-linecap="round" stroke-linejoin="round"/>
<path d="M296.263 179.066C296.263 179.066 294.355 187.573 293.182 189.774C292.008 191.974 289.514 191.241 289.661 192.561C289.808 193.881 290.395 195.202 290.395 195.202C290.395 195.202 288.634 195.202 288.634 195.935C288.634 196.669 290.688 199.309 293.329 200.63C295.969 201.95 297.876 203.417 299.05 201.95C300.223 200.483 301.397 197.696 301.25 197.109C301.104 196.522 302.277 197.549 303.304 196.229C304.331 194.908 304.184 194.028 304.184 192.855C304.184 191.681 307.999 182.146 308.439 181.266" fill="#2AB6D9"/>
<path d="M296.263 179.066C296.263 179.066 294.355 187.573 293.182 189.774C292.008 191.974 289.514 191.241 289.661 192.561C289.808 193.881 290.395 195.202 290.395 195.202C290.395 195.202 288.634 195.202 288.634 195.935C288.634 196.669 290.688 199.309 293.329 200.63C295.969 201.95 297.876 203.417 299.05 201.95C300.223 200.483 301.397 197.696 301.25 197.109C301.104 196.522 302.277 197.549 303.304 196.229C304.331 194.908 304.184 194.028 304.184 192.855C304.184 191.681 307.999 182.146 308.439 181.266" stroke="#263238" stroke-miterlimit="10" stroke-linecap="round" stroke-linejoin="round"/>
<path d="M293.463 194.165C293.463 194.165 298.144 194.904 300.854 196.136" stroke="#263238" stroke-width="0.75" stroke-miterlimit="10" stroke-linecap="round" stroke-linejoin="round"/>
<path d="M291.245 193.673C291.245 193.673 293.955 198.108 298.144 198.847" stroke="#263238" stroke-width="0.75" stroke-miterlimit="10" stroke-linecap="round" stroke-linejoin="round"/>
<path d="M301.89 140.008C301.89 140.008 302.184 144.409 298.369 151.303C294.555 158.198 289.275 171.4 293.088 178.588C296.902 185.775 307.317 184.309 310.251 177.854C313.185 171.399 311.278 154.97 308.197 148.076C305.117 141.181 303.796 138.688 303.796 138.688C303.796 138.688 302.037 137.808 301.89 140.008Z" fill="#263238" stroke="#263238" stroke-miterlimit="10" stroke-linecap="round" stroke-linejoin="round"/>
<path d="M303.297 179.53C304.531 179.562 305.881 179.112 307.175 178.099" stroke="#E7CDA5" stroke-width="0.75" stroke-miterlimit="10" stroke-linecap="round" stroke-linejoin="round"/>
<path d="M302.675 142.774C302.675 142.774 304.25 155.374 299.975 168.424C298.329 173.448 298.574 176.88 300.613 178.544" stroke="#E7CDA5" stroke-width="0.75" stroke-miterlimit="10" stroke-linecap="round" stroke-linejoin="round"/>
<path d="M302.225 148.174C302.225 148.174 297.725 159.649 294.125 167.524C290.525 175.399 293.675 180.349 299.075 181.474" stroke="#E7CDA5" stroke-width="0.75" stroke-miterlimit="10" stroke-linecap="round" stroke-linejoin="round"/>
<path d="M287.126 206.937C287.126 206.937 286.456 214.426 287.839 215.464C289.224 216.501 299.255 219.614 305.828 217.539" stroke="#263238" stroke-miterlimit="10" stroke-linecap="round" stroke-linejoin="round"/>
<path d="M279.192 209.928L285.418 210.966" stroke="#263238" stroke-miterlimit="10" stroke-linecap="round" stroke-linejoin="round"/>
<path d="M254.745 280.517C256.871 279.603 259.236 275.861 261.549 276.001C264.011 276.15 264.317 274.963 264.317 272.541C264.317 271.662 263.962 270.699 263.496 269.664C263.434 269.772 263.373 269.872 263.311 269.991C261.409 273.604 258.556 275.316 256.464 276.077C254.372 276.837 252.661 276.077 252.661 276.077L252.375 276.194C252.209 276.359 252.045 276.526 251.865 276.691C251.242 277.262 247.631 279.801 248.047 280.971C248.733 282.892 253.566 281.025 254.745 280.517Z" fill="#2AB6D9" stroke="#263238" stroke-miterlimit="10" stroke-linecap="round" stroke-linejoin="round"/>
<path d="M224.254 255.296C223.358 255.614 222.461 255.894 221.661 256.107C218.808 256.868 217.666 257.439 218.047 258.199C218.428 258.96 224.323 260.291 226.986 260.671C229.648 261.052 231.36 260.291 232.121 260.291C232.882 260.291 233.833 261.241 235.354 260.671C236.629 260.193 236.169 257.311 235.986 255.045C234.356 255.559 232.167 256.111 229.839 256.296C225.98 256.606 224.626 255.662 224.254 255.296Z" fill="#2AB6D9" stroke="#263238" stroke-miterlimit="10" stroke-linecap="round" stroke-linejoin="round"/>
<path d="M303.718 267.886L303.599 267.79V251.22H305.98V240.745H297.171V251.22H299.551V268.076L278.481 274.791V276.457C278.481 277.509 279.334 278.362 280.386 278.362C281.437 278.362 282.29 277.509 282.29 276.457V276.22L299.907 274.171V276.696C299.907 277.617 300.654 278.363 301.574 278.363C302.495 278.363 303.241 277.617 303.241 276.696V274.089L321.573 276.22V276.457C321.573 277.509 322.426 278.362 323.478 278.362C324.53 278.362 325.382 277.509 325.382 276.457V274.791L303.718 267.886Z" fill="#263238" stroke="#263238" stroke-miterlimit="10" stroke-linecap="round" stroke-linejoin="round"/>
<path d="M327.65 242.675H277.7C275.712 242.675 274.1 241.063 274.1 239.075V234.125C274.1 232.137 275.712 230.525 277.7 230.525H327.65C329.638 230.525 331.25 232.137 331.25 234.125V239.075C331.25 241.063 329.638 242.675 327.65 242.675Z" fill="#263238" stroke="#263238" stroke-miterlimit="10" stroke-linecap="round" stroke-linejoin="round"/>
<path d="M227.075 203.545H251.791V174.994H227.075V203.545Z" fill="white" stroke="#2AB6D9" stroke-miterlimit="10" stroke-linecap="round" stroke-linejoin="round"/>
<path d="M253.709 204.824H225.796V179.042H239.007L253.709 204.824Z" fill="white" stroke="#2AB6D9" stroke-miterlimit="10" stroke-linecap="round" stroke-linejoin="round"/>
<path d="M219.81 206.257H235.777C236.415 206.257 236.933 205.74 236.933 205.102C236.933 204.464 236.416 203.946 235.777 203.946H219.81C219.043 203.946 218.305 203.62 217.79 203.052C217.154 202.353 216.926 201.392 217.18 200.482L222.845 180.183C223.017 179.568 222.658 178.931 222.043 178.76C221.431 178.587 220.791 178.948 220.62 179.562L214.956 199.861C214.488 201.541 214.908 203.314 216.081 204.606C217.035 205.657 218.394 206.257 219.81 206.257Z" fill="white" stroke="#2AB6D9" stroke-miterlimit="10" stroke-linecap="round" stroke-linejoin="round"/>
<path d="M227.394 200.225L231.01 199.791L225.408 153.049L221.792 153.483L227.394 200.225Z" fill="white" stroke="#2AB6D9" stroke-miterlimit="10" stroke-linecap="round" stroke-linejoin="round"/>
<path d="M221.79 153.489C221.79 153.489 215.37 176.405 227.395 200.23L221.79 153.489Z" fill="white" stroke="#2AB6D9" stroke-miterlimit="10" stroke-linecap="round" stroke-linejoin="round"/>
<path d="M352.236 206.155H206.214V288.505H352.236V206.155Z" fill="#2AB6D9"/>
<mask id="mask1_29_17" style="mask-type:luminance" maskUnits="userSpaceOnUse" x="206" y="206" width="147" height="83">
<path d="M352.236 206.155H206.214V288.505H352.236V206.155Z" fill="white"/>
</mask>
<g mask="url(#mask1_29_17)">
<path opacity="0.72" d="M352.236 206.155H206.214V288.505H352.236V206.155Z" fill="white"/>
</g>
<path d="M352.236 206.155H206.214V288.505H352.236V206.155Z" stroke="#2AB6D9" stroke-miterlimit="10" stroke-linecap="round" stroke-linejoin="round"/>
<path d="M352.125 208.131H206.282V210.409H352.125V208.131Z" fill="#2AB6D9"/>
<path d="M353.3 204.805H203.023V208.405H353.3V204.805Z" fill="white" stroke="#2AB6D9" stroke-miterlimit="10" stroke-linecap="round" stroke-linejoin="round"/>
<path d="M113.263 197.942L111.013 199.742C111.013 199.742 104.6 203.117 103.363 204.13C102.125 205.142 103.025 206.155 103.7 207.392C104.375 208.63 107.638 209.98 108.763 209.98C109.888 209.98 115.063 207.505 115.85 206.042C116.638 204.58 117.425 199.405 117.425 199.405L113.263 197.942Z" fill="#F1C4C4" stroke="#2D314D" stroke-miterlimit="10" stroke-linecap="round" stroke-linejoin="round"/>
<path d="M112.138 203.005L111.8 205.705C111.8 205.705 107.188 208.405 107.638 209.192C108.088 209.98 108.538 209.755 111.238 208.967C113.938 208.18 115.738 206.717 115.85 206.042" stroke="#2D314D" stroke-miterlimit="10" stroke-linecap="round" stroke-linejoin="round"/>
<path d="M107.188 202.442L108.313 207.73" stroke="#2D314D" stroke-miterlimit="10" stroke-linecap="round" stroke-linejoin="round"/>
<path d="M104.713 203.68L107.075 209.417" stroke="#2D314D" stroke-miterlimit="10" stroke-linecap="round" stroke-linejoin="round"/>
<path d="M103.7 204.58C103.7 204.58 104.263 207.73 105.613 208.742" stroke="#2D314D" stroke-miterlimit="10" stroke-linecap="round" stroke-linejoin="round"/>
<path d="M114.05 194.342L113.15 198.392L117.425 199.405L119.338 194.905L114.05 194.342Z" fill="#2BDAC2" stroke="#2D314D" stroke-miterlimit="10" stroke-linecap="round" stroke-linejoin="round"/>
<path d="M107.623 148.723C107.623 148.723 106.963 153.167 107.975 156.655C108.988 160.142 113.263 177.467 113.825 178.705C114.388 179.942 114.275 181.855 113.938 183.88C113.6 185.905 114.95 190.742 114.95 191.08C114.95 191.417 113.038 192.767 112.925 194.117C112.813 195.467 115.063 196.367 117.088 196.592C119.113 196.817 120.463 196.592 121.7 190.967C122.938 185.342 119.338 177.805 117.088 168.917C114.838 160.03 111.8 153.505 111.35 151.705C110.9 149.905 108.284 146.641 107.623 148.723Z" fill="#2BDAC2" stroke="#2D314D" stroke-miterlimit="10" stroke-linecap="round" stroke-linejoin="round"/>
<path d="M131.15 271.555C131.15 271.555 133.4 274.555 132.95 275.455C132.5 276.355 127.85 277.705 126.95 278.454C126.05 279.204 125 280.405 122.15 281.154C119.3 281.904 112.401 283.105 113.15 281.904C113.9 280.704 122.45 274.554 122.45 274.554C122.45 274.554 128.9 272.005 131.15 271.555Z" fill="#F1C4C4" stroke="#2D314D" stroke-miterlimit="10" stroke-linecap="round" stroke-linejoin="round"/>
<path d="M132.382 274.779C132.382 274.779 127.338 276.581 125.717 277.842C124.095 279.102 122.654 279.823 122.654 279.823" stroke="#2D314D" stroke-width="0.75" stroke-miterlimit="10" stroke-linecap="round" stroke-linejoin="round"/>
<path d="M126.8 262.105L131.149 271.555C131.149 271.555 130.999 272.155 128.299 273.355C125.599 274.555 122.449 274.555 122.449 274.555L120.499 267.505L126.8 262.105Z" fill="#2D314D" stroke="#2D314D" stroke-miterlimit="10" stroke-linecap="round" stroke-linejoin="round"/>
<path d="M119.45 192.054C119.45 192.054 116.001 194.154 115.85 195.054C115.7 195.954 116.451 198.954 116.451 198.954C116.451 198.954 109.401 213.654 107.3 217.404C105.201 221.154 102.2 228.504 105.201 233.154C108.2 237.804 117.2 259.704 117.2 259.704L114.201 276.504L121.851 278.454C121.851 278.454 126.501 265.854 128.151 261.204C129.8 256.554 133.701 244.554 134.3 240.354C134.901 236.154 135.351 230.154 135.5 229.704C135.65 229.254 148.7 210.204 150.5 205.854C152.3 201.504 152.15 192.354 151.25 190.404C150.35 188.454 119.45 192.054 119.45 192.054Z" fill="#2D314D" stroke="#2D314D" stroke-miterlimit="10" stroke-linecap="round" stroke-linejoin="round"/>
<path d="M128.45 197.155L124.4 199.105L128.75 201.954L122 201.054L129.05 203.754" stroke="#F1C4C4" stroke-width="0.75" stroke-miterlimit="10" stroke-linecap="round" stroke-linejoin="round"/>
<path d="M139.55 199.105L131.3 202.405C131.3 202.405 141.65 200.455 146.3 200.605" stroke="#2D314D" stroke-miterlimit="10" stroke-linecap="round" stroke-linejoin="round"/>
<path d="M130.1 204.505C130.1 204.505 119.75 227.155 119.75 231.355C119.75 235.555 118.25 258.654 118.25 258.654" stroke="#F1C4C4" stroke-width="0.75" stroke-miterlimit="10" stroke-linecap="round" stroke-linejoin="round"/>
<path d="M121.767 140.481C121.767 140.481 107.928 147.298 107.623 148.723C107.318 150.148 108.946 154.218 108.946 154.218C108.946 154.218 117.494 181.996 118.206 184.235C118.917 186.474 119.223 186.983 118.511 188.102C117.799 189.221 116.883 191.256 117.9 192.376C118.918 193.495 125.736 195.53 130.111 195.53C134.486 195.53 142.321 194.207 147.409 192.987C152.496 191.766 152.293 189.527 152.09 187.187C151.886 184.847 148.935 144.756 148.935 143.229C148.935 141.703 138.15 139.465 134.486 139.261C130.823 139.056 122.988 139.26 121.767 140.481Z" fill="#2BDAC2" stroke="#2D314D" stroke-miterlimit="10" stroke-linecap="round" stroke-linejoin="round"/>
<path d="M123.263 147.413L126.758 157.293L132.382 147.261C132.382 147.261 130.862 142.398 126.758 142.702C122.655 143.004 123.263 147.413 123.263 147.413Z" fill="#2D314D" stroke="#2D314D" stroke-miterlimit="10" stroke-linecap="round" stroke-linejoin="round"/>
<path d="M126.759 157.292C126.759 157.292 124.935 184.803 124.935 186.171C124.935 187.539 123.567 191.947 123.567 191.947L126.607 195.443C126.607 195.443 131.471 191.947 132.231 189.363C132.991 186.78 126.759 157.292 126.759 157.292Z" fill="#2D314D" stroke="#2D314D" stroke-miterlimit="10" stroke-linecap="round" stroke-linejoin="round"/>
<path d="M121.767 139.565C121.767 139.565 121.055 143.838 121.462 145.67C121.869 147.502 120.139 151.673 120.953 152.183C121.767 152.691 124.515 147.197 124.515 147.197L127.567 152.386L129.602 146.892C129.602 146.892 132.452 152.488 133.265 151.979C134.08 151.471 132.757 148.011 133.977 146.281C135.198 144.552 135.605 141.804 134.893 139.057C134.181 136.309 131.23 136.309 128.788 136.615C126.346 136.92 123.497 136.92 121.767 139.565Z" fill="#2BDAC2" stroke="#2D314D" stroke-miterlimit="10" stroke-linecap="round" stroke-linejoin="round"/>
<path d="M121.767 140.481C121.767 140.481 125.023 144.958 125.633 147.095C126.243 149.232 127.16 153.709 127.566 152.386C127.973 151.063 127.77 145.975 130.212 143.127C132.654 140.277 132.043 138.243 132.043 138.243C132.043 138.243 128.889 142.109 121.767 140.481Z" fill="#F1C4C4" stroke="#2D314D" stroke-miterlimit="10" stroke-linecap="round" stroke-linejoin="round"/>
<path d="M115.254 132.34C115.254 132.34 119.223 140.176 123.293 142.211C127.364 144.246 131.637 142.109 132.757 138.954C133.876 135.8 132.858 131.73 132.858 131.73C132.858 131.73 135.097 130.407 135.402 128.677C135.707 126.948 136.012 126.337 133.672 125.014C131.332 123.691 130.823 123.59 130.823 123.59C130.823 123.59 130.721 120.13 128.686 119.01C126.651 117.891 122.377 118.502 119.834 121.249C117.29 123.996 115.254 132.34 115.254 132.34Z" fill="#F1C4C4" stroke="#2D314D" stroke-miterlimit="10" stroke-linecap="round" stroke-linejoin="round"/>
<path d="M121.97 131.527C121.97 131.527 123.497 133.765 123.7 134.783C123.903 135.801 123.09 137.021 124.31 137.021C125.532 137.021 126.243 136.207 126.243 136.207" stroke="#2D314D" stroke-miterlimit="10" stroke-linecap="round" stroke-linejoin="round"/>
<path d="M124.302 128.434C124.302 128.434 124.813 126.646 127.197 126.986" stroke="#2D314D" stroke-miterlimit="10" stroke-linecap="round" stroke-linejoin="round"/>
<path d="M120.384 130.053C120.384 130.053 118.596 129.541 116.893 131.671" stroke="#2D314D" stroke-miterlimit="10" stroke-linecap="round" stroke-linejoin="round"/>
<path d="M125.154 137.036L125.838 139.056C125.838 139.056 129.094 138.548 129.907 135.19" stroke="#2D314D" stroke-miterlimit="10" stroke-linecap="round" stroke-linejoin="round"/>
<path d="M122.48 133.612C122.48 135.157 121.227 136.41 119.682 136.41C118.136 136.41 116.883 135.157 116.883 133.612C116.883 132.067 118.136 130.814 119.682 130.814C121.227 130.814 122.48 132.067 122.48 133.612Z" stroke="#2D314D" stroke-width="0.5" stroke-miterlimit="10" stroke-linecap="round" stroke-linejoin="round"/>
<path d="M129.501 129.797L132.553 127.049" stroke="#2D314D" stroke-width="0.5" stroke-miterlimit="10" stroke-linecap="round" stroke-linejoin="round"/>
<path d="M129.602 130.662C129.602 132.207 128.349 133.46 126.804 133.46C125.259 133.46 124.006 132.207 124.006 130.662C124.006 129.117 125.259 127.864 126.804 127.864C128.349 127.864 129.602 129.117 129.602 130.662Z" stroke="#2D314D" stroke-width="0.5" stroke-miterlimit="10" stroke-linecap="round" stroke-linejoin="round"/>
<path d="M127.633 130.342C127.778 130.664 127.721 131.003 127.507 131.099C127.293 131.196 127.001 131.013 126.856 130.692C126.712 130.37 126.768 130.031 126.982 129.935C127.198 129.837 127.489 130.02 127.633 130.342Z" fill="#2D314D"/>
<path d="M121.369 132.859C121.514 133.18 121.457 133.519 121.243 133.616C121.029 133.712 120.737 133.529 120.592 133.208C120.447 132.887 120.504 132.547 120.718 132.451C120.933 132.354 121.224 132.537 121.369 132.859Z" fill="#2D314D"/>
<path d="M121.97 132.544C121.97 132.544 123.09 131.119 124.107 131.73" stroke="#2D314D" stroke-width="0.5" stroke-miterlimit="10" stroke-linecap="round" stroke-linejoin="round"/>
<path d="M123.7 123.183C123.7 123.183 120.24 126.948 117.594 130.407C114.949 133.867 114.44 134.274 114.44 134.274C114.44 134.274 113.32 132.239 112.812 130.712C112.303 129.186 111.692 127.863 111.692 127.863L110.776 129.898C110.776 129.898 108.13 120.027 110.979 115.448C113.829 110.869 120.279 109.708 125.163 111.438C130.048 113.168 130.72 117.687 131.635 120.027C132.552 122.367 133.365 125.319 133.365 125.319L132.042 128.168C132.042 128.168 129.6 126.031 128.379 124.912C127.158 123.792 126.751 122.266 126.751 122.266C126.751 122.266 124.716 124.708 124.106 125.42C123.496 126.132 122.885 126.336 122.885 126.336L123.7 123.183Z" fill="#2D314D" stroke="#2D314D" stroke-miterlimit="10" stroke-linecap="round" stroke-linejoin="round"/>
<path d="M124.646 113.597C124.646 113.597 123.174 120.627 117.993 125.67" stroke="#F1C4C4" stroke-width="0.75" stroke-miterlimit="10" stroke-linecap="round" stroke-linejoin="round"/>
<path d="M125.878 114.336C125.878 114.336 126.406 117.611 124.646 121.974" stroke="#F1C4C4" stroke-width="0.75" stroke-miterlimit="10" stroke-linecap="round" stroke-linejoin="round"/>
<path d="M148.134 142.238C148.134 142.238 152.061 143.262 153.426 145.14C154.792 147.018 164.01 172.967 164.352 177.405C164.694 181.843 163.328 191.063 163.669 192.087C164.01 193.111 165.034 194.477 164.01 194.989C162.986 195.501 161.45 197.038 161.45 197.038C161.45 197.038 155.816 196.697 154.791 196.355C153.767 196.014 152.401 193.794 153.425 192.428C154.449 191.063 154.62 189.867 154.62 189.184C154.62 188.501 152.487 180.103 152.487 178.396C152.487 176.689 152.411 175.251 152.24 173.714C152.069 172.178 150.022 166.323 150.022 166.323C150.022 166.323 145.909 159.792 146.08 150.061" fill="#2BDAC2"/>
<path d="M148.134 142.238C148.134 142.238 152.061 143.262 153.426 145.14C154.792 147.018 164.01 172.967 164.352 177.405C164.694 181.843 163.328 191.063 163.669 192.087C164.01 193.111 165.034 194.477 164.01 194.989C162.986 195.501 161.45 197.038 161.45 197.038C161.45 197.038 155.816 196.697 154.791 196.355C153.767 196.014 152.401 193.794 153.425 192.428C154.449 191.063 154.62 189.867 154.62 189.184C154.62 188.501 152.487 180.103 152.487 178.396C152.487 176.689 152.411 175.251 152.24 173.714C152.069 172.178 150.022 166.323 150.022 166.323C150.022 166.323 145.909 159.792 146.08 150.061" stroke="#2D314D" stroke-miterlimit="10" stroke-linecap="round" stroke-linejoin="round"/>
<path d="M154.792 196.355L154.451 199.598L160.084 200.451L161.451 197.038L154.792 196.355Z" fill="#2BDAC2" stroke="#2D314D" stroke-miterlimit="10" stroke-linecap="round" stroke-linejoin="round"/>
<path d="M154.451 199.598C154.451 199.598 147.964 202.501 147.452 203.354C146.94 204.207 145.916 208.305 145.233 208.817C144.549 209.329 143.866 210.012 145.745 209.841C147.623 209.67 148.135 208.646 148.135 208.646C148.135 208.646 147.988 210.392 148.176 210.542C148.363 210.693 151.326 210.767 152.413 210.805C153.5 210.843 153.688 210.767 153.688 210.767C153.688 210.767 153.351 211.593 153.988 211.854C154.625 212.117 154.588 211.517 155 210.992C155.412 210.468 155.975 208.78 156.276 208.105C156.575 207.43 156.726 206.53 156.726 206.53C156.726 206.53 158.6 205.518 159.5 204.43C160.4 203.343 159.912 200.193 159.912 200.193L154.451 199.598Z" fill="#F1C4C4" stroke="#2D314D" stroke-miterlimit="10" stroke-linecap="round" stroke-linejoin="round"/>
<path d="M148.134 208.646L148.475 204.355" stroke="#2D314D" stroke-miterlimit="10" stroke-linecap="round" stroke-linejoin="round"/>
<path d="M149.825 210.767L150.388 204.692" stroke="#2D314D" stroke-miterlimit="10" stroke-linecap="round" stroke-linejoin="round"/>
<path d="M151.963 210.655L152.863 205.03" stroke="#2D314D" stroke-miterlimit="10" stroke-linecap="round" stroke-linejoin="round"/>
<path d="M153.687 210.767C153.687 210.767 154.437 205.93 154.549 205.367" stroke="#2D314D" stroke-miterlimit="10" stroke-linecap="round" stroke-linejoin="round"/>
<path d="M114.2 276.505C114.2 276.505 111.65 278.755 111.2 279.055C110.75 279.354 102.5 283.854 102.65 285.055C102.8 286.255 111.35 285.655 116.15 284.455C120.95 283.255 121.25 282.805 121.4 282.054C121.55 281.305 121.85 278.454 121.85 278.454L114.2 276.505Z" fill="#F1C4C4" stroke="#2D314D" stroke-miterlimit="10" stroke-linecap="round" stroke-linejoin="round"/>
<path d="M104.28 284.507C104.28 284.507 115.629 284.327 120.132 281.444" stroke="#2D314D" stroke-width="0.75" stroke-miterlimit="10" stroke-linecap="round" stroke-linejoin="round"/>
<path d="M53.1167 277.945C53.1167 277.945 62.6927 280.529 64.9724 282.505C67.2521 284.481 60.4121 285.089 56.1569 284.937C51.9008 284.785 51.4454 283.569 48.4052 283.569C45.365 283.569 42.629 284.937 42.1736 282.201C41.7173 279.465 45.5171 278.401 48.1019 277.793C50.6849 277.185 53.1167 277.945 53.1167 277.945Z" fill="#EFD1D1" stroke="#263238" stroke-miterlimit="10" stroke-linecap="round" stroke-linejoin="round"/>
<path d="M50.3546 282.345C50.3546 282.345 55.0382 285.408 63.3254 283.606" stroke="#263238" stroke-width="0.75" stroke-miterlimit="10" stroke-linecap="round" stroke-linejoin="round"/>
<path d="M43.5416 279.465C43.5416 279.465 47.4935 282.049 50.837 283.417C54.1805 284.785 56.6132 285.241 55.0931 286.457C53.573 287.673 53.1167 287.825 49.3169 288.585C45.5171 289.344 37.9175 287.369 37.157 287.369C36.3965 287.369 35.6369 288.281 33.5093 287.521C31.3817 286.762 31.0775 285.697 31.8371 283.265C32.5976 280.833 42.3257 278.706 43.5416 279.465Z" fill="#EFD1D1" stroke="#263238" stroke-miterlimit="10" stroke-linecap="round" stroke-linejoin="round"/>
<path d="M35.7629 285.768C35.7629 285.768 44.2301 289.191 53.5973 286.308" stroke="#263238" stroke-width="0.75" stroke-miterlimit="10" stroke-linecap="round" stroke-linejoin="round"/>
<path d="M64.6691 174.132L66.4934 193.284C66.4934 193.284 63.9095 220.795 60.7172 229.763C57.5249 238.73 54.6377 248.611 53.573 252.258C52.5092 255.906 51.4454 270.193 52.3571 273.082C53.2688 275.97 53.1167 277.338 53.1167 277.338V277.946C53.1167 277.946 53.7251 278.402 51.5966 279.618C49.469 280.834 46.733 281.29 46.733 281.29L43.5407 279.466C43.5407 279.466 38.9804 282.811 37.3091 283.722C35.6369 284.634 31.8371 285.242 31.8371 285.242C31.8371 285.242 30.6212 283.418 30.6212 281.595C30.6212 279.77 30.6212 277.795 30.6212 275.666C30.6212 273.539 29.1011 263.051 29.2532 256.666C29.4053 250.283 30.6212 243.291 31.8371 240.099C33.053 236.907 37.157 227.18 37.157 227.18C37.157 227.18 37.157 222.771 35.1806 215.02C33.2051 207.268 32.7488 203.316 30.1649 194.956C27.581 186.596 32.7488 174.285 32.7488 174.285C32.7488 174.285 44.7566 176.412 51.2924 176.109C57.8291 175.803 64.6691 174.132 64.6691 174.132Z" fill="#263238" stroke="#263238" stroke-miterlimit="10" stroke-linecap="round" stroke-linejoin="round"/>
<path d="M41.8694 190.547C41.8694 190.547 42.7811 192.219 44.1491 193.891" stroke="#EFD1D1" stroke-width="0.75" stroke-miterlimit="10" stroke-linecap="round" stroke-linejoin="round"/>
<path d="M50.0774 178.843L55.0931 178.995L54.941 177.78" stroke="#EFD1D1" stroke-width="0.75" stroke-miterlimit="10" stroke-linecap="round" stroke-linejoin="round"/>
<path d="M56.9165 178.084V179.3C56.9165 179.3 61.1726 180.364 64.5161 178.54" stroke="#EFD1D1" stroke-width="0.75" stroke-miterlimit="10" stroke-linecap="round" stroke-linejoin="round"/>
<path d="M61.781 180.82L60.5651 185.532L62.5406 188.268C62.5406 188.268 59.6525 193.284 59.6525 193.74" stroke="#EFD1D1" stroke-width="0.75" stroke-miterlimit="10" stroke-linecap="round" stroke-linejoin="round"/>
<path d="M62.6927 194.651L57.677 198.755C57.677 198.755 54.6368 224.594 52.9646 231.282C51.2924 237.97 45.0608 259.706 44.3012 264.569C43.5416 269.433 43.3895 271.257 43.3895 271.714C43.3895 272.17 44.3012 273.841 44.3012 274.754C44.3012 275.665 44.3012 278.249 44.3012 278.249" stroke="#EFD1D1" stroke-width="0.75" stroke-miterlimit="10" stroke-linecap="round" stroke-linejoin="round"/>
<path d="M47.7967 176.868C47.7967 176.868 56.9164 178.084 61.0204 177.78C65.1244 177.475 65.7319 175.803 66.1882 174.284C66.6445 172.764 60.7162 136.589 60.412 134.461C60.1078 132.333 60.5641 128.837 57.676 127.621C54.7879 126.405 48.7084 128.533 47.6446 132.637C46.5808 136.741 49.9243 160.604 49.0126 165.772C48.1009 170.94 47.7967 176.868 47.7967 176.868Z" fill="#EFD1D1" stroke="#263238" stroke-miterlimit="10" stroke-linecap="round" stroke-linejoin="round"/>
<path d="M55.7006 134.765L57.9812 138.869L58.7408 172.916L61.4768 179.452L63.7565 171.396L59.3492 138.565L59.9567 133.7L58.1324 129.749L55.7006 134.765Z" fill="#263238" stroke="#263238" stroke-miterlimit="10" stroke-linecap="round" stroke-linejoin="round"/>
<path d="M58.7408 133.093L61.4768 137.804L60.1088 129.141L57.3728 130.813L58.7408 133.093Z" fill="#EFD1D1" stroke="#263238" stroke-miterlimit="10" stroke-linecap="round" stroke-linejoin="round"/>
<path d="M52.0529 119.717L51.2933 123.213L57.5249 134.309C57.5249 134.309 59.3861 130.165 60.1088 129.141C60.9287 127.978 63.662 123.605 63.662 123.605C63.662 123.605 59.045 123.973 58.2854 121.237C57.5258 118.501 58.2854 114.701 55.3973 114.397C52.5092 114.093 52.0529 119.717 52.0529 119.717Z" fill="#EFD1D1" stroke="#263238" stroke-miterlimit="10" stroke-linecap="round" stroke-linejoin="round"/>
<path d="M55.076 117.567L55.3739 118.588C55.3739 118.588 54.779 120.345 55.7879 121.634C56.7977 122.923 62.4524 126.022 64.9328 125.298C67.4132 124.573 68.1656 117.387 68.1656 117.387C68.1656 117.387 70.5245 117.332 70.2869 115.976C70.0493 114.62 68.6633 113.124 68.5292 111.58C68.3951 110.036 69.2276 109.634 68.8622 107.841C68.4968 106.047 67.9253 104.63 66.2891 103.367C64.6538 102.102 55.6988 106.141 53.0429 108.975C50.387 111.81 49.8407 114.819 50.4977 116.527C51.1547 118.236 55.076 117.567 55.076 117.567Z" fill="#EFD1D1" stroke="#263238" stroke-miterlimit="10" stroke-linecap="round" stroke-linejoin="round"/>
<path d="M66.5248 112.269C66.4888 112.82 66.28 113.257 66.0586 113.242C65.8372 113.228 65.686 112.769 65.722 112.216C65.758 111.665 65.9668 111.228 66.1882 111.243C66.4105 111.257 66.5608 111.717 66.5248 112.269Z" fill="#263238"/>
<path d="M67.1495 109.73C67.1495 109.73 66.0182 108.684 64.8671 110.396" stroke="#263238" stroke-miterlimit="10" stroke-linecap="round" stroke-linejoin="round"/>
<path d="M65.0777 119.599C65.0777 119.599 64.0841 119.339 63.6935 118.627" stroke="#263238" stroke-miterlimit="10" stroke-linecap="round" stroke-linejoin="round"/>
<path d="M56.1866 111.067L55.8896 113.845L57.6401 113.334C57.6401 113.334 56.6924 115.511 57.9812 114.502C59.27 113.492 60.9836 110.142 61.5245 109.825C62.0654 109.509 65.1596 106.547 67.2566 104.51C69.3536 102.472 70.277 99.6695 69.5597 98.2952C68.8415 96.9218 60.1214 90.917 52.1708 95.138C44.2193 99.3599 42.0629 105.531 42.8963 108.93C43.7297 112.328 50.1287 121.227 51.278 121.367C52.4273 121.506 55.0769 117.566 55.0769 117.566C55.0769 117.566 51.6479 116.667 52.3283 115.202C53.0078 113.737 56.1866 111.067 56.1866 111.067Z" fill="#263238" stroke="#263238" stroke-miterlimit="10" stroke-linecap="round" stroke-linejoin="round"/>
<path d="M50.9927 111.823C49.9127 112.58 48.8147 113.252 47.7167 113.799" stroke="#EFD1D1" stroke-width="0.75" stroke-miterlimit="10" stroke-linecap="round" stroke-linejoin="round"/>
<path d="M65.1857 97.1477C65.1857 97.1477 60.3626 103.945 54.2957 109.221" stroke="#EFD1D1" stroke-width="0.75" stroke-miterlimit="10" stroke-linecap="round" stroke-linejoin="round"/>
<path d="M48.5888 109.553C48.2441 109.874 47.8904 110.195 47.5277 110.516" stroke="#EFD1D1" stroke-width="0.75" stroke-miterlimit="10" stroke-linecap="round" stroke-linejoin="round"/>
<path d="M58.622 97.5239C58.622 97.5239 55.823 102.36 50.3321 107.87" stroke="#EFD1D1" stroke-width="0.75" stroke-miterlimit="10" stroke-linecap="round" stroke-linejoin="round"/>
<path d="M50.9891 121.997L58.7408 133.093L53.1167 138.717L49.1648 123.517L50.9891 121.997Z" fill="#EFD1D1" stroke="#263238" stroke-miterlimit="10" stroke-linecap="round" stroke-linejoin="round"/>
<path d="M47.0372 124.428L36.3974 127.924C36.3974 127.924 28.0373 167.747 27.4298 168.811C26.8223 169.875 15.8783 189.482 17.2463 191.611C18.6143 193.738 31.6859 200.73 32.7497 200.274C33.8135 199.818 41.5652 185.074 46.2776 180.819C50.9891 176.563 55.7015 171.243 56.309 165.315L52.205 147.836L51.7487 136.892L47.0372 124.428Z" fill="#33D35E" stroke="#263238" stroke-miterlimit="10" stroke-linecap="round" stroke-linejoin="round"/>
<path d="M50.0774 123.517L47.0372 124.428L46.2776 139.324L51.4454 142.212L48.4052 146.773L56.309 165.316L53.1167 136.588L50.0774 123.517Z" fill="#33D35E" stroke="#263238" stroke-miterlimit="10" stroke-linecap="round" stroke-linejoin="round"/>
<path d="M40.2431 187.792L28.0994 198.355C28.0994 198.355 29.2982 199.795 32.7488 200.275C32.7488 200.275 38.1434 192.892 40.2431 187.792Z" fill="#33D35E" stroke="#263238" stroke-miterlimit="10" stroke-linecap="round" stroke-linejoin="round"/>
<path d="M42.1736 178.995C42.1736 178.995 47.1893 179.148 48.2531 179.452C49.3169 179.756 53.4209 184.011 53.4209 184.011C53.4209 184.011 53.4209 184.467 51.9008 184.923C50.3807 185.379 47.6447 183.403 47.6447 183.403L41.7164 189.027L38.0687 184.467L42.1736 178.995Z" fill="#EFD1D1" stroke="#263238" stroke-miterlimit="10" stroke-linecap="round" stroke-linejoin="round"/>
<path d="M41.7173 177.323L43.0853 179.148L38.0696 184.467L37.4612 182.491L41.7173 177.323Z" fill="#EFD1D1" stroke="#263238" stroke-miterlimit="10" stroke-linecap="round" stroke-linejoin="round"/>
<path d="M45.5171 125.645C45.5171 125.645 31.2296 125.645 30.1658 126.861C29.102 128.077 17.8538 162.124 17.8538 164.1C17.8538 166.077 37.157 184.164 37.157 184.164L42.629 177.476L31.685 160.301L40.3484 141.605" fill="#33D35E"/>
<path d="M45.5171 125.645C45.5171 125.645 31.2296 125.645 30.1658 126.861C29.102 128.077 17.8538 162.124 17.8538 164.1C17.8538 166.077 37.157 184.164 37.157 184.164L42.629 177.476L31.685 160.301L40.3484 141.605" stroke="#263238" stroke-miterlimit="10" stroke-linecap="round" stroke-linejoin="round"/>
</svg>
