<svg width="589" height="428" viewBox="0 0 589 428" fill="none" xmlns="http://www.w3.org/2000/svg">
<path d="M39.3404 422.402C39.3404 422.402 -3.16438 322.346 50.5919 246.732C104.348 171.117 71.5622 104.087 165.947 37.3538C287.265 -48.4202 404.28 36.2085 439.175 93.5866C474.07 150.965 592.591 121.674 558.146 284.94C531.426 411.589 551.364 417.145 551.364 417.145L39.3404 422.402Z" fill="#2D314D"/>
<path d="M64.9504 395.335C64.9504 395.335 -10.4808 355.927 7.69447 267.313C25.8698 178.7 99.8918 157.673 130.334 164.178C187.391 176.371 94.1718 212.345 71.9041 150.598C43.9645 73.1233 143.583 14.466 235.929 29.6461C295.278 39.4026 323.926 67.8128 376.683 85.6644C429.251 103.452 451.299 79.6285 430.354 65.8212C410.473 52.7133 338.29 74.0983 363.074 103.408C397.011 143.54 478.796 81.3614 542.183 150.598C605.57 219.835 550.542 306.879 501.811 314.138C453.081 321.396 474.448 251.448 550.542 306.88C626.636 362.312 530.518 422.405 530.518 422.405" stroke="#33D35E" stroke-miterlimit="10"/>
<path d="M582.904 427.945H6.29581C3.23431 427.945 0.753906 425.464 0.753906 422.403C0.753906 419.342 3.23561 416.861 6.29581 416.861H588.446V422.403C588.446 425.464 585.964 427.945 582.904 427.945Z" fill="#33D35E"/>
<path d="M213.508 427.945H6.29581C3.23431 427.945 0.753906 425.464 0.753906 422.403V416.861H219.051V422.403C219.051 425.464 216.569 427.945 213.508 427.945Z" fill="#1C145E"/>
<path d="M299.648 205.579C274.956 253.029 247.211 272.36 247.211 272.36L271.172 310.614L313.012 267.134L299.648 205.579Z" fill="#2BDAC2"/>
<path d="M360.872 194.253L299.648 205.579C295.77 321.413 294.317 416.846 294.317 416.846H404.211C404.211 416.846 407.4 239.47 389.721 200.769L360.872 194.253Z" fill="#2BDAC2"/>
<path d="M353.764 253.282L383.591 250.759" stroke="#2BDAC2" stroke-width="4" stroke-miterlimit="10"/>
<path d="M340.072 228.387C340.072 228.387 359.004 357.578 342.531 409.851" stroke="#2BDAC2" stroke-miterlimit="10"/>
<path d="M320.25 293.1C320.25 293.1 338.535 300.461 362.242 301.239C385.949 302.018 371.199 314.632 336.055 312.24" stroke="#2BDAC2" stroke-miterlimit="10"/>
<path d="M324.962 189.543L340.072 229.687L360.872 194.253L347.163 171.85L324.962 189.543Z" fill="#E9A394"/>
<path d="M340.072 229.687L368.278 221.9L360.872 194.253L340.072 229.687Z" fill="#2BDAC2"/>
<path d="M328.32 198.464L313.012 215.562L340.072 229.687L328.32 198.464Z" fill="#2BDAC2"/>
<path d="M271.172 310.614C271.172 310.614 280.112 291.97 260.916 267.958C250.272 254.642 245.367 231.665 245.367 231.665L229.375 234.097L244.019 310.615H271.172V310.614Z" fill="#E9A394"/>
<path d="M226.105 207.673L219.557 213.625L228.311 221.352L200.899 220.885L200.312 230.291L229.373 234.097L245.367 231.665L226.105 207.673Z" fill="#E9A394"/>
<path d="M230.896 222.322L204.595 211.473L202.897 216.145L224.849 225.37L230.896 222.322Z" fill="#E9A394"/>
<path d="M389.723 200.769C389.723 200.769 425.053 220.885 436.209 296.236L395.22 306.126L389.723 200.769Z" fill="#2BDAC2"/>
<path d="M312.992 140.487L299.648 174.63L309.852 177.769L312.992 197L345.567 189.543L350.276 137.347L312.992 140.487Z" fill="#E9A394"/>
<path d="M334.732 148.6H309.821L312.538 141.239L334.732 139.867V148.6Z" fill="#E37A82"/>
<path d="M347.749 164.177C347.749 164.177 331.856 160.889 331.856 144.448C331.856 144.448 308.276 147.657 300.135 134.858C290.493 119.696 305.228 102.272 317.398 105.812C317.398 105.812 309.729 113.413 321.376 114.306C329.681 114.943 344.859 103.893 350.277 114.58C350.277 114.58 392.083 124.129 360.874 163.081L347.749 164.177Z" fill="black"/>
<path d="M331.855 143.148C331.855 143.148 300.334 149.238 293.741 126.634C289.887 113.419 303.133 105.894 303.133 105.894" stroke="black" stroke-width="2" stroke-miterlimit="10"/>
<path d="M318.517 173.542C325.088 173.542 330.415 168.214 330.415 161.643C330.415 155.071 325.088 149.744 318.517 149.744C311.945 149.744 306.618 155.071 306.618 161.643C306.618 168.214 311.945 173.542 318.517 173.542Z" stroke="black" stroke-width="0.5" stroke-miterlimit="10"/>
<path d="M329.776 157.792L346.723 158.72" stroke="black" stroke-width="0.5" stroke-miterlimit="10"/>
<path d="M368.278 167.173C368.278 174.543 358.405 180.516 351.035 180.516C343.665 180.516 341.592 174.541 341.592 167.173C341.592 159.805 347.567 153.83 354.935 153.83C362.303 153.83 368.278 159.805 368.278 167.173Z" fill="#E9A394"/>
<path d="M431.318 297.415V358.946H400.636L398.083 305.435L431.318 297.415Z" fill="#E9A394"/>
<path d="M297.259 283.505L298.547 240.631L278.673 302.82L297.259 283.505Z" fill="#2AB6D9"/>
<path d="M326.542 193.627L345.567 189.543L329.97 202.846L326.542 193.627Z" fill="#E37A82"/>
<path d="M315.29 167.173C316.548 167.173 317.567 165.046 317.567 162.423C317.567 159.799 316.548 157.673 315.29 157.673C314.032 157.673 313.012 159.799 313.012 162.423C313.012 165.046 314.032 167.173 315.29 167.173Z" fill="#2D314D"/>
<path d="M321.476 150.87C321.476 144.505 316.408 148.79 316.408 148.79L321.476 150.87Z" fill="#2D314D"/>
<path d="M316.407 179.049L323.654 177.119C323.654 177.119 326.76 204.001 316.407 179.049Z" fill="white"/>
<path d="M160.228 299.538C160.228 299.538 209.124 291.972 210.085 377.239C210.241 391.076 219.051 416.86 219.051 416.86H174.738L160.228 299.538Z" fill="#33D35E"/>
<path d="M109.1 291.972L79.5469 298.948L88.5637 416.86H203.551C203.551 416.86 199.694 323.568 156.331 295.581L109.1 291.972Z" fill="#33D35E"/>
<path d="M79.5468 298.948C49.0865 305.895 56.217 329.274 62.0982 377.283C46.8947 389.63 61.4807 395.188 61.4807 395.188C44.7835 412.887 65.6134 416.86 65.6134 416.86H121.22C121.22 416.86 110.028 291.995 79.5468 298.948Z" fill="#33D35E"/>
<path d="M117.912 389.626L104.568 328.37" stroke="#33D35E" stroke-miterlimit="10"/>
<path d="M65.6123 416.86C65.6123 416.86 75.0009 395.305 104.673 384.468C129.276 375.484 165.264 398.807 188.301 376.645L192.568 401.597L121.219 416.86H65.6123Z" fill="#E9A394"/>
<path d="M163.427 231.244L185.425 264.729L171.309 269.768L168.869 296.981L126.444 282.241L130.442 226.889L163.427 231.244Z" fill="#E9A394"/>
<path d="M130.785 266.418L109.1 291.972L136.909 326.053L149.452 286.247L130.785 266.418Z" fill="#E37A82"/>
<path d="M138.037 250.595L169.068 239.83L163.427 231.244L132.773 234.434L138.037 250.595Z" fill="#E37A82"/>
<path d="M135.357 262.325C135.357 262.325 144.752 281.135 138.216 244.877C138.216 244.877 147.131 245.878 154.114 234.111C154.114 234.111 151.944 253.285 172.425 234.111C192.907 214.936 166.869 199.934 135.053 205.579C107.476 210.472 79.8797 226.053 120.213 278.876L135.357 262.325Z" fill="black"/>
<path d="M130.334 269.804C128.218 272.642 124.582 275.217 120.801 275.769C113.24 276.87 105.856 270.901 104.755 263.341C103.654 255.78 107.474 251.854 115.033 250.753C119.283 250.134 124.203 251.394 127.894 253.958C129.009 255.348 130.334 269.804 130.334 269.804Z" fill="#E9A394"/>
<path d="M160.263 259.353C161.395 259.046 161.744 256.702 161.043 254.118C160.342 251.534 158.856 249.689 157.723 249.996C156.591 250.303 156.242 252.647 156.943 255.231C157.644 257.815 159.13 259.66 160.263 259.353Z" fill="black"/>
<path d="M151.662 248.101C151.662 248.101 150.559 241.883 156.331 244.877L151.662 248.101Z" fill="black"/>
<path d="M105.627 293.017L110.662 287.235L108.815 282.948L120.212 278.877L152.908 295.319L154.112 307.873L148.579 306.125L139.547 339.792L105.627 293.017Z" fill="#33D35E"/>
<path d="M135.152 301.238L154.112 307.873L152.909 295.319" stroke="#33D35E" stroke-miterlimit="10"/>
<path d="M138.216 244.877C138.216 244.877 142.03 267.075 147.608 271.64C149.44 273.139 152.907 269.326 168.869 269.006C178.628 268.811 178.62 302.876 165.669 301.9C152.719 300.924 133.038 292.849 130.088 268.019C127.503 246.236 138.216 244.877 138.216 244.877Z" fill="black"/>
<path d="M154.112 275.769C154.112 275.769 157.404 281.898 163.891 277.746" stroke="#C4C6C5" stroke-miterlimit="10"/>
<path d="M228.123 402.841H118.964V410.928C118.964 414.204 121.62 416.859 124.895 416.859H228.123C231.399 416.859 234.053 414.203 234.053 410.928V408.772C234.055 405.497 231.399 402.841 228.123 402.841Z" fill="#1C145E"/>
<path d="M316.776 321.766H189.798C186.024 321.766 182.837 324.572 182.359 328.315L172.129 408.411C171.557 412.894 175.049 416.86 179.568 416.86H306.547C310.321 416.86 313.507 414.055 313.985 410.312L324.215 330.215C324.787 325.733 321.295 321.766 316.776 321.766Z" fill="#1C145E"/>
<path d="M322.921 321.766H195.943C192.169 321.766 188.982 324.572 188.504 328.315L178.274 408.411C177.702 412.894 181.194 416.86 185.713 416.86H312.692C316.466 416.86 319.652 414.055 320.13 410.312L330.36 330.215C330.932 325.733 327.44 321.766 322.921 321.766Z" fill="white"/>
<path d="M262.489 377.919C267.777 372.902 268.402 364.976 263.885 360.215C259.368 355.455 251.42 355.664 246.132 360.681C240.844 365.698 240.219 373.625 244.736 378.385C249.253 383.145 257.201 382.937 262.489 377.919Z" fill="#2D314D"/>
<path d="M320.152 416.182H162.097" stroke="#1C145E" stroke-miterlimit="10"/>
<path d="M390.004 308.991L442.473 309.986L430.578 245.801L402.679 248.96C402.679 248.96 390.112 267.508 400.036 281.931C411.233 298.203 388.851 298.81 390.004 308.991Z" fill="#2D314D"/>
<path d="M402.678 248.96C402.678 248.96 390.111 267.508 400.035 281.931C411.233 298.204 388.851 298.81 390.004 308.991" stroke="#33D35E" stroke-width="2" stroke-miterlimit="10"/>
<path d="M413.145 301.238C413.145 301.238 389.272 324.664 376.684 412.946H403.259L413.145 301.238Z" fill="#33D35E"/>
<path d="M476.24 294.712L465.85 412.946H388.667L398.275 367.789C398.275 367.789 368.89 352.458 413.145 301.238L424.145 295.581L471.933 291.972L476.24 294.712Z" fill="#33D35E"/>
<path d="M413.145 354.153C413.145 354.153 408.519 362.078 412.967 368.44L406.417 412.946" stroke="#33D35E" stroke-miterlimit="10"/>
<path d="M402.358 367.993L447.064 369.313" stroke="#33D35E" stroke-miterlimit="10"/>
<path d="M455.878 390.249L451.149 333.381" stroke="#33D35E" stroke-miterlimit="10"/>
<path d="M476.24 294.712C476.24 294.712 480.502 300.075 485.437 312.509C492.434 330.141 500.778 361.995 500.231 412.945H465.85L476.24 294.712Z" fill="#33D35E"/>
<path d="M500.231 416.846C500.231 416.846 483.053 377.56 439.845 388.802C392.666 401.078 375.148 398.784 375.148 398.784L371.571 416.846H500.231Z" fill="#E9A394"/>
<path d="M455.259 380.546L439.928 383.974L474.751 416.846H507.575C507.575 416.846 493.428 382.544 455.259 380.546Z" fill="#33D35E"/>
<path d="M456.207 390.742L463.509 388.511" stroke="#33D35E" stroke-miterlimit="10"/>
<path d="M375.148 398.784L352.73 394.149L336.661 416.846H371.571L375.148 398.784Z" fill="#E9A394"/>
<path d="M413.146 354.153L454.803 312.496L447.064 308.842L476.24 294.712L462.842 286.187H431.66L413.146 309.329L418.261 310.614L413.146 314.202V354.153Z" fill="#33D35E"/>
<path d="M442.269 300.348L455.878 290.943L441.188 258.096L418.418 272.398L424.833 299.644L413.146 354.153L442.269 300.348Z" fill="#E9A394"/>
<path d="M420.25 280.179L436.23 271.846L421.963 287.454L420.25 280.179Z" fill="#E37A82"/>
<path d="M391.059 232.625L384.082 271.295H394.548L406.3 287.454L436.23 271.846L415.297 225.206L391.059 232.625Z" fill="#E9A394"/>
<path d="M389.367 242.002L388.667 246.251L416.269 242.485L415.847 237.195L389.367 242.002Z" fill="#E37A82"/>
<path d="M467.351 229.687C460.442 210.957 451.993 203.736 451.993 203.736C435.061 186.91 406.116 205.58 406.116 205.58C369.025 196.602 384.081 242.652 384.081 242.652L414.288 238.947C418.512 264.287 433.616 251.456 433.616 251.456L440.661 264.162C440.661 264.162 433.554 270.444 440.964 281.213C447.065 290.08 432.455 293.101 436.231 302.541L494.618 290.439C494.618 252.021 479.839 263.539 467.351 229.687Z" fill="black"/>
<path d="M381.714 242.95C381.714 242.95 376.372 216.658 386.185 208.102C391.302 203.641 407.415 205.58 407.415 205.58" stroke="#33D35E" stroke-width="2" stroke-miterlimit="10"/>
<path d="M498.44 289.331C498.44 289.331 503.103 271.846 477.697 252.02" stroke="black" stroke-width="2" stroke-miterlimit="10"/>
<path d="M434.485 265.787C441.431 265.787 447.062 260.156 447.062 253.21C447.062 246.263 441.431 240.632 434.485 240.632C427.538 240.632 421.907 246.263 421.907 253.21C421.907 260.156 427.538 265.787 434.485 265.787Z" fill="#E9A394"/>
<path d="M402.358 269.873L410.155 267.958C410.155 267.958 412.892 290.197 402.358 269.873Z" fill="white"/>
<path d="M395.864 256.731C395.864 256.731 398.346 241.606 403.776 256.731" stroke="#2D314D" stroke-width="0.5" stroke-miterlimit="10"/>
<path d="M397.78 245.225C397.78 245.225 400.803 240.106 404.384 245.225H397.78Z" fill="#2D314D"/>
<path d="M280.452 108.958C275.928 96.3764 261.705 90.0766 249.238 95.4521C238.509 100.079 232.821 112.251 236.149 123.451C238.01 129.714 242.211 134.557 247.472 137.384C252.329 139.991 256.497 143.713 259.552 148.301L260.433 149.624L277.901 143.344L277.739 141.77C277.163 136.195 278.138 130.618 280.198 125.407C282.208 120.32 282.447 114.509 280.452 108.958Z" fill="#FDCC50"/>
<path d="M280.452 108.958C275.928 96.3764 261.705 90.0766 249.238 95.4521C238.509 100.079 232.821 112.251 236.149 123.451C238.01 129.714 242.211 134.557 247.472 137.384C252.329 139.991 256.497 143.713 259.552 148.301L260.433 149.624L277.901 143.344L277.739 141.77C277.163 136.195 278.138 130.618 280.198 125.407C282.208 120.32 282.447 114.509 280.452 108.958Z" fill="#FDCC50"/>
<path d="M264.429 144.472L250.505 124.835C250.505 124.835 250.758 120.858 255.129 121.488C259.5 122.119 262.109 129.017 258.99 127.904C255.871 126.791 254.768 118.683 260.67 117.447C266.57 116.21 268.542 129.617 265.282 127.034C262.022 124.451 262.709 115.915 269.029 115.845L272.736 144.168" stroke="black" stroke-miterlimit="10"/>
<path d="M277.496 156.767L269.293 159.716C266.174 160.838 262.735 159.218 261.615 156.1L259.881 151.277C258.759 148.158 260.379 144.719 263.497 143.599L271.7 140.649C274.819 139.527 278.256 141.147 279.378 144.266L281.112 149.089C282.233 152.208 280.614 155.645 277.496 156.767Z" fill="#16005C"/>
<path d="M279.427 136.282L254.724 145.163L259.059 157.223L283.762 148.342L279.427 136.282Z" fill="black"/>
<path d="M257.917 87.5767L255.453 73.447" stroke="#FDCC50" stroke-miterlimit="10"/>
<path d="M240.115 95.9929L228.314 84.4658" stroke="#FDCC50" stroke-miterlimit="10"/>
<path d="M227.816 116.933L214.351 117.897" stroke="#FDCC50" stroke-miterlimit="10"/>
<path d="M277.327 95.3195L283.387 84.081" stroke="#FDCC50" stroke-miterlimit="10"/>
<path d="M466.92 199.122H550.416C553.319 199.122 556.1 196.769 556.626 193.865L565.254 146.263C565.781 143.36 563.853 141.005 560.95 141.005H477.454C474.551 141.005 471.77 143.358 471.244 146.263L462.616 193.865C462.09 196.768 464.017 199.122 466.92 199.122Z" fill="#33D35E"/>
<path d="M533.858 173.762C536.295 171.536 536.765 168.082 534.907 166.048C533.049 164.014 529.567 164.17 527.13 166.397C524.693 168.623 524.223 172.077 526.081 174.111C527.939 176.144 531.421 175.988 533.858 173.762Z" fill="white"/>
<path d="M517.273 173.762C519.711 171.535 520.18 168.082 518.323 166.048C516.465 164.014 512.983 164.17 510.545 166.396C508.108 168.623 507.638 172.076 509.496 174.11C511.354 176.144 514.836 175.988 517.273 173.762Z" fill="white"/>
<path d="M500.688 173.761C503.126 171.535 503.595 168.082 501.738 166.048C499.88 164.014 496.398 164.17 493.96 166.396C491.523 168.622 491.053 172.076 492.911 174.11C494.769 176.144 498.251 175.988 500.688 173.761Z" fill="white"/>
<path d="M511.857 195.991L482.845 213.233L488.045 194.632L511.857 195.991Z" fill="#33D35E"/>
<path d="M197.935 192.065H114.439C111.536 192.065 108.755 189.712 108.229 186.808L99.6008 139.206C99.0743 136.303 101.002 133.949 103.905 133.949H187.401C190.304 133.949 193.085 136.302 193.612 139.206L202.24 186.808C202.766 189.711 200.84 192.065 197.935 192.065Z" fill="#2AB6D9"/>
<path d="M138.734 167.032C140.592 164.998 140.122 161.545 137.685 159.318C135.248 157.092 131.766 156.936 129.908 158.97C128.05 161.004 128.52 164.457 130.957 166.684C133.394 168.91 136.876 169.066 138.734 167.032Z" fill="white"/>
<path d="M155.319 167.032C157.176 164.998 156.707 161.545 154.269 159.318C151.832 157.092 148.35 156.936 146.492 158.97C144.635 161.004 145.104 164.457 147.542 166.684C149.979 168.91 153.461 169.066 155.319 167.032Z" fill="white"/>
<path d="M171.902 167.033C173.76 164.999 173.29 161.546 170.853 159.319C168.416 157.093 164.934 156.937 163.076 158.971C161.218 161.005 161.688 164.458 164.125 166.685C166.562 168.911 170.044 169.067 171.902 167.033Z" fill="white"/>
<path d="M168.15 188.935L172.73 205.579L191.252 187.77L168.15 188.935Z" fill="#2AB6D9"/>
</svg>
